<svg width="142" height="32" viewBox="0 0 142 32" fill="none" xmlns="http://www.w3.org/2000/svg">
<g clip-path="url(#clip0_1387_2387)">
<path d="M15.7809 3.14504C22.7389 3.14504 28.4167 8.79498 28.4167 15.7809C28.4167 22.7668 22.7389 28.3889 15.7809 28.3889C8.82281 28.3889 3.14504 22.7389 3.14504 15.7809C3.14504 8.82281 8.82281 3.14504 15.7809 3.14504ZM15.7809 0C7.06938 0 0 7.06938 0 15.7809C0 24.4924 7.06938 31.5617 15.7809 31.5617C24.4924 31.5617 31.5617 24.4924 31.5617 15.7809C31.5617 7.06938 24.4924 0 15.7809 0Z" fill="#E30613"/>
<path d="M21.3228 14.1914H10.2734V17.3364H21.3228V14.1914Z" fill="#E30613"/>
<path d="M19.0684 12.9405L15.7842 9.65628L12.5 12.9405L10.2734 10.7139L15.7842 5.20312L21.3228 10.7139L19.0684 12.9405Z" fill="#E30613"/>
<path d="M15.7842 25.2412C12.7505 25.2412 10.2734 22.7642 10.2734 19.7305H13.4185C13.4185 21.0386 14.4761 22.0962 15.7842 22.0962C17.0923 22.0962 18.15 21.0386 18.15 19.7305H21.295C21.295 22.7642 18.8179 25.2412 15.7842 25.2412Z" fill="#E30613"/>
<path d="M46.9171 16.1094C46.6387 15.8311 46.3882 15.6363 46.1656 15.525V15.4693C46.3882 15.358 46.6109 15.1631 46.8336 14.9683C47.0562 14.7457 47.2789 14.4952 47.4459 14.189L51.2867 7.92676H46.6944L43.0762 14.0777H41.9351C41.9629 13.9942 41.9629 13.9107 41.9907 13.8272C42.1021 13.2427 42.1299 12.6861 42.1299 12.1573V7.87109H37.8438V23.652H42.1299V18.3638C42.1299 17.9185 42.0742 17.4175 41.9351 16.8887H43.0762L46.7779 23.652H51.5372L47.6129 16.9722C47.4459 16.6661 47.1954 16.3599 46.9171 16.1094Z" fill="#E30613"/>
<path d="M64.3736 9.26026C63.817 8.64796 63.0655 8.20264 62.1749 7.95215C61.2842 7.70166 60.171 7.5625 58.8628 7.5625C57.5547 7.5625 56.4693 7.70166 55.5508 7.95215C54.6323 8.20264 53.9087 8.64796 53.3521 9.26026C52.7954 9.87257 52.3779 10.7075 52.1274 11.7652C51.877 12.8228 51.7656 14.1587 51.7656 15.773C51.7656 17.3873 51.877 18.6954 52.1274 19.753C52.3779 20.8106 52.7676 21.6456 53.3521 22.2579C53.9087 22.8702 54.6602 23.3155 55.5508 23.566C56.4693 23.8165 57.5547 23.9557 58.8628 23.9557C60.171 23.9557 61.2842 23.8165 62.1749 23.566C63.0655 23.3155 63.817 22.8702 64.3736 22.2579C64.9303 21.6456 65.3477 20.8106 65.5982 19.753C65.8487 18.6954 65.9601 17.3594 65.9601 15.773C65.9601 14.1587 65.8487 12.8228 65.5982 11.7652C65.3477 10.7075 64.9581 9.87257 64.3736 9.26026ZM61.2286 18.8067C61.0894 19.5304 60.8111 20.0313 60.4493 20.2818C60.0875 20.5601 59.5586 20.6993 58.8907 20.6993C58.2227 20.6993 57.6939 20.5601 57.3321 20.2818C56.9703 20.0035 56.6919 19.5025 56.5528 18.8067C56.4136 18.0831 56.3301 17.0811 56.3301 15.773C56.3301 14.4649 56.4136 13.4351 56.5528 12.7393C56.6919 12.0157 56.9703 11.5147 57.3321 11.2642C57.6939 10.9859 58.2227 10.8467 58.8907 10.8467C59.5586 10.8467 60.0875 10.9859 60.4493 11.2642C60.8111 11.5425 61.0894 12.0435 61.2286 12.7393C61.3677 13.4629 61.4512 14.4649 61.4512 15.773C61.4234 17.0811 61.3677 18.1109 61.2286 18.8067Z" fill="#E30613"/>
<path d="M79.63 17.3897C79.3516 17.0557 79.0455 16.8052 78.7115 16.6382C78.3775 16.4991 78.0714 16.3878 77.793 16.3599V16.2208C78.5723 16.1373 79.2125 15.9146 79.6578 15.5806C80.1031 15.2466 80.4371 14.8013 80.6319 14.2447C80.8267 13.688 80.9102 13.0757 80.9102 12.4077C80.9102 11.1831 80.6876 10.209 80.2701 9.54103C79.8248 8.87305 79.1568 8.37208 78.2383 8.09375C77.3199 7.81543 76.0953 7.64844 74.6202 7.64844C73.6182 7.64844 72.7832 7.64844 72.0596 7.64844C71.3638 7.64844 70.6958 7.67627 70.1113 7.7041C69.5269 7.73193 68.8867 7.7876 68.2188 7.8711V23.652H72.4214V17.6959C73.0059 17.6959 73.646 17.6959 74.3975 17.7237C74.8428 17.7237 75.1768 17.8072 75.3995 17.9742C75.6221 18.1412 75.7891 18.4473 75.9004 18.9483L77.0137 23.6798H81.5504L80.2423 18.8092C80.1309 18.1968 79.9083 17.7237 79.63 17.3897ZM76.4293 13.855C76.3179 14.1333 76.0953 14.3282 75.7891 14.4395C75.483 14.5508 75.0655 14.6065 74.5088 14.6065H72.3936V10.7656C73.0337 10.7656 73.7295 10.7656 74.5088 10.7656C75.0655 10.7656 75.483 10.8213 75.7891 10.9326C76.0953 11.044 76.2901 11.2388 76.4293 11.5171C76.5406 11.7954 76.6241 12.1851 76.6241 12.7139C76.6241 13.187 76.5406 13.5767 76.4293 13.855Z" fill="#E30613"/>
<path d="M86.7285 7.87109H82.1641V11.1553H86.7285V23.6798H91.0425V11.1553H95.5792V7.87109H91.0425H86.7285Z" fill="#E30613"/>
<path d="M108.653 17.3897C108.375 17.0557 108.069 16.8052 107.735 16.6382C107.401 16.4991 107.095 16.3878 106.816 16.3599V16.2208C107.596 16.1373 108.236 15.9146 108.681 15.5806C109.127 15.2466 109.461 14.8013 109.655 14.2447C109.85 13.688 109.934 13.0757 109.934 12.4077C109.934 11.1831 109.711 10.209 109.294 9.54103C108.848 8.87305 108.18 8.37208 107.262 8.09375C106.343 7.81543 105.119 7.64844 103.644 7.64844C102.642 7.64844 101.807 7.64844 101.083 7.64844C100.387 7.64844 99.7193 7.67627 99.1348 7.7041C98.5503 7.73193 97.9102 7.7876 97.2422 7.8711V23.652H101.445V17.6959C102.029 17.6959 102.669 17.6959 103.421 17.7237C103.866 17.7237 104.2 17.8072 104.423 17.9742C104.646 18.1412 104.813 18.4473 104.924 18.9483L106.037 23.6798H110.546L109.238 18.8092C109.154 18.1968 108.932 17.7237 108.653 17.3897ZM105.453 13.855C105.341 14.1333 105.119 14.3282 104.813 14.4395C104.506 14.5508 104.089 14.6065 103.532 14.6065H101.417V10.7656C102.057 10.7656 102.753 10.7656 103.532 10.7656C104.089 10.7656 104.506 10.8213 104.813 10.9326C105.119 11.044 105.314 11.2388 105.453 11.5171C105.564 11.7954 105.648 12.1851 105.648 12.7139C105.62 13.187 105.564 13.5767 105.453 13.855Z" fill="#E30613"/>
<path d="M116.665 7.87109H112.406V23.652H116.665V7.87109Z" fill="#E30613"/>
<path d="M121.404 19.6998C121.404 20.3956 120.903 20.7296 119.929 20.7296H118.844L118.398 23.4571C118.621 23.5685 118.955 23.6798 119.345 23.7633C119.734 23.8468 120.18 23.9025 120.597 23.9303C121.042 23.9581 121.404 23.9859 121.71 23.9859C122.935 23.9859 123.881 23.7076 124.577 23.1231C125.273 22.5387 125.635 21.7315 125.635 20.6739V7.87109H121.376V19.6998H121.404Z" fill="#E30613"/>
<path d="M137.234 23.6798H141.994L138.097 17.0001C137.93 16.6661 137.708 16.3878 137.401 16.1094C137.123 15.8311 136.873 15.6363 136.65 15.525V15.4693C136.873 15.358 137.095 15.1631 137.318 14.9683C137.541 14.7457 137.763 14.4952 137.93 14.189L141.771 7.92676H137.179L133.561 14.0777H132.419C132.447 13.9942 132.447 13.9107 132.475 13.8272C132.586 13.2427 132.614 12.6861 132.614 12.1573V7.87109H128.328V23.652H132.614V18.3638C132.614 17.9185 132.559 17.4175 132.419 16.8887H133.561L137.234 23.6798Z" fill="#E30613"/>
</g>
<defs>
<clipPath id="clip0_1387_2387">
<rect width="142" height="31.5617" fill="white"/>
</clipPath>
</defs>
</svg>
