<svg width="176" height="30" viewBox="0 0 176 30" fill="none" xmlns="http://www.w3.org/2000/svg">
<g clip-path="url(#clip0_1387_2371)">
<path d="M175.159 0H0V29.4054H175.159V0Z" fill="#1D1D1B"/>
<path d="M27.1584 8.47487L27.7164 22.3312H23.8891L23.3985 10.1638H23.0427L21.174 18.7473C21.0167 19.5936 20.4625 20.0355 19.5487 20.0355H17.1894C16.2794 20.0355 15.7214 19.5899 15.5453 18.7473L13.6541 10.1638H13.2984L12.8977 22.3312H9.07031L9.60584 8.47487C9.65078 7.49743 10.1414 6.98438 11.1188 6.98438H14.8563C15.7476 6.98438 16.3018 7.43002 16.4816 8.29511L17.9271 15.0997C18.0619 15.8337 18.1481 16.5902 18.238 17.3242H18.4814C18.5937 16.5902 18.6836 15.8337 18.8147 15.0772L20.2153 8.29511C20.3951 7.42628 20.9493 6.98438 21.8406 6.98438H25.6417C26.6416 6.98438 27.1098 7.49743 27.1547 8.47487" fill="white"/>
<path d="M41.0514 11.2812V22.3364H37.8495L37.5162 20.756C36.0257 22.0218 34.6251 22.6472 33.0222 22.6472C30.9101 22.6472 29.8203 21.5799 29.8203 19.5539V11.2812H33.8686V18.2881C33.8686 18.9771 34.1345 19.243 34.846 19.243C35.4677 19.243 36.0482 19.0895 36.9807 18.685V11.2812H41.0514Z" fill="white"/>
<path d="M53.2067 11.437L52.9595 13.8825C51.4915 13.86 50.001 13.86 48.6453 13.86C47.0425 13.86 46.7766 13.8375 46.7766 14.3281C46.7766 14.7738 47.0874 14.7738 48.1323 15.0621L50.8024 15.7737C52.7386 16.3092 53.6486 17.1294 53.6486 19.043C53.6486 21.8218 52.1356 22.5783 48.4206 22.5783C47.4657 22.5783 45.3273 22.5333 43.0391 22.1551L43.2826 19.7096C43.9492 19.7096 45.6381 19.7321 47.1736 19.7321C49.3307 19.7321 49.7314 19.6647 49.7314 19.1554C49.7314 18.7097 49.3531 18.7097 48.2409 18.3764L45.6606 17.6649C43.3687 17.0208 42.8594 15.9085 42.8594 14.1746C42.8594 12.04 44.1064 10.9727 47.7952 10.9727C49.4842 10.9951 51.821 11.1749 53.1992 11.4408" fill="white"/>
<path d="M59.1921 15.7735H61.4391C62.394 15.7735 62.5513 15.4852 62.5513 14.7961C62.5513 13.9273 62.1506 13.7063 61.0384 13.7063C59.6827 13.6838 59.2595 13.9947 59.1921 15.7735ZM65.7757 19.2002L66.1315 21.6681C64.6859 22.4021 62.7947 22.6006 60.9934 22.6006C56.5669 22.6006 54.9453 20.7543 54.9453 16.8633C54.9453 12.5042 56.6156 10.9688 60.9297 10.9688C64.9106 10.9688 66.4236 12.302 66.4461 14.8822C66.4685 16.9045 65.4462 17.8632 62.5775 17.8632H59.2632C59.443 19.1065 60.0197 19.4661 61.4428 19.4661C62.3978 19.4661 64.0456 19.3986 65.7795 19.2002" fill="white"/>
<path d="M72.7123 19.7772C73.3564 19.7772 74.1353 19.4888 74.8694 18.9983V17.6426H72.555C71.8884 17.6651 71.6225 17.9984 71.6225 18.5114V18.8897C71.6225 19.4664 71.9558 19.781 72.7123 19.781M78.8952 15.287V22.3388H75.6932L75.315 20.7134C74.5585 21.6459 73.2927 22.6271 71.3791 22.6271C69.3118 22.6271 67.6641 21.5373 67.6641 19.4701V18.3579C67.6641 16.6015 68.9973 15.5342 71.1993 15.5342H74.8694V15.2683C74.8469 14.3358 74.4911 14.0025 73.3339 14.0025C72.1767 14.0025 70.4428 14.0474 68.5966 14.156L68.2408 11.5308C69.8848 11.22 72.6673 10.9766 74.2889 10.9766C77.2699 10.9766 78.8914 11.9989 78.8914 15.2908" fill="white"/>
<path d="M91.0873 15.77H90.02C90.1323 16.2606 90.1997 16.7699 90.1997 17.1931V22.3312H86.0391V6.98438H90.1997V11.0551C90.1997 11.6768 90.1323 12.3434 90.02 12.9688H91.0648L94.5776 6.98438H99.0715L95.3565 13.0325C95.0007 13.6541 94.5326 14.0773 94.1094 14.3432V14.4106C94.5326 14.654 95.1992 15.257 95.5325 15.8562L99.3149 22.3275H94.6899L91.0873 15.7663V15.77Z" fill="white"/>
<path d="M103.805 16.8184C103.805 19.2414 104.139 19.7769 105.517 19.7769C106.895 19.7769 107.228 19.2414 107.228 16.8184C107.228 14.3954 106.872 13.8149 105.517 13.8149C104.161 13.8149 103.805 14.3729 103.805 16.8184ZM111.479 16.8184C111.479 21.0651 109.876 22.6006 105.517 22.6006C101.158 22.6006 99.5547 21.0651 99.5547 16.8184C99.5547 12.5716 101.18 10.9688 105.517 10.9688C109.853 10.9688 111.479 12.5491 111.479 16.8184Z" fill="white"/>
<path d="M121.848 10.9688L121.492 14.6837H120.425C119.623 14.6837 118.758 14.8186 117.376 15.1519V22.3347H113.328V11.2796H116.485L116.841 12.9049C118.286 11.6166 119.799 10.9688 121.245 10.9688H121.844H121.848Z" fill="white"/>
<path d="M128.251 13.8134V18.4833C128.251 19.1949 128.517 19.4383 129.296 19.4383H130.584L131.03 22.1084C130.138 22.4642 128.472 22.6215 127.562 22.6215C125.472 22.6215 124.203 21.4643 124.203 19.487L124.18 13.8171H122.289V11.3941L124.18 11.3042V8.30078H128.251V11.2818H131.097V13.8171H128.251V13.8134Z" fill="white"/>
<path d="M141.121 10.9688L140.766 14.6837H139.698C138.897 14.6837 138.032 14.8186 136.65 15.1519V22.3347H132.602V11.2796H135.759L136.114 12.9049C137.56 11.6166 139.073 10.9688 140.518 10.9688H141.118H141.121Z" fill="white"/>
<path d="M146.5 22.3328H142.475V11.2777H146.5V22.3328ZM146.523 7.49901V8.6562C146.523 9.45762 146.145 9.83586 145.366 9.83586H143.609C142.83 9.83586 142.43 9.45762 142.43 8.6562V7.49901C142.43 6.69759 142.83 6.29688 143.609 6.29688H145.366C146.145 6.29688 146.523 6.69759 146.523 7.49901Z" fill="white"/>
<path d="M152.972 7.32029V8.49995C152.972 9.30137 152.594 9.67961 151.815 9.67961H150.059C149.28 9.67961 148.902 9.30137 148.902 8.49995V7.32029C148.902 6.54134 149.28 6.14062 150.059 6.14062H151.815C152.594 6.14062 152.972 6.54134 152.972 7.32029ZM152.995 21.3976C152.995 23.5771 151.77 25.6893 149.748 26.6255L147.523 24.8467C148.613 23.712 148.969 22.6896 148.969 21.3976V11.2787H152.995V21.3976Z" fill="white"/>
<path d="M160.04 17.3976H159.239C159.328 17.9743 159.392 18.5547 159.392 19.0453V22.3371H155.344V6.76562H159.392V12.9485C159.392 13.6376 159.347 14.3492 159.239 15.0382H160.062L162.44 11.2783H166.889L164.332 14.9933C164.021 15.5288 163.463 16.0157 163.174 16.1954V16.2853C163.463 16.4426 164.021 17.0642 164.332 17.6185L167.29 22.3334H162.819L160.04 17.3976Z" fill="white"/>
</g>
<defs>
<clipPath id="clip0_1387_2371">
<rect width="175.159" height="29.4054" fill="white"/>
</clipPath>
</defs>
</svg>
