<svg width="14" height="24" viewBox="0 0 14 24" fill="none" xmlns="http://www.w3.org/2000/svg">
<path d="M6.82617 0.25C10.4587 0.25 13.4023 3.18827 13.4023 6.81152C13.4023 8.65581 12.6472 12.8982 11.416 16.6855C10.801 18.5773 10.0726 20.3377 9.27148 21.6201C8.87088 22.2614 8.45867 22.7727 8.04199 23.1211C7.62582 23.469 7.22015 23.6426 6.82617 23.6426C6.43235 23.6425 6.02732 23.4688 5.61133 23.1211C5.19462 22.7727 4.78149 22.2615 4.38086 21.6201C3.57985 20.3377 2.85227 18.5772 2.2373 16.6855C1.00608 12.8982 0.250028 8.65581 0.25 6.81152C0.25 3.18834 3.19371 0.250118 6.82617 0.25Z" fill="#FF6249" stroke="#1B1B1B" stroke-width="0.5"/>
<circle cx="6.8276" cy="7.58571" r="3.54244" fill="#FF6249" stroke="#1B1B1B" stroke-width="0.5"/>
</svg>
