<svg width="492" height="625" viewBox="0 0 492 625" fill="none" xmlns="http://www.w3.org/2000/svg">
<path d="M104.591 253.569V71.85L147.602 118.878L173.737 94.9828L86.8781 0L0 94.9828L26.1359 118.878L69.1656 71.85V253.569H104.591Z" fill="#F7FCFD"/>
<path d="M289.203 326.193V187.553C289.203 167.656 273.066 151.529 253.169 151.529C233.272 151.529 217.145 167.648 217.145 187.553V455.615C211.353 452.936 205.146 450.073 198.066 446.796C124.603 412.897 37.0031 455.28 96.3437 481.414C155.683 507.55 234.814 624.799 234.814 624.799H455.236C455.236 624.799 491.948 562.658 491.948 477.875C491.942 369.966 320.292 332.16 289.214 326.197L289.203 326.193Z" fill="#F7FCFD"/>
</svg>
