<svg width="75" height="67" viewBox="0 0 75 67" fill="none" xmlns="http://www.w3.org/2000/svg">
<path d="M37.1543 7.92601L66.4054 37.2616L37.1543 66.5973L7.90317 37.2616L37.1543 7.92601Z" fill="#FF6249"/>
<path d="M39.664 39.7786C31.5865 47.8794 17.3667 46.7525 7.90317 37.2616C-1.56038 27.7708 -2.684 13.5099 5.39346 5.40905C13.4709 -2.69177 27.6907 -1.56488 37.1543 7.92601C46.6178 17.4169 47.7415 31.6778 39.664 39.7786Z" fill="#FF6249"/>
<path d="M34.6446 39.7786C26.5671 31.6778 27.6907 17.4169 37.1543 7.92601C46.6178 -1.56488 60.8376 -2.69176 68.9151 5.40905C76.9926 13.5099 75.8689 27.7708 66.4054 37.2616C56.9418 46.7525 42.722 47.8794 34.6446 39.7786Z" fill="#FF6249"/>
<path d="M37.5488 15.4465C44.1275 8.85011 53.7806 8.25359 59.1309 13.6184C64.4837 18.9859 63.887 28.6713 57.3076 35.2688L36.8037 55.8284L16.2998 35.2688C9.72052 28.6714 9.1238 18.9859 14.4766 13.6184C19.8269 8.25335 29.4809 8.84974 36.0596 15.4465L36.8037 16.1936L37.5488 15.4465Z" fill="#FF6249" stroke="#1B1B1B" stroke-width="2.10307"/>
</svg>
