<svg width="75" height="75" viewBox="0 0 75 75" fill="none" xmlns="http://www.w3.org/2000/svg">
<rect width="75" height="75" rx="37.5" fill="#D4F75F"/>
<path d="M37.8969 19.0445L23.2603 25.8571C22.983 25.9862 22.7684 26.2201 22.6636 26.5074C22.5588 26.7948 22.5724 27.1119 22.7015 27.3892L35.5698 55.0362C35.6989 55.3135 35.9328 55.5281 36.2201 55.6329C36.5074 55.7377 36.8246 55.7241 37.1019 55.595L51.7385 48.7824C52.0158 48.6533 52.2305 48.4194 52.3353 48.1321C52.4401 47.8448 52.4264 47.5276 52.2974 47.2503L39.429 19.6033C39.3 19.3261 39.0661 19.1114 38.7787 19.0066C38.4914 18.9018 38.1742 18.9154 37.8969 19.0445ZM36.4172 51.3912L26.036 29.0878L38.5817 23.2483L48.9629 45.5518L36.4172 51.3912Z" fill="#1B1B1B"/>
<path d="M36.5781 16.9861C36.5781 16.9861 37.8248 15.6426 40.0688 16.3907C42.3128 17.1387 42.5622 18.7314 42.5622 18.7314" stroke="#1B1B1B" stroke-width="1.59574" stroke-linecap="round"/>
<path d="M39.1397 58.0223C39.1397 58.0223 37.8443 59.3188 35.6294 58.4886C33.4145 57.6583 33.2241 56.0576 33.2241 56.0576" stroke="#1B1B1B" stroke-width="1.59574" stroke-linecap="round"/>
<path d="M36.5781 13.2679C36.5781 13.2679 38.2404 11.4767 41.2324 12.474C44.2244 13.4714 44.5568 15.5949 44.5568 15.5949" stroke="#1B1B1B" stroke-width="2.12766" stroke-linecap="round"/>
<path d="M39.0053 61.7328C39.0053 61.7328 37.2781 63.4616 34.3249 62.3546C31.3717 61.2476 31.1178 59.1132 31.1178 59.1132" stroke="#1B1B1B" stroke-width="2.12766" stroke-linecap="round"/>
</svg>
