<svg width="36" height="36" viewBox="0 0 36 36" fill="none" xmlns="http://www.w3.org/2000/svg">
<path d="M28.985 8.34328C28.7572 8.22554 28.5354 8.09648 28.3205 7.95656C27.6956 7.54345 27.1227 7.05667 26.6141 6.50672C25.3414 5.05055 24.8661 3.57328 24.691 2.53898H24.698C24.5518 1.68047 24.6123 1.125 24.6214 1.125H18.8248V23.5392C18.8248 23.8402 18.8248 24.1376 18.8122 24.4315C18.8122 24.468 18.8087 24.5018 18.8066 24.5412C18.8066 24.5573 18.8066 24.5742 18.803 24.5911C18.803 24.5953 18.803 24.5995 18.803 24.6038C18.7419 25.408 18.4841 26.1849 18.0523 26.8661C17.6205 27.5473 17.0279 28.1119 16.3266 28.5103C15.5958 28.9261 14.7691 29.1442 13.9283 29.1431C11.2276 29.1431 9.03875 26.9409 9.03875 24.2213C9.03875 21.5016 11.2276 19.2994 13.9283 19.2994C14.4395 19.2989 14.9476 19.3793 15.4337 19.5377L15.4407 13.6357C13.9651 13.4451 12.466 13.5624 11.038 13.9801C9.60998 14.3979 8.28405 15.107 7.14383 16.0629C6.14473 16.931 5.30479 17.9667 4.6618 19.1236C4.41711 19.5455 3.49391 21.2407 3.38211 23.992C3.3118 25.5537 3.78078 27.1716 4.00438 27.8402V27.8543C4.145 28.248 4.68992 29.5917 5.57797 30.7245C6.29406 31.6331 7.14009 32.4313 8.08883 33.0933V33.0792L8.10289 33.0933C10.9091 35.0002 14.0204 34.875 14.0204 34.875C14.559 34.8532 16.3632 34.875 18.4121 33.904C20.6846 32.8275 21.9784 31.2237 21.9784 31.2237C22.8049 30.2654 23.4621 29.1733 23.9218 27.9942C24.4463 26.6154 24.6214 24.9616 24.6214 24.3007V12.4095C24.6917 12.4516 25.6283 13.0711 25.6283 13.0711C25.6283 13.0711 26.9776 13.9359 29.0827 14.4991C30.593 14.8999 32.6279 14.9843 32.6279 14.9843V9.22992C31.9149 9.30727 30.4672 9.08227 28.985 8.34328Z" fill="#D4F75F"/>
</svg>
