<svg width="768" height="363" viewBox="0 0 768 363" fill="none" xmlns="http://www.w3.org/2000/svg">
<path d="M341.962 68.9419L386.688 139.465L442.775 35.51L418.58 130.275L539.582 11.9959L448.114 124.545L625.784 0.0018847L473.278 122.664L695.509 0.345461L492.356 124.763L744.003 13.0032L504.048 130.696L767.962 37.1124L507.558 140.061L765.753 71.0302L502.647 152.218L737.527 112.445L489.648 166.339L685.208 158.535L469.449 181.463L612.36 206.158L443.425 196.558L523.949 252.07L413.35 210.595L425.999 293.141L381.273 222.618L325.186 326.573L349.381 231.808L228.379 350.087L319.847 237.539L142.176 362.081L294.683 239.419L72.4523 361.738L275.605 237.321L23.9583 349.08L263.913 231.387L-0.000787049 324.971L260.403 222.023L2.2078 291.053L265.314 209.865L30.4336 249.638L278.313 195.744L82.753 203.548L298.512 180.62L155.601 155.925L324.536 165.526L244.012 110.013L354.611 151.488L341.962 68.9419Z" fill="#FF6249"/>
</svg>
