<svg width="276" height="199" viewBox="0 0 276 199" fill="none" xmlns="http://www.w3.org/2000/svg">
<path d="M162.687 6.63076L166.73 55.6047L219.157 31.5751L193.055 72.7998L259.535 69.8908L208.459 95.2011L275.825 113.989L209.89 118.372L264.8 155.135L197.065 137.723L228.643 185.18L172.525 149.421L174.517 198.173L141.129 151.15L113.14 191.541L109.097 142.567L56.6704 166.597L82.7718 125.372L16.2918 128.281L67.3685 102.971L0.00185848 84.1828L65.9374 79.7999L11.027 43.0364L78.7621 60.449L47.1836 12.9913L103.302 48.7506L101.31 -0.00171797L134.698 47.0217L162.687 6.63076Z" fill="#FF6249"/>
</svg>
