<svg width="334" height="650" viewBox="0 0 334 650" fill="none" xmlns="http://www.w3.org/2000/svg">
<g opacity="0.3">
<path d="M31.7834 144.34C33.5334 137.27 31.4334 135.45 26.3234 135.45C24.0834 135.45 21.7034 135.52 19.1134 135.59C17.9234 140.14 16.3134 146.72 14.7734 152.67C17.4334 152.81 20.0934 152.74 22.1934 152.74C27.5834 152.67 30.3834 150.15 31.7834 144.34ZM26.5334 167.51C28.2834 160.51 26.5334 157.99 20.5134 157.99C18.4834 157.99 15.9634 158.06 13.4434 158.06C12.0434 163.87 10.3634 170.59 9.24344 175.56C11.9734 175.7 14.3534 175.7 16.3134 175.7C22.3334 175.7 24.8534 174.3 26.5334 167.51ZM13.0934 129.5H28.2834C37.6634 129.5 41.3734 134.19 38.9234 144.13C37.5234 149.73 35.5634 152.39 32.3434 154.14C31.0134 154.77 29.3334 155.19 27.3734 155.4L27.3034 155.75C28.7034 155.96 29.8234 156.17 30.6634 156.59C34.0934 158.2 35.1434 162.05 33.3934 169.12C31.0134 178.64 26.4634 182 17.5034 182H0.00343744C1.96344 175.07 4.06344 166.95 6.79344 155.75C9.59344 144.62 11.6934 136.08 13.0934 129.5ZM50.9678 129.5H58.6678C57.3378 133.91 54.9578 142.94 51.8078 155.61C50.1278 162.47 48.0978 170.73 47.0478 175.35C51.0378 175.35 56.2878 175.28 60.7678 175.14C60.4878 176.19 60.2078 177.38 59.9278 178.5C59.5778 179.69 59.2978 180.88 59.0878 182H37.8778C38.7178 178.71 41.7978 166.95 44.5278 155.75C47.7478 142.87 49.9178 134.4 50.9678 129.5ZM90.7847 133.77H90.5747C89.4547 136.22 87.8447 139.72 85.3947 144.76C82.9447 150.15 79.9347 156.73 77.1347 162.89C79.3747 162.96 81.7547 162.96 83.4347 162.96C85.1847 162.96 87.4947 162.96 89.7347 162.89C90.0147 156.66 90.2247 149.94 90.4347 144.55C90.5047 139.72 90.7147 136.22 90.7847 133.77ZM85.8147 129.5H97.2247C97.2947 135.73 96.3847 169.26 96.6647 182H88.6147C88.8947 179.83 89.1747 174.72 89.4547 168.63C86.7947 168.63 84.0647 168.63 82.0347 168.63C80.0047 168.63 77.2047 168.63 74.5447 168.63C71.8147 174.58 69.5747 179.55 68.5947 182H60.4747C66.7047 169.82 82.8047 135.66 85.8147 129.5ZM146.969 144.34C148.719 137.27 146.619 135.45 141.509 135.45C139.269 135.45 136.889 135.52 134.299 135.59C133.109 140.14 131.499 146.72 129.959 152.67C132.619 152.81 135.279 152.74 137.379 152.74C142.769 152.67 145.569 150.15 146.969 144.34ZM141.719 167.51C143.469 160.51 141.719 157.99 135.699 157.99C133.669 157.99 131.149 158.06 128.629 158.06C127.229 163.87 125.549 170.59 124.429 175.56C127.159 175.7 129.539 175.7 131.499 175.7C137.519 175.7 140.039 174.3 141.719 167.51ZM128.279 129.5H143.469C152.849 129.5 156.559 134.19 154.109 144.13C152.709 149.73 150.749 152.39 147.529 154.14C146.199 154.77 144.519 155.19 142.559 155.4L142.489 155.75C143.889 155.96 145.009 156.17 145.849 156.59C149.279 158.2 150.329 162.05 148.579 169.12C146.199 178.64 141.649 182 132.689 182H115.189C117.149 175.07 119.249 166.95 121.979 155.75C124.779 144.62 126.879 136.08 128.279 129.5ZM166.153 129.5H173.853C172.523 133.91 170.143 142.94 166.993 155.61C165.313 162.47 163.283 170.73 162.233 175.35C166.223 175.35 171.473 175.28 175.953 175.14C175.673 176.19 175.393 177.38 175.113 178.5C174.763 179.69 174.483 180.88 174.273 182H153.063C153.903 178.71 156.983 166.95 159.713 155.75C162.933 142.87 165.103 134.4 166.153 129.5ZM205.97 133.77H205.76C204.64 136.22 203.03 139.72 200.58 144.76C198.13 150.15 195.12 156.73 192.32 162.89C194.56 162.96 196.94 162.96 198.62 162.96C200.37 162.96 202.68 162.96 204.92 162.89C205.2 156.66 205.41 149.94 205.62 144.55C205.69 139.72 205.9 136.22 205.97 133.77ZM201 129.5H212.41C212.48 135.73 211.57 169.26 211.85 182H203.8C204.08 179.83 204.36 174.72 204.64 168.63C201.98 168.63 199.25 168.63 197.22 168.63C195.19 168.63 192.39 168.63 189.73 168.63C187 174.58 184.76 179.55 183.78 182H175.66C181.89 169.82 197.99 135.66 201 129.5ZM262.155 144.34C263.905 137.27 261.805 135.45 256.695 135.45C254.455 135.45 252.075 135.52 249.485 135.59C248.295 140.14 246.685 146.72 245.145 152.67C247.805 152.81 250.465 152.74 252.565 152.74C257.955 152.67 260.755 150.15 262.155 144.34ZM256.905 167.51C258.655 160.51 256.905 157.99 250.885 157.99C248.855 157.99 246.335 158.06 243.815 158.06C242.415 163.87 240.735 170.59 239.615 175.56C242.345 175.7 244.725 175.7 246.685 175.7C252.705 175.7 255.225 174.3 256.905 167.51ZM243.465 129.5H258.655C268.035 129.5 271.745 134.19 269.295 144.13C267.895 149.73 265.935 152.39 262.715 154.14C261.385 154.77 259.705 155.19 257.745 155.4L257.675 155.75C259.075 155.96 260.195 156.17 261.035 156.59C264.465 158.2 265.515 162.05 263.765 169.12C261.385 178.64 256.835 182 247.875 182H230.375C232.335 175.07 234.435 166.95 237.165 155.75C239.965 144.62 242.065 136.08 243.465 129.5ZM281.339 129.5H289.039C287.709 133.91 285.329 142.94 282.179 155.61C280.499 162.47 278.469 170.73 277.419 175.35C281.409 175.35 286.659 175.28 291.139 175.14C290.859 176.19 290.579 177.38 290.299 178.5C289.949 179.69 289.669 180.88 289.459 182H268.249C269.089 178.71 272.169 166.95 274.899 155.75C278.119 142.87 280.289 134.4 281.339 129.5ZM321.156 133.77H320.946C319.826 136.22 318.216 139.72 315.766 144.76C313.316 150.15 310.306 156.73 307.506 162.89C309.746 162.96 312.126 162.96 313.806 162.96C315.556 162.96 317.866 162.96 320.106 162.89C320.386 156.66 320.596 149.94 320.806 144.55C320.876 139.72 321.086 136.22 321.156 133.77ZM316.186 129.5H327.596C327.666 135.73 326.756 169.26 327.036 182H318.986C319.266 179.83 319.546 174.72 319.826 168.63C317.166 168.63 314.436 168.63 312.406 168.63C310.376 168.63 307.576 168.63 304.916 168.63C302.186 174.58 299.946 179.55 298.966 182H290.846C297.076 169.82 313.176 135.66 316.186 129.5Z" fill="#F7FCFD"/>
<path d="M20.0234 84.7C26.1834 84.7 28.2134 83.16 28.2134 75.81C28.2134 69.51 25.9734 66.99 19.8834 66.99C17.8534 66.99 15.3334 67.06 12.8134 67.06C12.8134 72.87 12.8134 79.59 12.9534 84.56C15.6834 84.7 18.0634 84.7 20.0234 84.7ZM27.7234 52.78C27.7234 45.85 25.6234 44.45 19.9534 44.45C17.8534 44.45 15.4734 44.52 12.8834 44.59C12.8134 49.14 12.8134 55.72 12.8134 61.67C15.3334 61.74 17.8534 61.74 19.7434 61.74C25.5534 61.67 27.7234 59.01 27.7234 52.78ZM26.0434 64.4V64.75C27.7234 64.89 29.1234 65.1 30.1734 65.59C33.8134 67.2 35.4934 70.7 35.4934 77C35.4934 87.29 31.2934 91 21.7034 91H5.32344C5.60344 84.07 5.60344 75.95 5.60344 64.75C5.60344 53.62 5.60344 45.08 5.32344 38.5H21.3534C30.7334 38.5 34.9334 41.72 34.9334 52.22C34.9334 58.24 33.6034 61.25 30.5234 63.14C29.4034 63.77 27.8634 64.12 26.0434 64.4ZM43.1978 38.5H50.8978C50.6878 42.91 50.5478 51.94 50.5478 64.61C50.5478 71.47 50.6178 79.66 50.6878 84.28C54.6778 84.28 59.9278 84.28 64.4078 84.14C64.4078 85.19 64.3378 86.38 64.3378 87.5C64.3378 88.69 64.4078 89.88 64.4078 91H43.1978C43.1978 87.71 43.3378 75.95 43.3378 64.75C43.3378 51.87 43.4078 43.4 43.1978 38.5ZM83.7847 42.77H83.5047C83.0147 45.22 82.3147 48.72 81.1247 53.76C80.0747 59.15 78.6747 65.66 77.4147 71.82C79.5847 71.89 81.9647 71.89 83.6447 71.89C85.3947 71.89 87.7047 71.89 89.9447 71.82C88.6147 65.59 87.2147 58.94 86.0947 53.55C84.9747 48.72 84.2747 45.22 83.7847 42.77ZM101.985 91H93.5847C93.3047 88.83 92.3947 83.72 91.1347 77.63C88.4747 77.63 85.7447 77.63 83.6447 77.63C81.6847 77.63 78.8147 77.63 76.2247 77.63C74.9647 83.58 73.9847 88.55 73.5647 91H65.7947C68.9447 78.82 76.6447 44.66 78.0447 38.5H89.4547C90.9947 44.73 98.5547 78.26 101.985 91ZM135.209 84.7C141.369 84.7 143.399 83.16 143.399 75.81C143.399 69.51 141.159 66.99 135.069 66.99C133.039 66.99 130.519 67.06 127.999 67.06C127.999 72.87 127.999 79.59 128.139 84.56C130.869 84.7 133.249 84.7 135.209 84.7ZM142.909 52.78C142.909 45.85 140.809 44.45 135.139 44.45C133.039 44.45 130.659 44.52 128.069 44.59C127.999 49.14 127.999 55.72 127.999 61.67C130.519 61.74 133.039 61.74 134.929 61.74C140.739 61.67 142.909 59.01 142.909 52.78ZM141.229 64.4V64.75C142.909 64.89 144.309 65.1 145.359 65.59C148.999 67.2 150.679 70.7 150.679 77C150.679 87.29 146.479 91 136.889 91H120.509C120.789 84.07 120.789 75.95 120.789 64.75C120.789 53.62 120.789 45.08 120.509 38.5H136.539C145.919 38.5 150.119 41.72 150.119 52.22C150.119 58.24 148.789 61.25 145.709 63.14C144.589 63.77 143.049 64.12 141.229 64.4ZM158.383 38.5H166.083C165.873 42.91 165.733 51.94 165.733 64.61C165.733 71.47 165.803 79.66 165.873 84.28C169.863 84.28 175.113 84.28 179.593 84.14C179.593 85.19 179.523 86.38 179.523 87.5C179.523 88.69 179.593 89.88 179.593 91H158.383C158.383 87.71 158.523 75.95 158.523 64.75C158.523 51.87 158.593 43.4 158.383 38.5ZM198.97 42.77H198.69C198.2 45.22 197.5 48.72 196.31 53.76C195.26 59.15 193.86 65.66 192.6 71.82C194.77 71.89 197.15 71.89 198.83 71.89C200.58 71.89 202.89 71.89 205.13 71.82C203.8 65.59 202.4 58.94 201.28 53.55C200.16 48.72 199.46 45.22 198.97 42.77ZM217.17 91H208.77C208.49 88.83 207.58 83.72 206.32 77.63C203.66 77.63 200.93 77.63 198.83 77.63C196.87 77.63 194 77.63 191.41 77.63C190.15 83.58 189.17 88.55 188.75 91H180.98C184.13 78.82 191.83 44.66 193.23 38.5H204.64C206.18 44.73 213.74 78.26 217.17 91ZM250.395 84.7C256.555 84.7 258.585 83.16 258.585 75.81C258.585 69.51 256.345 66.99 250.255 66.99C248.225 66.99 245.705 67.06 243.185 67.06C243.185 72.87 243.185 79.59 243.325 84.56C246.055 84.7 248.435 84.7 250.395 84.7ZM258.095 52.78C258.095 45.85 255.995 44.45 250.325 44.45C248.225 44.45 245.845 44.52 243.255 44.59C243.185 49.14 243.185 55.72 243.185 61.67C245.705 61.74 248.225 61.74 250.115 61.74C255.925 61.67 258.095 59.01 258.095 52.78ZM256.415 64.4V64.75C258.095 64.89 259.495 65.1 260.545 65.59C264.185 67.2 265.865 70.7 265.865 77C265.865 87.29 261.665 91 252.075 91H235.695C235.975 84.07 235.975 75.95 235.975 64.75C235.975 53.62 235.975 45.08 235.695 38.5H251.725C261.105 38.5 265.305 41.72 265.305 52.22C265.305 58.24 263.975 61.25 260.895 63.14C259.775 63.77 258.235 64.12 256.415 64.4ZM273.569 38.5H281.269C281.059 42.91 280.919 51.94 280.919 64.61C280.919 71.47 280.989 79.66 281.059 84.28C285.049 84.28 290.299 84.28 294.779 84.14C294.779 85.19 294.709 86.38 294.709 87.5C294.709 88.69 294.779 89.88 294.779 91H273.569C273.569 87.71 273.709 75.95 273.709 64.75C273.709 51.87 273.779 43.4 273.569 38.5ZM314.156 42.77H313.876C313.386 45.22 312.686 48.72 311.496 53.76C310.446 59.15 309.046 65.66 307.786 71.82C309.956 71.89 312.336 71.89 314.016 71.89C315.766 71.89 318.076 71.89 320.316 71.82C318.986 65.59 317.586 58.94 316.466 53.55C315.346 48.72 314.646 45.22 314.156 42.77ZM332.356 91H323.956C323.676 88.83 322.766 83.72 321.506 77.63C318.846 77.63 316.116 77.63 314.016 77.63C312.056 77.63 309.186 77.63 306.596 77.63C305.336 83.58 304.356 88.55 303.936 91H296.166C299.316 78.82 307.016 44.66 308.416 38.5H319.826C321.366 44.73 328.926 78.26 332.356 91Z" fill="#F7FCFD"/>
<path d="M20.0234 265.7C26.1834 265.7 28.2134 264.16 28.2134 256.81C28.2134 250.51 25.9734 247.99 19.8834 247.99C17.8534 247.99 15.3334 248.06 12.8134 248.06C12.8134 253.87 12.8134 260.59 12.9534 265.56C15.6834 265.7 18.0634 265.7 20.0234 265.7ZM27.7234 233.78C27.7234 226.85 25.6234 225.45 19.9534 225.45C17.8534 225.45 15.4734 225.52 12.8834 225.59C12.8134 230.14 12.8134 236.72 12.8134 242.67C15.3334 242.74 17.8534 242.74 19.7434 242.74C25.5534 242.67 27.7234 240.01 27.7234 233.78ZM26.0434 245.4V245.75C27.7234 245.89 29.1234 246.1 30.1734 246.59C33.8134 248.2 35.4934 251.7 35.4934 258C35.4934 268.29 31.2934 272 21.7034 272H5.32344C5.60344 265.07 5.60344 256.95 5.60344 245.75C5.60344 234.62 5.60344 226.08 5.32344 219.5H21.3534C30.7334 219.5 34.9334 222.72 34.9334 233.22C34.9334 239.24 33.6034 242.25 30.5234 244.14C29.4034 244.77 27.8634 245.12 26.0434 245.4ZM43.1978 219.5H50.8978C50.6878 223.91 50.5478 232.94 50.5478 245.61C50.5478 252.47 50.6178 260.66 50.6878 265.28C54.6778 265.28 59.9278 265.28 64.4078 265.14C64.4078 266.19 64.3378 267.38 64.3378 268.5C64.3378 269.69 64.4078 270.88 64.4078 272H43.1978C43.1978 268.71 43.3378 256.95 43.3378 245.75C43.3378 232.87 43.4078 224.4 43.1978 219.5ZM83.7847 223.77H83.5047C83.0147 226.22 82.3147 229.72 81.1247 234.76C80.0747 240.15 78.6747 246.66 77.4147 252.82C79.5847 252.89 81.9647 252.89 83.6447 252.89C85.3947 252.89 87.7047 252.89 89.9447 252.82C88.6147 246.59 87.2147 239.94 86.0947 234.55C84.9747 229.72 84.2747 226.22 83.7847 223.77ZM101.985 272H93.5847C93.3047 269.83 92.3947 264.72 91.1347 258.63C88.4747 258.63 85.7447 258.63 83.6447 258.63C81.6847 258.63 78.8147 258.63 76.2247 258.63C74.9647 264.58 73.9847 269.55 73.5647 272H65.7947C68.9447 259.82 76.6447 225.66 78.0447 219.5H89.4547C90.9947 225.73 98.5547 259.26 101.985 272ZM135.209 265.7C141.369 265.7 143.399 264.16 143.399 256.81C143.399 250.51 141.159 247.99 135.069 247.99C133.039 247.99 130.519 248.06 127.999 248.06C127.999 253.87 127.999 260.59 128.139 265.56C130.869 265.7 133.249 265.7 135.209 265.7ZM142.909 233.78C142.909 226.85 140.809 225.45 135.139 225.45C133.039 225.45 130.659 225.52 128.069 225.59C127.999 230.14 127.999 236.72 127.999 242.67C130.519 242.74 133.039 242.74 134.929 242.74C140.739 242.67 142.909 240.01 142.909 233.78ZM141.229 245.4V245.75C142.909 245.89 144.309 246.1 145.359 246.59C148.999 248.2 150.679 251.7 150.679 258C150.679 268.29 146.479 272 136.889 272H120.509C120.789 265.07 120.789 256.95 120.789 245.75C120.789 234.62 120.789 226.08 120.509 219.5H136.539C145.919 219.5 150.119 222.72 150.119 233.22C150.119 239.24 148.789 242.25 145.709 244.14C144.589 244.77 143.049 245.12 141.229 245.4ZM158.383 219.5H166.083C165.873 223.91 165.733 232.94 165.733 245.61C165.733 252.47 165.803 260.66 165.873 265.28C169.863 265.28 175.113 265.28 179.593 265.14C179.593 266.19 179.523 267.38 179.523 268.5C179.523 269.69 179.593 270.88 179.593 272H158.383C158.383 268.71 158.523 256.95 158.523 245.75C158.523 232.87 158.593 224.4 158.383 219.5ZM198.97 223.77H198.69C198.2 226.22 197.5 229.72 196.31 234.76C195.26 240.15 193.86 246.66 192.6 252.82C194.77 252.89 197.15 252.89 198.83 252.89C200.58 252.89 202.89 252.89 205.13 252.82C203.8 246.59 202.4 239.94 201.28 234.55C200.16 229.72 199.46 226.22 198.97 223.77ZM217.17 272H208.77C208.49 269.83 207.58 264.72 206.32 258.63C203.66 258.63 200.93 258.63 198.83 258.63C196.87 258.63 194 258.63 191.41 258.63C190.15 264.58 189.17 269.55 188.75 272H180.98C184.13 259.82 191.83 225.66 193.23 219.5H204.64C206.18 225.73 213.74 259.26 217.17 272ZM250.395 265.7C256.555 265.7 258.585 264.16 258.585 256.81C258.585 250.51 256.345 247.99 250.255 247.99C248.225 247.99 245.705 248.06 243.185 248.06C243.185 253.87 243.185 260.59 243.325 265.56C246.055 265.7 248.435 265.7 250.395 265.7ZM258.095 233.78C258.095 226.85 255.995 225.45 250.325 225.45C248.225 225.45 245.845 225.52 243.255 225.59C243.185 230.14 243.185 236.72 243.185 242.67C245.705 242.74 248.225 242.74 250.115 242.74C255.925 242.67 258.095 240.01 258.095 233.78ZM256.415 245.4V245.75C258.095 245.89 259.495 246.1 260.545 246.59C264.185 248.2 265.865 251.7 265.865 258C265.865 268.29 261.665 272 252.075 272H235.695C235.975 265.07 235.975 256.95 235.975 245.75C235.975 234.62 235.975 226.08 235.695 219.5H251.725C261.105 219.5 265.305 222.72 265.305 233.22C265.305 239.24 263.975 242.25 260.895 244.14C259.775 244.77 258.235 245.12 256.415 245.4ZM273.569 219.5H281.269C281.059 223.91 280.919 232.94 280.919 245.61C280.919 252.47 280.989 260.66 281.059 265.28C285.049 265.28 290.299 265.28 294.779 265.14C294.779 266.19 294.709 267.38 294.709 268.5C294.709 269.69 294.779 270.88 294.779 272H273.569C273.569 268.71 273.709 256.95 273.709 245.75C273.709 232.87 273.779 224.4 273.569 219.5ZM314.156 223.77H313.876C313.386 226.22 312.686 229.72 311.496 234.76C310.446 240.15 309.046 246.66 307.786 252.82C309.956 252.89 312.336 252.89 314.016 252.89C315.766 252.89 318.076 252.89 320.316 252.82C318.986 246.59 317.586 239.94 316.466 234.55C315.346 229.72 314.646 226.22 314.156 223.77ZM332.356 272H323.956C323.676 269.83 322.766 264.72 321.506 258.63C318.846 258.63 316.116 258.63 314.016 258.63C312.056 258.63 309.186 258.63 306.596 258.63C305.336 264.58 304.356 269.55 303.936 272H296.166C299.316 259.82 307.016 225.66 308.416 219.5H319.826C321.366 225.73 328.926 259.26 332.356 272Z" fill="#F7FCFD"/>
<path d="M31.7834 325.34C33.5334 318.27 31.4334 316.45 26.3234 316.45C24.0834 316.45 21.7034 316.52 19.1134 316.59C17.9234 321.14 16.3134 327.72 14.7734 333.67C17.4334 333.81 20.0934 333.74 22.1934 333.74C27.5834 333.67 30.3834 331.15 31.7834 325.34ZM26.5334 348.51C28.2834 341.51 26.5334 338.99 20.5134 338.99C18.4834 338.99 15.9634 339.06 13.4434 339.06C12.0434 344.87 10.3634 351.59 9.24344 356.56C11.9734 356.7 14.3534 356.7 16.3134 356.7C22.3334 356.7 24.8534 355.3 26.5334 348.51ZM13.0934 310.5H28.2834C37.6634 310.5 41.3734 315.19 38.9234 325.13C37.5234 330.73 35.5634 333.39 32.3434 335.14C31.0134 335.77 29.3334 336.19 27.3734 336.4L27.3034 336.75C28.7034 336.96 29.8234 337.17 30.6634 337.59C34.0934 339.2 35.1434 343.05 33.3934 350.12C31.0134 359.64 26.4634 363 17.5034 363H0.00343744C1.96344 356.07 4.06344 347.95 6.79344 336.75C9.59344 325.62 11.6934 317.08 13.0934 310.5ZM50.9678 310.5H58.6678C57.3378 314.91 54.9578 323.94 51.8078 336.61C50.1278 343.47 48.0978 351.73 47.0478 356.35C51.0378 356.35 56.2878 356.28 60.7678 356.14C60.4878 357.19 60.2078 358.38 59.9278 359.5C59.5778 360.69 59.2978 361.88 59.0878 363H37.8778C38.7178 359.71 41.7978 347.95 44.5278 336.75C47.7478 323.87 49.9178 315.4 50.9678 310.5ZM90.7847 314.77H90.5747C89.4547 317.22 87.8447 320.72 85.3947 325.76C82.9447 331.15 79.9347 337.73 77.1347 343.89C79.3747 343.96 81.7547 343.96 83.4347 343.96C85.1847 343.96 87.4947 343.96 89.7347 343.89C90.0147 337.66 90.2247 330.94 90.4347 325.55C90.5047 320.72 90.7147 317.22 90.7847 314.77ZM85.8147 310.5H97.2247C97.2947 316.73 96.3847 350.26 96.6647 363H88.6147C88.8947 360.83 89.1747 355.72 89.4547 349.63C86.7947 349.63 84.0647 349.63 82.0347 349.63C80.0047 349.63 77.2047 349.63 74.5447 349.63C71.8147 355.58 69.5747 360.55 68.5947 363H60.4747C66.7047 350.82 82.8047 316.66 85.8147 310.5ZM146.969 325.34C148.719 318.27 146.619 316.45 141.509 316.45C139.269 316.45 136.889 316.52 134.299 316.59C133.109 321.14 131.499 327.72 129.959 333.67C132.619 333.81 135.279 333.74 137.379 333.74C142.769 333.67 145.569 331.15 146.969 325.34ZM141.719 348.51C143.469 341.51 141.719 338.99 135.699 338.99C133.669 338.99 131.149 339.06 128.629 339.06C127.229 344.87 125.549 351.59 124.429 356.56C127.159 356.7 129.539 356.7 131.499 356.7C137.519 356.7 140.039 355.3 141.719 348.51ZM128.279 310.5H143.469C152.849 310.5 156.559 315.19 154.109 325.13C152.709 330.73 150.749 333.39 147.529 335.14C146.199 335.77 144.519 336.19 142.559 336.4L142.489 336.75C143.889 336.96 145.009 337.17 145.849 337.59C149.279 339.2 150.329 343.05 148.579 350.12C146.199 359.64 141.649 363 132.689 363H115.189C117.149 356.07 119.249 347.95 121.979 336.75C124.779 325.62 126.879 317.08 128.279 310.5ZM166.153 310.5H173.853C172.523 314.91 170.143 323.94 166.993 336.61C165.313 343.47 163.283 351.73 162.233 356.35C166.223 356.35 171.473 356.28 175.953 356.14C175.673 357.19 175.393 358.38 175.113 359.5C174.763 360.69 174.483 361.88 174.273 363H153.063C153.903 359.71 156.983 347.95 159.713 336.75C162.933 323.87 165.103 315.4 166.153 310.5ZM205.97 314.77H205.76C204.64 317.22 203.03 320.72 200.58 325.76C198.13 331.15 195.12 337.73 192.32 343.89C194.56 343.96 196.94 343.96 198.62 343.96C200.37 343.96 202.68 343.96 204.92 343.89C205.2 337.66 205.41 330.94 205.62 325.55C205.69 320.72 205.9 317.22 205.97 314.77ZM201 310.5H212.41C212.48 316.73 211.57 350.26 211.85 363H203.8C204.08 360.83 204.36 355.72 204.64 349.63C201.98 349.63 199.25 349.63 197.22 349.63C195.19 349.63 192.39 349.63 189.73 349.63C187 355.58 184.76 360.55 183.78 363H175.66C181.89 350.82 197.99 316.66 201 310.5ZM262.155 325.34C263.905 318.27 261.805 316.45 256.695 316.45C254.455 316.45 252.075 316.52 249.485 316.59C248.295 321.14 246.685 327.72 245.145 333.67C247.805 333.81 250.465 333.74 252.565 333.74C257.955 333.67 260.755 331.15 262.155 325.34ZM256.905 348.51C258.655 341.51 256.905 338.99 250.885 338.99C248.855 338.99 246.335 339.06 243.815 339.06C242.415 344.87 240.735 351.59 239.615 356.56C242.345 356.7 244.725 356.7 246.685 356.7C252.705 356.7 255.225 355.3 256.905 348.51ZM243.465 310.5H258.655C268.035 310.5 271.745 315.19 269.295 325.13C267.895 330.73 265.935 333.39 262.715 335.14C261.385 335.77 259.705 336.19 257.745 336.4L257.675 336.75C259.075 336.96 260.195 337.17 261.035 337.59C264.465 339.2 265.515 343.05 263.765 350.12C261.385 359.64 256.835 363 247.875 363H230.375C232.335 356.07 234.435 347.95 237.165 336.75C239.965 325.62 242.065 317.08 243.465 310.5ZM281.339 310.5H289.039C287.709 314.91 285.329 323.94 282.179 336.61C280.499 343.47 278.469 351.73 277.419 356.35C281.409 356.35 286.659 356.28 291.139 356.14C290.859 357.19 290.579 358.38 290.299 359.5C289.949 360.69 289.669 361.88 289.459 363H268.249C269.089 359.71 272.169 347.95 274.899 336.75C278.119 323.87 280.289 315.4 281.339 310.5ZM321.156 314.77H320.946C319.826 317.22 318.216 320.72 315.766 325.76C313.316 331.15 310.306 337.73 307.506 343.89C309.746 343.96 312.126 343.96 313.806 343.96C315.556 343.96 317.866 343.96 320.106 343.89C320.386 337.66 320.596 330.94 320.806 325.55C320.876 320.72 321.086 317.22 321.156 314.77ZM316.186 310.5H327.596C327.666 316.73 326.756 350.26 327.036 363H318.986C319.266 360.83 319.546 355.72 319.826 349.63C317.166 349.63 314.436 349.63 312.406 349.63C310.376 349.63 307.576 349.63 304.916 349.63C302.186 355.58 299.946 360.55 298.966 363H290.846C297.076 350.82 313.176 316.66 316.186 310.5Z" fill="#F7FCFD"/>
<path d="M20.0234 446.7C26.1834 446.7 28.2134 445.16 28.2134 437.81C28.2134 431.51 25.9734 428.99 19.8834 428.99C17.8534 428.99 15.3334 429.06 12.8134 429.06C12.8134 434.87 12.8134 441.59 12.9534 446.56C15.6834 446.7 18.0634 446.7 20.0234 446.7ZM27.7234 414.78C27.7234 407.85 25.6234 406.45 19.9534 406.45C17.8534 406.45 15.4734 406.52 12.8834 406.59C12.8134 411.14 12.8134 417.72 12.8134 423.67C15.3334 423.74 17.8534 423.74 19.7434 423.74C25.5534 423.67 27.7234 421.01 27.7234 414.78ZM26.0434 426.4V426.75C27.7234 426.89 29.1234 427.1 30.1734 427.59C33.8134 429.2 35.4934 432.7 35.4934 439C35.4934 449.29 31.2934 453 21.7034 453H5.32344C5.60344 446.07 5.60344 437.95 5.60344 426.75C5.60344 415.62 5.60344 407.08 5.32344 400.5H21.3534C30.7334 400.5 34.9334 403.72 34.9334 414.22C34.9334 420.24 33.6034 423.25 30.5234 425.14C29.4034 425.77 27.8634 426.12 26.0434 426.4ZM43.1978 400.5H50.8978C50.6878 404.91 50.5478 413.94 50.5478 426.61C50.5478 433.47 50.6178 441.66 50.6878 446.28C54.6778 446.28 59.9278 446.28 64.4078 446.14C64.4078 447.19 64.3378 448.38 64.3378 449.5C64.3378 450.69 64.4078 451.88 64.4078 453H43.1978C43.1978 449.71 43.3378 437.95 43.3378 426.75C43.3378 413.87 43.4078 405.4 43.1978 400.5ZM83.7847 404.77H83.5047C83.0147 407.22 82.3147 410.72 81.1247 415.76C80.0747 421.15 78.6747 427.66 77.4147 433.82C79.5847 433.89 81.9647 433.89 83.6447 433.89C85.3947 433.89 87.7047 433.89 89.9447 433.82C88.6147 427.59 87.2147 420.94 86.0947 415.55C84.9747 410.72 84.2747 407.22 83.7847 404.77ZM101.985 453H93.5847C93.3047 450.83 92.3947 445.72 91.1347 439.63C88.4747 439.63 85.7447 439.63 83.6447 439.63C81.6847 439.63 78.8147 439.63 76.2247 439.63C74.9647 445.58 73.9847 450.55 73.5647 453H65.7947C68.9447 440.82 76.6447 406.66 78.0447 400.5H89.4547C90.9947 406.73 98.5547 440.26 101.985 453ZM135.209 446.7C141.369 446.7 143.399 445.16 143.399 437.81C143.399 431.51 141.159 428.99 135.069 428.99C133.039 428.99 130.519 429.06 127.999 429.06C127.999 434.87 127.999 441.59 128.139 446.56C130.869 446.7 133.249 446.7 135.209 446.7ZM142.909 414.78C142.909 407.85 140.809 406.45 135.139 406.45C133.039 406.45 130.659 406.52 128.069 406.59C127.999 411.14 127.999 417.72 127.999 423.67C130.519 423.74 133.039 423.74 134.929 423.74C140.739 423.67 142.909 421.01 142.909 414.78ZM141.229 426.4V426.75C142.909 426.89 144.309 427.1 145.359 427.59C148.999 429.2 150.679 432.7 150.679 439C150.679 449.29 146.479 453 136.889 453H120.509C120.789 446.07 120.789 437.95 120.789 426.75C120.789 415.62 120.789 407.08 120.509 400.5H136.539C145.919 400.5 150.119 403.72 150.119 414.22C150.119 420.24 148.789 423.25 145.709 425.14C144.589 425.77 143.049 426.12 141.229 426.4ZM158.383 400.5H166.083C165.873 404.91 165.733 413.94 165.733 426.61C165.733 433.47 165.803 441.66 165.873 446.28C169.863 446.28 175.113 446.28 179.593 446.14C179.593 447.19 179.523 448.38 179.523 449.5C179.523 450.69 179.593 451.88 179.593 453H158.383C158.383 449.71 158.523 437.95 158.523 426.75C158.523 413.87 158.593 405.4 158.383 400.5ZM198.97 404.77H198.69C198.2 407.22 197.5 410.72 196.31 415.76C195.26 421.15 193.86 427.66 192.6 433.82C194.77 433.89 197.15 433.89 198.83 433.89C200.58 433.89 202.89 433.89 205.13 433.82C203.8 427.59 202.4 420.94 201.28 415.55C200.16 410.72 199.46 407.22 198.97 404.77ZM217.17 453H208.77C208.49 450.83 207.58 445.72 206.32 439.63C203.66 439.63 200.93 439.63 198.83 439.63C196.87 439.63 194 439.63 191.41 439.63C190.15 445.58 189.17 450.55 188.75 453H180.98C184.13 440.82 191.83 406.66 193.23 400.5H204.64C206.18 406.73 213.74 440.26 217.17 453ZM250.395 446.7C256.555 446.7 258.585 445.16 258.585 437.81C258.585 431.51 256.345 428.99 250.255 428.99C248.225 428.99 245.705 429.06 243.185 429.06C243.185 434.87 243.185 441.59 243.325 446.56C246.055 446.7 248.435 446.7 250.395 446.7ZM258.095 414.78C258.095 407.85 255.995 406.45 250.325 406.45C248.225 406.45 245.845 406.52 243.255 406.59C243.185 411.14 243.185 417.72 243.185 423.67C245.705 423.74 248.225 423.74 250.115 423.74C255.925 423.67 258.095 421.01 258.095 414.78ZM256.415 426.4V426.75C258.095 426.89 259.495 427.1 260.545 427.59C264.185 429.2 265.865 432.7 265.865 439C265.865 449.29 261.665 453 252.075 453H235.695C235.975 446.07 235.975 437.95 235.975 426.75C235.975 415.62 235.975 407.08 235.695 400.5H251.725C261.105 400.5 265.305 403.72 265.305 414.22C265.305 420.24 263.975 423.25 260.895 425.14C259.775 425.77 258.235 426.12 256.415 426.4ZM273.569 400.5H281.269C281.059 404.91 280.919 413.94 280.919 426.61C280.919 433.47 280.989 441.66 281.059 446.28C285.049 446.28 290.299 446.28 294.779 446.14C294.779 447.19 294.709 448.38 294.709 449.5C294.709 450.69 294.779 451.88 294.779 453H273.569C273.569 449.71 273.709 437.95 273.709 426.75C273.709 413.87 273.779 405.4 273.569 400.5ZM314.156 404.77H313.876C313.386 407.22 312.686 410.72 311.496 415.76C310.446 421.15 309.046 427.66 307.786 433.82C309.956 433.89 312.336 433.89 314.016 433.89C315.766 433.89 318.076 433.89 320.316 433.82C318.986 427.59 317.586 420.94 316.466 415.55C315.346 410.72 314.646 407.22 314.156 404.77ZM332.356 453H323.956C323.676 450.83 322.766 445.72 321.506 439.63C318.846 439.63 316.116 439.63 314.016 439.63C312.056 439.63 309.186 439.63 306.596 439.63C305.336 445.58 304.356 450.55 303.936 453H296.166C299.316 440.82 307.016 406.66 308.416 400.5H319.826C321.366 406.73 328.926 440.26 332.356 453Z" fill="#F7FCFD"/>
<path d="M31.7834 506.34C33.5334 499.27 31.4334 497.45 26.3234 497.45C24.0834 497.45 21.7034 497.52 19.1134 497.59C17.9234 502.14 16.3134 508.72 14.7734 514.67C17.4334 514.81 20.0934 514.74 22.1934 514.74C27.5834 514.67 30.3834 512.15 31.7834 506.34ZM26.5334 529.51C28.2834 522.51 26.5334 519.99 20.5134 519.99C18.4834 519.99 15.9634 520.06 13.4434 520.06C12.0434 525.87 10.3634 532.59 9.24344 537.56C11.9734 537.7 14.3534 537.7 16.3134 537.7C22.3334 537.7 24.8534 536.3 26.5334 529.51ZM13.0934 491.5H28.2834C37.6634 491.5 41.3734 496.19 38.9234 506.13C37.5234 511.73 35.5634 514.39 32.3434 516.14C31.0134 516.77 29.3334 517.19 27.3734 517.4L27.3034 517.75C28.7034 517.96 29.8234 518.17 30.6634 518.59C34.0934 520.2 35.1434 524.05 33.3934 531.12C31.0134 540.64 26.4634 544 17.5034 544H0.00343744C1.96344 537.07 4.06344 528.95 6.79344 517.75C9.59344 506.62 11.6934 498.08 13.0934 491.5ZM50.9678 491.5H58.6678C57.3378 495.91 54.9578 504.94 51.8078 517.61C50.1278 524.47 48.0978 532.73 47.0478 537.35C51.0378 537.35 56.2878 537.28 60.7678 537.14C60.4878 538.19 60.2078 539.38 59.9278 540.5C59.5778 541.69 59.2978 542.88 59.0878 544H37.8778C38.7178 540.71 41.7978 528.95 44.5278 517.75C47.7478 504.87 49.9178 496.4 50.9678 491.5ZM90.7847 495.77H90.5747C89.4547 498.22 87.8447 501.72 85.3947 506.76C82.9447 512.15 79.9347 518.73 77.1347 524.89C79.3747 524.96 81.7547 524.96 83.4347 524.96C85.1847 524.96 87.4947 524.96 89.7347 524.89C90.0147 518.66 90.2247 511.94 90.4347 506.55C90.5047 501.72 90.7147 498.22 90.7847 495.77ZM85.8147 491.5H97.2247C97.2947 497.73 96.3847 531.26 96.6647 544H88.6147C88.8947 541.83 89.1747 536.72 89.4547 530.63C86.7947 530.63 84.0647 530.63 82.0347 530.63C80.0047 530.63 77.2047 530.63 74.5447 530.63C71.8147 536.58 69.5747 541.55 68.5947 544H60.4747C66.7047 531.82 82.8047 497.66 85.8147 491.5ZM146.969 506.34C148.719 499.27 146.619 497.45 141.509 497.45C139.269 497.45 136.889 497.52 134.299 497.59C133.109 502.14 131.499 508.72 129.959 514.67C132.619 514.81 135.279 514.74 137.379 514.74C142.769 514.67 145.569 512.15 146.969 506.34ZM141.719 529.51C143.469 522.51 141.719 519.99 135.699 519.99C133.669 519.99 131.149 520.06 128.629 520.06C127.229 525.87 125.549 532.59 124.429 537.56C127.159 537.7 129.539 537.7 131.499 537.7C137.519 537.7 140.039 536.3 141.719 529.51ZM128.279 491.5H143.469C152.849 491.5 156.559 496.19 154.109 506.13C152.709 511.73 150.749 514.39 147.529 516.14C146.199 516.77 144.519 517.19 142.559 517.4L142.489 517.75C143.889 517.96 145.009 518.17 145.849 518.59C149.279 520.2 150.329 524.05 148.579 531.12C146.199 540.64 141.649 544 132.689 544H115.189C117.149 537.07 119.249 528.95 121.979 517.75C124.779 506.62 126.879 498.08 128.279 491.5ZM166.153 491.5H173.853C172.523 495.91 170.143 504.94 166.993 517.61C165.313 524.47 163.283 532.73 162.233 537.35C166.223 537.35 171.473 537.28 175.953 537.14C175.673 538.19 175.393 539.38 175.113 540.5C174.763 541.69 174.483 542.88 174.273 544H153.063C153.903 540.71 156.983 528.95 159.713 517.75C162.933 504.87 165.103 496.4 166.153 491.5ZM205.97 495.77H205.76C204.64 498.22 203.03 501.72 200.58 506.76C198.13 512.15 195.12 518.73 192.32 524.89C194.56 524.96 196.94 524.96 198.62 524.96C200.37 524.96 202.68 524.96 204.92 524.89C205.2 518.66 205.41 511.94 205.62 506.55C205.69 501.72 205.9 498.22 205.97 495.77ZM201 491.5H212.41C212.48 497.73 211.57 531.26 211.85 544H203.8C204.08 541.83 204.36 536.72 204.64 530.63C201.98 530.63 199.25 530.63 197.22 530.63C195.19 530.63 192.39 530.63 189.73 530.63C187 536.58 184.76 541.55 183.78 544H175.66C181.89 531.82 197.99 497.66 201 491.5ZM262.155 506.34C263.905 499.27 261.805 497.45 256.695 497.45C254.455 497.45 252.075 497.52 249.485 497.59C248.295 502.14 246.685 508.72 245.145 514.67C247.805 514.81 250.465 514.74 252.565 514.74C257.955 514.67 260.755 512.15 262.155 506.34ZM256.905 529.51C258.655 522.51 256.905 519.99 250.885 519.99C248.855 519.99 246.335 520.06 243.815 520.06C242.415 525.87 240.735 532.59 239.615 537.56C242.345 537.7 244.725 537.7 246.685 537.7C252.705 537.7 255.225 536.3 256.905 529.51ZM243.465 491.5H258.655C268.035 491.5 271.745 496.19 269.295 506.13C267.895 511.73 265.935 514.39 262.715 516.14C261.385 516.77 259.705 517.19 257.745 517.4L257.675 517.75C259.075 517.96 260.195 518.17 261.035 518.59C264.465 520.2 265.515 524.05 263.765 531.12C261.385 540.64 256.835 544 247.875 544H230.375C232.335 537.07 234.435 528.95 237.165 517.75C239.965 506.62 242.065 498.08 243.465 491.5ZM281.339 491.5H289.039C287.709 495.91 285.329 504.94 282.179 517.61C280.499 524.47 278.469 532.73 277.419 537.35C281.409 537.35 286.659 537.28 291.139 537.14C290.859 538.19 290.579 539.38 290.299 540.5C289.949 541.69 289.669 542.88 289.459 544H268.249C269.089 540.71 272.169 528.95 274.899 517.75C278.119 504.87 280.289 496.4 281.339 491.5ZM321.156 495.77H320.946C319.826 498.22 318.216 501.72 315.766 506.76C313.316 512.15 310.306 518.73 307.506 524.89C309.746 524.96 312.126 524.96 313.806 524.96C315.556 524.96 317.866 524.96 320.106 524.89C320.386 518.66 320.596 511.94 320.806 506.55C320.876 501.72 321.086 498.22 321.156 495.77ZM316.186 491.5H327.596C327.666 497.73 326.756 531.26 327.036 544H318.986C319.266 541.83 319.546 536.72 319.826 530.63C317.166 530.63 314.436 530.63 312.406 530.63C310.376 530.63 307.576 530.63 304.916 530.63C302.186 536.58 299.946 541.55 298.966 544H290.846C297.076 531.82 313.176 497.66 316.186 491.5Z" fill="#F7FCFD"/>
<path d="M20.0234 627.7C26.1834 627.7 28.2134 626.16 28.2134 618.81C28.2134 612.51 25.9734 609.99 19.8834 609.99C17.8534 609.99 15.3334 610.06 12.8134 610.06C12.8134 615.87 12.8134 622.59 12.9534 627.56C15.6834 627.7 18.0634 627.7 20.0234 627.7ZM27.7234 595.78C27.7234 588.85 25.6234 587.45 19.9534 587.45C17.8534 587.45 15.4734 587.52 12.8834 587.59C12.8134 592.14 12.8134 598.72 12.8134 604.67C15.3334 604.74 17.8534 604.74 19.7434 604.74C25.5534 604.67 27.7234 602.01 27.7234 595.78ZM26.0434 607.4V607.75C27.7234 607.89 29.1234 608.1 30.1734 608.59C33.8134 610.2 35.4934 613.7 35.4934 620C35.4934 630.29 31.2934 634 21.7034 634H5.32344C5.60344 627.07 5.60344 618.95 5.60344 607.75C5.60344 596.62 5.60344 588.08 5.32344 581.5H21.3534C30.7334 581.5 34.9334 584.72 34.9334 595.22C34.9334 601.24 33.6034 604.25 30.5234 606.14C29.4034 606.77 27.8634 607.12 26.0434 607.4ZM43.1978 581.5H50.8978C50.6878 585.91 50.5478 594.94 50.5478 607.61C50.5478 614.47 50.6178 622.66 50.6878 627.28C54.6778 627.28 59.9278 627.28 64.4078 627.14C64.4078 628.19 64.3378 629.38 64.3378 630.5C64.3378 631.69 64.4078 632.88 64.4078 634H43.1978C43.1978 630.71 43.3378 618.95 43.3378 607.75C43.3378 594.87 43.4078 586.4 43.1978 581.5ZM83.7847 585.77H83.5047C83.0147 588.22 82.3147 591.72 81.1247 596.76C80.0747 602.15 78.6747 608.66 77.4147 614.82C79.5847 614.89 81.9647 614.89 83.6447 614.89C85.3947 614.89 87.7047 614.89 89.9447 614.82C88.6147 608.59 87.2147 601.94 86.0947 596.55C84.9747 591.72 84.2747 588.22 83.7847 585.77ZM101.985 634H93.5847C93.3047 631.83 92.3947 626.72 91.1347 620.63C88.4747 620.63 85.7447 620.63 83.6447 620.63C81.6847 620.63 78.8147 620.63 76.2247 620.63C74.9647 626.58 73.9847 631.55 73.5647 634H65.7947C68.9447 621.82 76.6447 587.66 78.0447 581.5H89.4547C90.9947 587.73 98.5547 621.26 101.985 634ZM135.209 627.7C141.369 627.7 143.399 626.16 143.399 618.81C143.399 612.51 141.159 609.99 135.069 609.99C133.039 609.99 130.519 610.06 127.999 610.06C127.999 615.87 127.999 622.59 128.139 627.56C130.869 627.7 133.249 627.7 135.209 627.7ZM142.909 595.78C142.909 588.85 140.809 587.45 135.139 587.45C133.039 587.45 130.659 587.52 128.069 587.59C127.999 592.14 127.999 598.72 127.999 604.67C130.519 604.74 133.039 604.74 134.929 604.74C140.739 604.67 142.909 602.01 142.909 595.78ZM141.229 607.4V607.75C142.909 607.89 144.309 608.1 145.359 608.59C148.999 610.2 150.679 613.7 150.679 620C150.679 630.29 146.479 634 136.889 634H120.509C120.789 627.07 120.789 618.95 120.789 607.75C120.789 596.62 120.789 588.08 120.509 581.5H136.539C145.919 581.5 150.119 584.72 150.119 595.22C150.119 601.24 148.789 604.25 145.709 606.14C144.589 606.77 143.049 607.12 141.229 607.4ZM158.383 581.5H166.083C165.873 585.91 165.733 594.94 165.733 607.61C165.733 614.47 165.803 622.66 165.873 627.28C169.863 627.28 175.113 627.28 179.593 627.14C179.593 628.19 179.523 629.38 179.523 630.5C179.523 631.69 179.593 632.88 179.593 634H158.383C158.383 630.71 158.523 618.95 158.523 607.75C158.523 594.87 158.593 586.4 158.383 581.5ZM198.97 585.77H198.69C198.2 588.22 197.5 591.72 196.31 596.76C195.26 602.15 193.86 608.66 192.6 614.82C194.77 614.89 197.15 614.89 198.83 614.89C200.58 614.89 202.89 614.89 205.13 614.82C203.8 608.59 202.4 601.94 201.28 596.55C200.16 591.72 199.46 588.22 198.97 585.77ZM217.17 634H208.77C208.49 631.83 207.58 626.72 206.32 620.63C203.66 620.63 200.93 620.63 198.83 620.63C196.87 620.63 194 620.63 191.41 620.63C190.15 626.58 189.17 631.55 188.75 634H180.98C184.13 621.82 191.83 587.66 193.23 581.5H204.64C206.18 587.73 213.74 621.26 217.17 634ZM250.395 627.7C256.555 627.7 258.585 626.16 258.585 618.81C258.585 612.51 256.345 609.99 250.255 609.99C248.225 609.99 245.705 610.06 243.185 610.06C243.185 615.87 243.185 622.59 243.325 627.56C246.055 627.7 248.435 627.7 250.395 627.7ZM258.095 595.78C258.095 588.85 255.995 587.45 250.325 587.45C248.225 587.45 245.845 587.52 243.255 587.59C243.185 592.14 243.185 598.72 243.185 604.67C245.705 604.74 248.225 604.74 250.115 604.74C255.925 604.67 258.095 602.01 258.095 595.78ZM256.415 607.4V607.75C258.095 607.89 259.495 608.1 260.545 608.59C264.185 610.2 265.865 613.7 265.865 620C265.865 630.29 261.665 634 252.075 634H235.695C235.975 627.07 235.975 618.95 235.975 607.75C235.975 596.62 235.975 588.08 235.695 581.5H251.725C261.105 581.5 265.305 584.72 265.305 595.22C265.305 601.24 263.975 604.25 260.895 606.14C259.775 606.77 258.235 607.12 256.415 607.4ZM273.569 581.5H281.269C281.059 585.91 280.919 594.94 280.919 607.61C280.919 614.47 280.989 622.66 281.059 627.28C285.049 627.28 290.299 627.28 294.779 627.14C294.779 628.19 294.709 629.38 294.709 630.5C294.709 631.69 294.779 632.88 294.779 634H273.569C273.569 630.71 273.709 618.95 273.709 607.75C273.709 594.87 273.779 586.4 273.569 581.5ZM314.156 585.77H313.876C313.386 588.22 312.686 591.72 311.496 596.76C310.446 602.15 309.046 608.66 307.786 614.82C309.956 614.89 312.336 614.89 314.016 614.89C315.766 614.89 318.076 614.89 320.316 614.82C318.986 608.59 317.586 601.94 316.466 596.55C315.346 591.72 314.646 588.22 314.156 585.77ZM332.356 634H323.956C323.676 631.83 322.766 626.72 321.506 620.63C318.846 620.63 316.116 620.63 314.016 620.63C312.056 620.63 309.186 620.63 306.596 620.63C305.336 626.58 304.356 631.55 303.936 634H296.166C299.316 621.82 307.016 587.66 308.416 581.5H319.826C321.366 587.73 328.926 621.26 332.356 634Z" fill="#F7FCFD"/>
</g>
</svg>
