<svg width="38" height="38" viewBox="0 0 38 38" fill="none" xmlns="http://www.w3.org/2000/svg">
<path d="M18.9248 0C29.3766 0 37.8496 8.47304 37.8496 18.9248C37.8495 29.3765 29.3765 37.8496 18.9248 37.8496C8.47317 37.8495 6.57565e-05 29.3765 0 18.9248C0 8.4731 8.47312 9.76094e-05 18.9248 0ZM18.9873 3.33105C10.3413 3.33105 3.33203 10.3403 3.33203 18.9863L3.33691 19.3896C3.54781 27.7147 10.258 34.4249 18.583 34.6357L18.9873 34.6406C27.4978 34.6402 34.4224 27.8487 34.6367 19.3896L34.6416 18.9863C34.6416 10.4755 27.8498 3.55028 19.3906 3.33594L18.9873 3.33105ZM18.9873 4.77539C26.8355 4.77582 33.1982 11.1381 33.1982 18.9863C33.1979 26.8343 26.8352 33.1968 18.9873 33.1973C11.139 33.1973 4.77674 26.8345 4.77637 18.9863C4.77637 11.1378 11.1388 4.77539 18.9873 4.77539Z" fill="#FF6249"/>
</svg>
