<svg width="382" height="615" viewBox="0 0 382 615" fill="none" xmlns="http://www.w3.org/2000/svg">
<g opacity="0.3">
<path d="M26.4334 52.7694H23.3668C23.4282 51.4814 23.4282 50.1322 23.4282 49.2735C23.4282 41.5459 20.975 39.2767 16.5592 39.2767C11.8367 39.2767 8.89289 42.3432 8.89289 56.6332C8.89289 71.1684 11.8981 74.6643 16.7432 74.6643C21.4656 74.6643 23.5508 71.2911 23.5508 64.2381C23.5508 63.2568 23.5508 62.2755 23.4895 61.2329C24.5934 61.2943 25.5747 61.2943 26.6787 61.2943C27.7213 61.2943 28.7639 61.2943 29.8678 61.2329V64.1768C29.8678 74.6643 25.4521 80.6133 16.8045 80.6133C7.78895 80.6133 2.26922 74.5416 2.26922 56.7558C2.26922 39.89 7.11431 33.389 16.8658 33.389C26.188 33.389 29.7452 39.2767 29.7452 48.5989C29.7452 50.0095 29.6839 51.3588 29.6225 52.7694H26.4334ZM36.6309 34.0023H43.3773C43.1933 37.8661 43.0706 45.7777 43.0706 56.8785C43.0706 62.8889 43.132 70.0645 43.1933 74.1123C46.6891 74.1123 51.2889 74.1123 55.214 73.9896C55.214 74.9096 55.1527 75.9522 55.1527 76.9335C55.1527 77.9761 55.214 79.0187 55.214 80H36.6309C36.6309 77.1175 36.7536 66.814 36.7536 57.0011C36.7536 45.7164 36.8149 38.2954 36.6309 34.0023ZM72.191 37.7434H71.9457C71.5164 39.89 70.9031 42.9565 69.8605 47.3723C68.9405 52.0947 67.7139 57.7984 66.61 63.1955C68.5112 63.2568 70.5964 63.2568 72.0683 63.2568C73.6016 63.2568 75.6255 63.2568 77.5881 63.1955C76.4228 57.7371 75.1962 51.9107 74.2149 47.1883C73.2336 42.9565 72.6203 39.89 72.191 37.7434ZM88.1369 80H80.7772C80.5319 78.0988 79.7346 73.6217 78.6307 68.2859C76.3001 68.2859 73.9083 68.2859 72.0683 68.2859C70.3511 68.2859 67.8366 68.2859 65.5673 68.2859C64.4634 73.499 63.6048 77.8534 63.2368 80H56.4291C59.189 69.3285 65.9353 39.3994 67.1619 34.0023H77.1588C78.508 39.4607 85.1317 68.8379 88.1369 80ZM103.009 60.865C108.651 60.865 111.104 58.8411 111.104 50.5001C111.104 42.0366 108.528 39.7673 103.499 39.7673C102.518 39.7673 100.187 39.8287 98.5927 39.89C98.5927 47.2496 98.5927 54.4253 98.5927 60.8036C99.5127 60.8036 101.169 60.865 103.009 60.865ZM92.0304 34.0023H104.419C112.76 34.0023 117.421 38.1114 117.421 50.6228C117.421 62.5209 112.515 66.6913 104.112 66.6913C101.966 66.6913 100.862 66.63 98.6541 66.5687C98.7154 71.8431 98.7767 76.4428 98.9607 80H92.0304C92.2144 73.4377 92.2144 66.814 92.2144 57.0011C92.2144 47.2496 92.2144 40.074 92.0304 34.0023ZM157.539 52.7694H154.472C154.534 51.4814 154.534 50.1322 154.534 49.2735C154.534 41.5459 152.08 39.2767 147.665 39.2767C142.942 39.2767 139.998 42.3432 139.998 56.6332C139.998 71.1684 143.004 74.6643 147.849 74.6643C152.571 74.6643 154.656 71.2911 154.656 64.2381C154.656 63.2568 154.656 62.2755 154.595 61.2329C155.699 61.2943 156.68 61.2943 157.784 61.2943C158.827 61.2943 159.869 61.2943 160.973 61.2329V64.1768C160.973 74.6643 156.558 80.6133 147.91 80.6133C138.894 80.6133 133.375 74.5416 133.375 56.7558C133.375 39.89 138.22 33.389 147.971 33.389C157.293 33.389 160.851 39.2767 160.851 48.5989C160.851 50.0095 160.789 51.3588 160.728 52.7694H157.539ZM167.736 34.0023H174.483C174.299 37.8661 174.176 45.7777 174.176 56.8785C174.176 62.8889 174.237 70.0645 174.299 74.1123C177.795 74.1123 182.394 74.1123 186.319 73.9896C186.319 74.9096 186.258 75.9522 186.258 76.9335C186.258 77.9761 186.319 79.0187 186.319 80H167.736C167.736 77.1175 167.859 66.814 167.859 57.0011C167.859 45.7164 167.92 38.2954 167.736 34.0023ZM203.296 37.7434H203.051C202.622 39.89 202.009 42.9565 200.966 47.3723C200.046 52.0947 198.819 57.7984 197.715 63.1955C199.617 63.2568 201.702 63.2568 203.174 63.2568C204.707 63.2568 206.731 63.2568 208.694 63.1955C207.528 57.7371 206.302 51.9107 205.32 47.1883C204.339 42.9565 203.726 39.89 203.296 37.7434ZM219.242 80H211.883C211.637 78.0988 210.84 73.6217 209.736 68.2859C207.406 68.2859 205.014 68.2859 203.174 68.2859C201.457 68.2859 198.942 68.2859 196.673 68.2859C195.569 73.499 194.71 77.8534 194.342 80H187.535C190.294 69.3285 197.041 39.3994 198.267 34.0023H208.264C209.613 39.4607 216.237 68.8379 219.242 80ZM234.114 60.865C239.756 60.865 242.21 58.8411 242.21 50.5001C242.21 42.0366 239.634 39.7673 234.605 39.7673C233.623 39.7673 231.293 39.8287 229.698 39.89C229.698 47.2496 229.698 54.4253 229.698 60.8036C230.618 60.8036 232.274 60.865 234.114 60.865ZM223.136 34.0023H235.525C243.865 34.0023 248.527 38.1114 248.527 50.6228C248.527 62.5209 243.62 66.6913 235.218 66.6913C233.071 66.6913 231.967 66.63 229.76 66.5687C229.821 71.8431 229.882 76.4428 230.066 80H223.136C223.32 73.4377 223.32 66.814 223.32 57.0011C223.32 47.2496 223.32 40.074 223.136 34.0023ZM288.644 52.7694H285.578C285.639 51.4814 285.639 50.1322 285.639 49.2735C285.639 41.5459 283.186 39.2767 278.77 39.2767C274.048 39.2767 271.104 42.3432 271.104 56.6332C271.104 71.1684 274.109 74.6643 278.954 74.6643C283.676 74.6643 285.762 71.2911 285.762 64.2381C285.762 63.2568 285.762 62.2755 285.7 61.2329C286.804 61.2943 287.786 61.2943 288.89 61.2943C289.932 61.2943 290.975 61.2943 292.079 61.2329V64.1768C292.079 74.6643 287.663 80.6133 279.015 80.6133C270 80.6133 264.48 74.5416 264.48 56.7558C264.48 39.89 269.325 33.389 279.077 33.389C288.399 33.389 291.956 39.2767 291.956 48.5989C291.956 50.0095 291.895 51.3588 291.833 52.7694H288.644ZM298.842 34.0023H305.588C305.404 37.8661 305.282 45.7777 305.282 56.8785C305.282 62.8889 305.343 70.0645 305.404 74.1123C308.9 74.1123 313.5 74.1123 317.425 73.9896C317.425 74.9096 317.364 75.9522 317.364 76.9335C317.364 77.9761 317.425 79.0187 317.425 80H298.842C298.842 77.1175 298.964 66.814 298.964 57.0011C298.964 45.7164 299.026 38.2954 298.842 34.0023ZM334.402 37.7434H334.157C333.727 39.89 333.114 42.9565 332.071 47.3723C331.151 52.0947 329.925 57.7984 328.821 63.1955C330.722 63.2568 332.807 63.2568 334.279 63.2568C335.812 63.2568 337.836 63.2568 339.799 63.1955C338.634 57.7371 337.407 51.9107 336.426 47.1883C335.445 42.9565 334.831 39.89 334.402 37.7434ZM350.348 80H342.988C342.743 78.0988 341.946 73.6217 340.842 68.2859C338.511 68.2859 336.119 68.2859 334.279 68.2859C332.562 68.2859 330.047 68.2859 327.778 68.2859C326.674 73.499 325.816 77.8534 325.448 80H318.64C321.4 69.3285 328.146 39.3994 329.373 34.0023H339.37C340.719 39.4607 347.343 68.8379 350.348 80ZM365.219 60.865C370.862 60.865 373.315 58.8411 373.315 50.5001C373.315 42.0366 370.739 39.7673 365.71 39.7673C364.729 39.7673 362.398 39.8287 360.804 39.89C360.804 47.2496 360.804 54.4253 360.804 60.8036C361.724 60.8036 363.379 60.865 365.219 60.865ZM354.241 34.0023H366.63C374.971 34.0023 379.632 38.1114 379.632 50.6228C379.632 62.5209 374.726 66.6913 366.323 66.6913C364.177 66.6913 363.073 66.63 360.865 66.5687C360.926 71.8431 360.988 76.4428 361.172 80H354.241C354.425 73.4377 354.425 66.814 354.425 57.0011C354.425 47.2496 354.425 40.074 354.241 34.0023Z" fill="white"/>
</g>
<g opacity="0.3">
<path d="M26.4334 117.414H23.3668C23.4282 116.126 23.4282 114.777 23.4282 113.918C23.4282 106.19 20.975 103.921 16.5592 103.921C11.8367 103.921 8.89289 106.988 8.89289 121.278C8.89289 135.813 11.8981 139.309 16.7432 139.309C21.4656 139.309 23.5508 135.936 23.5508 128.883C23.5508 127.901 23.5508 126.92 23.4895 125.877C24.5934 125.939 25.5747 125.939 26.6787 125.939C27.7213 125.939 28.7639 125.939 29.8678 125.877V128.821C29.8678 139.309 25.4521 145.258 16.8045 145.258C7.78895 145.258 2.26922 139.186 2.26922 121.4C2.26922 104.535 7.11431 98.0335 16.8658 98.0335C26.188 98.0335 29.7452 103.921 29.7452 113.243C29.7452 114.654 29.6839 116.003 29.6225 117.414H26.4334ZM36.6309 98.6468H43.3773C43.1933 102.511 43.0706 110.422 43.0706 121.523C43.0706 127.533 43.132 134.709 43.1933 138.757C46.6891 138.757 51.2889 138.757 55.214 138.634C55.214 139.554 55.1527 140.597 55.1527 141.578C55.1527 142.621 55.214 143.663 55.214 144.645H36.6309C36.6309 141.762 36.7536 131.459 36.7536 121.646C36.7536 110.361 36.8149 102.94 36.6309 98.6468ZM72.191 102.388H71.9457C71.5164 104.535 70.9031 107.601 69.8605 112.017C68.9405 116.739 67.7139 122.443 66.61 127.84C68.5112 127.901 70.5964 127.901 72.0683 127.901C73.6016 127.901 75.6255 127.901 77.5881 127.84C76.4228 122.382 75.1962 116.555 74.2149 111.833C73.2336 107.601 72.6203 104.535 72.191 102.388ZM88.1369 144.645H80.7772C80.5319 142.743 79.7346 138.266 78.6307 132.93C76.3001 132.93 73.9083 132.93 72.0683 132.93C70.3511 132.93 67.8366 132.93 65.5673 132.93C64.4634 138.144 63.6048 142.498 63.2368 144.645H56.4291C59.189 133.973 65.9353 104.044 67.1619 98.6468H77.1588C78.508 104.105 85.1317 133.482 88.1369 144.645ZM103.009 125.509C108.651 125.509 111.104 123.486 111.104 115.145C111.104 106.681 108.528 104.412 103.499 104.412C102.518 104.412 100.187 104.473 98.5927 104.535C98.5927 111.894 98.5927 119.07 98.5927 125.448C99.5127 125.448 101.169 125.509 103.009 125.509ZM92.0304 98.6468H104.419C112.76 98.6468 117.421 102.756 117.421 115.267C117.421 127.165 112.515 131.336 104.112 131.336C101.966 131.336 100.862 131.275 98.6541 131.213C98.7154 136.488 98.7767 141.087 98.9607 144.645H92.0304C92.2144 138.082 92.2144 131.459 92.2144 121.646C92.2144 111.894 92.2144 104.719 92.0304 98.6468ZM157.539 117.414H154.472C154.534 116.126 154.534 114.777 154.534 113.918C154.534 106.19 152.08 103.921 147.665 103.921C142.942 103.921 139.998 106.988 139.998 121.278C139.998 135.813 143.004 139.309 147.849 139.309C152.571 139.309 154.656 135.936 154.656 128.883C154.656 127.901 154.656 126.92 154.595 125.877C155.699 125.939 156.68 125.939 157.784 125.939C158.827 125.939 159.869 125.939 160.973 125.877V128.821C160.973 139.309 156.558 145.258 147.91 145.258C138.894 145.258 133.375 139.186 133.375 121.4C133.375 104.535 138.22 98.0335 147.971 98.0335C157.293 98.0335 160.851 103.921 160.851 113.243C160.851 114.654 160.789 116.003 160.728 117.414H157.539ZM167.736 98.6468H174.483C174.299 102.511 174.176 110.422 174.176 121.523C174.176 127.533 174.237 134.709 174.299 138.757C177.795 138.757 182.394 138.757 186.319 138.634C186.319 139.554 186.258 140.597 186.258 141.578C186.258 142.621 186.319 143.663 186.319 144.645H167.736C167.736 141.762 167.859 131.459 167.859 121.646C167.859 110.361 167.92 102.94 167.736 98.6468ZM203.296 102.388H203.051C202.622 104.535 202.009 107.601 200.966 112.017C200.046 116.739 198.819 122.443 197.715 127.84C199.617 127.901 201.702 127.901 203.174 127.901C204.707 127.901 206.731 127.901 208.694 127.84C207.528 122.382 206.302 116.555 205.32 111.833C204.339 107.601 203.726 104.535 203.296 102.388ZM219.242 144.645H211.883C211.637 142.743 210.84 138.266 209.736 132.93C207.406 132.93 205.014 132.93 203.174 132.93C201.457 132.93 198.942 132.93 196.673 132.93C195.569 138.144 194.71 142.498 194.342 144.645H187.535C190.294 133.973 197.041 104.044 198.267 98.6468H208.264C209.613 104.105 216.237 133.482 219.242 144.645ZM234.114 125.509C239.756 125.509 242.21 123.486 242.21 115.145C242.21 106.681 239.634 104.412 234.605 104.412C233.623 104.412 231.293 104.473 229.698 104.535C229.698 111.894 229.698 119.07 229.698 125.448C230.618 125.448 232.274 125.509 234.114 125.509ZM223.136 98.6468H235.525C243.865 98.6468 248.527 102.756 248.527 115.267C248.527 127.165 243.62 131.336 235.218 131.336C233.071 131.336 231.967 131.275 229.76 131.213C229.821 136.488 229.882 141.087 230.066 144.645H223.136C223.32 138.082 223.32 131.459 223.32 121.646C223.32 111.894 223.32 104.719 223.136 98.6468ZM288.644 117.414H285.578C285.639 116.126 285.639 114.777 285.639 113.918C285.639 106.19 283.186 103.921 278.77 103.921C274.048 103.921 271.104 106.988 271.104 121.278C271.104 135.813 274.109 139.309 278.954 139.309C283.676 139.309 285.762 135.936 285.762 128.883C285.762 127.901 285.762 126.92 285.7 125.877C286.804 125.939 287.786 125.939 288.89 125.939C289.932 125.939 290.975 125.939 292.079 125.877V128.821C292.079 139.309 287.663 145.258 279.015 145.258C270 145.258 264.48 139.186 264.48 121.4C264.48 104.535 269.325 98.0335 279.077 98.0335C288.399 98.0335 291.956 103.921 291.956 113.243C291.956 114.654 291.895 116.003 291.833 117.414H288.644ZM298.842 98.6468H305.588C305.404 102.511 305.282 110.422 305.282 121.523C305.282 127.533 305.343 134.709 305.404 138.757C308.9 138.757 313.5 138.757 317.425 138.634C317.425 139.554 317.364 140.597 317.364 141.578C317.364 142.621 317.425 143.663 317.425 144.645H298.842C298.842 141.762 298.964 131.459 298.964 121.646C298.964 110.361 299.026 102.94 298.842 98.6468ZM334.402 102.388H334.157C333.727 104.535 333.114 107.601 332.071 112.017C331.151 116.739 329.925 122.443 328.821 127.84C330.722 127.901 332.807 127.901 334.279 127.901C335.812 127.901 337.836 127.901 339.799 127.84C338.634 122.382 337.407 116.555 336.426 111.833C335.445 107.601 334.831 104.535 334.402 102.388ZM350.348 144.645H342.988C342.743 142.743 341.946 138.266 340.842 132.93C338.511 132.93 336.119 132.93 334.279 132.93C332.562 132.93 330.047 132.93 327.778 132.93C326.674 138.144 325.816 142.498 325.448 144.645H318.64C321.4 133.973 328.146 104.044 329.373 98.6468H339.37C340.719 104.105 347.343 133.482 350.348 144.645ZM365.219 125.509C370.862 125.509 373.315 123.486 373.315 115.145C373.315 106.681 370.739 104.412 365.71 104.412C364.729 104.412 362.398 104.473 360.804 104.535C360.804 111.894 360.804 119.07 360.804 125.448C361.724 125.448 363.379 125.509 365.219 125.509ZM354.241 98.6468H366.63C374.971 98.6468 379.632 102.756 379.632 115.267C379.632 127.165 374.726 131.336 366.323 131.336C364.177 131.336 363.073 131.275 360.865 131.213C360.926 136.488 360.988 141.087 361.172 144.645H354.241C354.425 138.082 354.425 131.459 354.425 121.646C354.425 111.894 354.425 104.719 354.241 98.6468Z" fill="white"/>
</g>
<g opacity="0.3">
<path d="M26.4334 182.058H23.3668C23.4282 180.77 23.4282 179.421 23.4282 178.563C23.4282 170.835 20.975 168.566 16.5592 168.566C11.8367 168.566 8.89289 171.632 8.89289 185.922C8.89289 200.458 11.8981 203.953 16.7432 203.953C21.4656 203.953 23.5508 200.58 23.5508 193.527C23.5508 192.546 23.5508 191.565 23.4895 190.522C24.5934 190.583 25.5747 190.583 26.6787 190.583C27.7213 190.583 28.7639 190.583 29.8678 190.522V193.466C29.8678 203.953 25.4521 209.902 16.8045 209.902C7.78895 209.902 2.26922 203.831 2.26922 186.045C2.26922 169.179 7.11431 162.678 16.8658 162.678C26.188 162.678 29.7452 168.566 29.7452 177.888C29.7452 179.299 29.6839 180.648 29.6225 182.058H26.4334ZM36.6309 163.291H43.3773C43.1933 167.155 43.0706 175.067 43.0706 186.168C43.0706 192.178 43.132 199.354 43.1933 203.401C46.6891 203.401 51.2889 203.401 55.214 203.279C55.214 204.199 55.1527 205.241 55.1527 206.223C55.1527 207.265 55.214 208.308 55.214 209.289H36.6309C36.6309 206.407 36.7536 196.103 36.7536 186.29C36.7536 175.005 36.8149 167.584 36.6309 163.291ZM72.191 167.033H71.9457C71.5164 169.179 70.9031 172.246 69.8605 176.661C68.9405 181.384 67.7139 187.088 66.61 192.485C68.5112 192.546 70.5964 192.546 72.0683 192.546C73.6016 192.546 75.6255 192.546 77.5881 192.485C76.4228 187.026 75.1962 181.2 74.2149 176.477C73.2336 172.246 72.6203 169.179 72.191 167.033ZM88.1369 209.289H80.7772C80.5319 207.388 79.7346 202.911 78.6307 197.575C76.3001 197.575 73.9083 197.575 72.0683 197.575C70.3511 197.575 67.8366 197.575 65.5673 197.575C64.4634 202.788 63.6048 207.143 63.2368 209.289H56.4291C59.189 198.618 65.9353 168.688 67.1619 163.291H77.1588C78.508 168.75 85.1317 198.127 88.1369 209.289ZM103.009 190.154C108.651 190.154 111.104 188.13 111.104 179.789C111.104 171.326 108.528 169.056 103.499 169.056C102.518 169.056 100.187 169.118 98.5927 169.179C98.5927 176.539 98.5927 183.714 98.5927 190.093C99.5127 190.093 101.169 190.154 103.009 190.154ZM92.0304 163.291H104.419C112.76 163.291 117.421 167.4 117.421 179.912C117.421 191.81 112.515 195.98 104.112 195.98C101.966 195.98 100.862 195.919 98.6541 195.858C98.7154 201.132 98.7767 205.732 98.9607 209.289H92.0304C92.2144 202.727 92.2144 196.103 92.2144 186.29C92.2144 176.539 92.2144 169.363 92.0304 163.291ZM157.539 182.058H154.472C154.534 180.77 154.534 179.421 154.534 178.563C154.534 170.835 152.08 168.566 147.665 168.566C142.942 168.566 139.998 171.632 139.998 185.922C139.998 200.458 143.004 203.953 147.849 203.953C152.571 203.953 154.656 200.58 154.656 193.527C154.656 192.546 154.656 191.565 154.595 190.522C155.699 190.583 156.68 190.583 157.784 190.583C158.827 190.583 159.869 190.583 160.973 190.522V193.466C160.973 203.953 156.558 209.902 147.91 209.902C138.894 209.902 133.375 203.831 133.375 186.045C133.375 169.179 138.22 162.678 147.971 162.678C157.293 162.678 160.851 168.566 160.851 177.888C160.851 179.299 160.789 180.648 160.728 182.058H157.539ZM167.736 163.291H174.483C174.299 167.155 174.176 175.067 174.176 186.168C174.176 192.178 174.237 199.354 174.299 203.401C177.795 203.401 182.394 203.401 186.319 203.279C186.319 204.199 186.258 205.241 186.258 206.223C186.258 207.265 186.319 208.308 186.319 209.289H167.736C167.736 206.407 167.859 196.103 167.859 186.29C167.859 175.005 167.92 167.584 167.736 163.291ZM203.296 167.033H203.051C202.622 169.179 202.009 172.246 200.966 176.661C200.046 181.384 198.819 187.088 197.715 192.485C199.617 192.546 201.702 192.546 203.174 192.546C204.707 192.546 206.731 192.546 208.694 192.485C207.528 187.026 206.302 181.2 205.32 176.477C204.339 172.246 203.726 169.179 203.296 167.033ZM219.242 209.289H211.883C211.637 207.388 210.84 202.911 209.736 197.575C207.406 197.575 205.014 197.575 203.174 197.575C201.457 197.575 198.942 197.575 196.673 197.575C195.569 202.788 194.71 207.143 194.342 209.289H187.535C190.294 198.618 197.041 168.688 198.267 163.291H208.264C209.613 168.75 216.237 198.127 219.242 209.289ZM234.114 190.154C239.756 190.154 242.21 188.13 242.21 179.789C242.21 171.326 239.634 169.056 234.605 169.056C233.623 169.056 231.293 169.118 229.698 169.179C229.698 176.539 229.698 183.714 229.698 190.093C230.618 190.093 232.274 190.154 234.114 190.154ZM223.136 163.291H235.525C243.865 163.291 248.527 167.4 248.527 179.912C248.527 191.81 243.62 195.98 235.218 195.98C233.071 195.98 231.967 195.919 229.76 195.858C229.821 201.132 229.882 205.732 230.066 209.289H223.136C223.32 202.727 223.32 196.103 223.32 186.29C223.32 176.539 223.32 169.363 223.136 163.291ZM288.644 182.058H285.578C285.639 180.77 285.639 179.421 285.639 178.563C285.639 170.835 283.186 168.566 278.77 168.566C274.048 168.566 271.104 171.632 271.104 185.922C271.104 200.458 274.109 203.953 278.954 203.953C283.676 203.953 285.762 200.58 285.762 193.527C285.762 192.546 285.762 191.565 285.7 190.522C286.804 190.583 287.786 190.583 288.89 190.583C289.932 190.583 290.975 190.583 292.079 190.522V193.466C292.079 203.953 287.663 209.902 279.015 209.902C270 209.902 264.48 203.831 264.48 186.045C264.48 169.179 269.325 162.678 279.077 162.678C288.399 162.678 291.956 168.566 291.956 177.888C291.956 179.299 291.895 180.648 291.833 182.058H288.644ZM298.842 163.291H305.588C305.404 167.155 305.282 175.067 305.282 186.168C305.282 192.178 305.343 199.354 305.404 203.401C308.9 203.401 313.5 203.401 317.425 203.279C317.425 204.199 317.364 205.241 317.364 206.223C317.364 207.265 317.425 208.308 317.425 209.289H298.842C298.842 206.407 298.964 196.103 298.964 186.29C298.964 175.005 299.026 167.584 298.842 163.291ZM334.402 167.033H334.157C333.727 169.179 333.114 172.246 332.071 176.661C331.151 181.384 329.925 187.088 328.821 192.485C330.722 192.546 332.807 192.546 334.279 192.546C335.812 192.546 337.836 192.546 339.799 192.485C338.634 187.026 337.407 181.2 336.426 176.477C335.445 172.246 334.831 169.179 334.402 167.033ZM350.348 209.289H342.988C342.743 207.388 341.946 202.911 340.842 197.575C338.511 197.575 336.119 197.575 334.279 197.575C332.562 197.575 330.047 197.575 327.778 197.575C326.674 202.788 325.816 207.143 325.448 209.289H318.64C321.4 198.618 328.146 168.688 329.373 163.291H339.37C340.719 168.75 347.343 198.127 350.348 209.289ZM365.219 190.154C370.862 190.154 373.315 188.13 373.315 179.789C373.315 171.326 370.739 169.056 365.71 169.056C364.729 169.056 362.398 169.118 360.804 169.179C360.804 176.539 360.804 183.714 360.804 190.093C361.724 190.093 363.379 190.154 365.219 190.154ZM354.241 163.291H366.63C374.971 163.291 379.632 167.4 379.632 179.912C379.632 191.81 374.726 195.98 366.323 195.98C364.177 195.98 363.073 195.919 360.865 195.858C360.926 201.132 360.988 205.732 361.172 209.289H354.241C354.425 202.727 354.425 196.103 354.425 186.29C354.425 176.539 354.425 169.363 354.241 163.291Z" fill="white"/>
</g>
<g opacity="0.3">
<path d="M26.4334 246.707H23.3668C23.4282 245.419 23.4282 244.07 23.4282 243.211C23.4282 235.483 20.975 233.214 16.5592 233.214C11.8367 233.214 8.89289 236.281 8.89289 250.571C8.89289 265.106 11.8981 268.602 16.7432 268.602C21.4656 268.602 23.5508 265.229 23.5508 258.176C23.5508 257.194 23.5508 256.213 23.4895 255.17C24.5934 255.232 25.5747 255.232 26.6787 255.232C27.7213 255.232 28.7639 255.232 29.8678 255.17V258.114C29.8678 268.602 25.4521 274.551 16.8045 274.551C7.78895 274.551 2.26922 268.479 2.26922 250.693C2.26922 233.827 7.11431 227.326 16.8658 227.326C26.188 227.326 29.7452 233.214 29.7452 242.536C29.7452 243.947 29.6839 245.296 29.6225 246.707H26.4334ZM36.6309 227.94H43.3773C43.1933 231.804 43.0706 239.715 43.0706 250.816C43.0706 256.826 43.132 264.002 43.1933 268.05C46.6891 268.05 51.2889 268.05 55.214 267.927C55.214 268.847 55.1527 269.89 55.1527 270.871C55.1527 271.914 55.214 272.956 55.214 273.938H36.6309C36.6309 271.055 36.7536 260.751 36.7536 250.939C36.7536 239.654 36.8149 232.233 36.6309 227.94ZM72.191 231.681H71.9457C71.5164 233.827 70.9031 236.894 69.8605 241.31C68.9405 246.032 67.7139 251.736 66.61 257.133C68.5112 257.194 70.5964 257.194 72.0683 257.194C73.6016 257.194 75.6255 257.194 77.5881 257.133C76.4228 251.675 75.1962 245.848 74.2149 241.126C73.2336 236.894 72.6203 233.827 72.191 231.681ZM88.1369 273.938H80.7772C80.5319 272.036 79.7346 267.559 78.6307 262.223C76.3001 262.223 73.9083 262.223 72.0683 262.223C70.3511 262.223 67.8366 262.223 65.5673 262.223C64.4634 267.436 63.6048 271.791 63.2368 273.938H56.4291C59.189 263.266 65.9353 233.337 67.1619 227.94H77.1588C78.508 233.398 85.1317 262.775 88.1369 273.938ZM103.009 254.802C108.651 254.802 111.104 252.779 111.104 244.438C111.104 235.974 108.528 233.705 103.499 233.705C102.518 233.705 100.187 233.766 98.5927 233.827C98.5927 241.187 98.5927 248.363 98.5927 254.741C99.5127 254.741 101.169 254.802 103.009 254.802ZM92.0304 227.94H104.419C112.76 227.94 117.421 232.049 117.421 244.56C117.421 256.458 112.515 260.629 104.112 260.629C101.966 260.629 100.862 260.567 98.6541 260.506C98.7154 265.781 98.7767 270.38 98.9607 273.938H92.0304C92.2144 267.375 92.2144 260.751 92.2144 250.939C92.2144 241.187 92.2144 234.011 92.0304 227.94ZM157.539 246.707H154.472C154.534 245.419 154.534 244.07 154.534 243.211C154.534 235.483 152.08 233.214 147.665 233.214C142.942 233.214 139.998 236.281 139.998 250.571C139.998 265.106 143.004 268.602 147.849 268.602C152.571 268.602 154.656 265.229 154.656 258.176C154.656 257.194 154.656 256.213 154.595 255.17C155.699 255.232 156.68 255.232 157.784 255.232C158.827 255.232 159.869 255.232 160.973 255.17V258.114C160.973 268.602 156.558 274.551 147.91 274.551C138.894 274.551 133.375 268.479 133.375 250.693C133.375 233.827 138.22 227.326 147.971 227.326C157.293 227.326 160.851 233.214 160.851 242.536C160.851 243.947 160.789 245.296 160.728 246.707H157.539ZM167.736 227.94H174.483C174.299 231.804 174.176 239.715 174.176 250.816C174.176 256.826 174.237 264.002 174.299 268.05C177.795 268.05 182.394 268.05 186.319 267.927C186.319 268.847 186.258 269.89 186.258 270.871C186.258 271.914 186.319 272.956 186.319 273.938H167.736C167.736 271.055 167.859 260.751 167.859 250.939C167.859 239.654 167.92 232.233 167.736 227.94ZM203.296 231.681H203.051C202.622 233.827 202.009 236.894 200.966 241.31C200.046 246.032 198.819 251.736 197.715 257.133C199.617 257.194 201.702 257.194 203.174 257.194C204.707 257.194 206.731 257.194 208.694 257.133C207.528 251.675 206.302 245.848 205.32 241.126C204.339 236.894 203.726 233.827 203.296 231.681ZM219.242 273.938H211.883C211.637 272.036 210.84 267.559 209.736 262.223C207.406 262.223 205.014 262.223 203.174 262.223C201.457 262.223 198.942 262.223 196.673 262.223C195.569 267.436 194.71 271.791 194.342 273.938H187.535C190.294 263.266 197.041 233.337 198.267 227.94H208.264C209.613 233.398 216.237 262.775 219.242 273.938ZM234.114 254.802C239.756 254.802 242.21 252.779 242.21 244.438C242.21 235.974 239.634 233.705 234.605 233.705C233.623 233.705 231.293 233.766 229.698 233.827C229.698 241.187 229.698 248.363 229.698 254.741C230.618 254.741 232.274 254.802 234.114 254.802ZM223.136 227.94H235.525C243.865 227.94 248.527 232.049 248.527 244.56C248.527 256.458 243.62 260.629 235.218 260.629C233.071 260.629 231.967 260.567 229.76 260.506C229.821 265.781 229.882 270.38 230.066 273.938H223.136C223.32 267.375 223.32 260.751 223.32 250.939C223.32 241.187 223.32 234.011 223.136 227.94ZM288.644 246.707H285.578C285.639 245.419 285.639 244.07 285.639 243.211C285.639 235.483 283.186 233.214 278.77 233.214C274.048 233.214 271.104 236.281 271.104 250.571C271.104 265.106 274.109 268.602 278.954 268.602C283.676 268.602 285.762 265.229 285.762 258.176C285.762 257.194 285.762 256.213 285.7 255.17C286.804 255.232 287.786 255.232 288.89 255.232C289.932 255.232 290.975 255.232 292.079 255.17V258.114C292.079 268.602 287.663 274.551 279.015 274.551C270 274.551 264.48 268.479 264.48 250.693C264.48 233.827 269.325 227.326 279.077 227.326C288.399 227.326 291.956 233.214 291.956 242.536C291.956 243.947 291.895 245.296 291.833 246.707H288.644ZM298.842 227.94H305.588C305.404 231.804 305.282 239.715 305.282 250.816C305.282 256.826 305.343 264.002 305.404 268.05C308.9 268.05 313.5 268.05 317.425 267.927C317.425 268.847 317.364 269.89 317.364 270.871C317.364 271.914 317.425 272.956 317.425 273.938H298.842C298.842 271.055 298.964 260.751 298.964 250.939C298.964 239.654 299.026 232.233 298.842 227.94ZM334.402 231.681H334.157C333.727 233.827 333.114 236.894 332.071 241.31C331.151 246.032 329.925 251.736 328.821 257.133C330.722 257.194 332.807 257.194 334.279 257.194C335.812 257.194 337.836 257.194 339.799 257.133C338.634 251.675 337.407 245.848 336.426 241.126C335.445 236.894 334.831 233.827 334.402 231.681ZM350.348 273.938H342.988C342.743 272.036 341.946 267.559 340.842 262.223C338.511 262.223 336.119 262.223 334.279 262.223C332.562 262.223 330.047 262.223 327.778 262.223C326.674 267.436 325.816 271.791 325.448 273.938H318.64C321.4 263.266 328.146 233.337 329.373 227.94H339.37C340.719 233.398 347.343 262.775 350.348 273.938ZM365.219 254.802C370.862 254.802 373.315 252.779 373.315 244.438C373.315 235.974 370.739 233.705 365.71 233.705C364.729 233.705 362.398 233.766 360.804 233.827C360.804 241.187 360.804 248.363 360.804 254.741C361.724 254.741 363.379 254.802 365.219 254.802ZM354.241 227.94H366.63C374.971 227.94 379.632 232.049 379.632 244.56C379.632 256.458 374.726 260.629 366.323 260.629C364.177 260.629 363.073 260.567 360.865 260.506C360.926 265.781 360.988 270.38 361.172 273.938H354.241C354.425 267.375 354.425 260.751 354.425 250.939C354.425 241.187 354.425 234.011 354.241 227.94Z" fill="white"/>
</g>
<g opacity="0.3">
<path d="M26.4334 311.351H23.3668C23.4282 310.063 23.4282 308.714 23.4282 307.856C23.4282 300.128 20.975 297.859 16.5592 297.859C11.8367 297.859 8.89289 300.925 8.89289 315.215C8.89289 329.75 11.8981 333.246 16.7432 333.246C21.4656 333.246 23.5508 329.873 23.5508 322.82C23.5508 321.839 23.5508 320.858 23.4895 319.815C24.5934 319.876 25.5747 319.876 26.6787 319.876C27.7213 319.876 28.7639 319.876 29.8678 319.815V322.759C29.8678 333.246 25.4521 339.195 16.8045 339.195C7.78895 339.195 2.26922 333.124 2.26922 315.338C2.26922 298.472 7.11431 291.971 16.8658 291.971C26.188 291.971 29.7452 297.859 29.7452 307.181C29.7452 308.592 29.6839 309.941 29.6225 311.351H26.4334ZM36.6309 292.584H43.3773C43.1933 296.448 43.0706 304.36 43.0706 315.461C43.0706 321.471 43.132 328.647 43.1933 332.694C46.6891 332.694 51.2889 332.694 55.214 332.572C55.214 333.492 55.1527 334.534 55.1527 335.516C55.1527 336.558 55.214 337.601 55.214 338.582H36.6309C36.6309 335.7 36.7536 325.396 36.7536 315.583C36.7536 304.298 36.8149 296.877 36.6309 292.584ZM72.191 296.325H71.9457C71.5164 298.472 70.9031 301.539 69.8605 305.954C68.9405 310.677 67.7139 316.38 66.61 321.778C68.5112 321.839 70.5964 321.839 72.0683 321.839C73.6016 321.839 75.6255 321.839 77.5881 321.778C76.4228 316.319 75.1962 310.493 74.2149 305.77C73.2336 301.539 72.6203 298.472 72.191 296.325ZM88.1369 338.582H80.7772C80.5319 336.681 79.7346 332.204 78.6307 326.868C76.3001 326.868 73.9083 326.868 72.0683 326.868C70.3511 326.868 67.8366 326.868 65.5673 326.868C64.4634 332.081 63.6048 336.435 63.2368 338.582H56.4291C59.189 327.911 65.9353 297.981 67.1619 292.584H77.1588C78.508 298.043 85.1317 327.42 88.1369 338.582ZM103.009 319.447C108.651 319.447 111.104 317.423 111.104 309.082C111.104 300.619 108.528 298.349 103.499 298.349C102.518 298.349 100.187 298.411 98.5927 298.472C98.5927 305.832 98.5927 313.007 98.5927 319.386C99.5127 319.386 101.169 319.447 103.009 319.447ZM92.0304 292.584H104.419C112.76 292.584 117.421 296.693 117.421 309.205C117.421 321.103 112.515 325.273 104.112 325.273C101.966 325.273 100.862 325.212 98.6541 325.151C98.7154 330.425 98.7767 335.025 98.9607 338.582H92.0304C92.2144 332.02 92.2144 325.396 92.2144 315.583C92.2144 305.832 92.2144 298.656 92.0304 292.584ZM157.539 311.351H154.472C154.534 310.063 154.534 308.714 154.534 307.856C154.534 300.128 152.08 297.859 147.665 297.859C142.942 297.859 139.998 300.925 139.998 315.215C139.998 329.75 143.004 333.246 147.849 333.246C152.571 333.246 154.656 329.873 154.656 322.82C154.656 321.839 154.656 320.858 154.595 319.815C155.699 319.876 156.68 319.876 157.784 319.876C158.827 319.876 159.869 319.876 160.973 319.815V322.759C160.973 333.246 156.558 339.195 147.91 339.195C138.894 339.195 133.375 333.124 133.375 315.338C133.375 298.472 138.22 291.971 147.971 291.971C157.293 291.971 160.851 297.859 160.851 307.181C160.851 308.592 160.789 309.941 160.728 311.351H157.539ZM167.736 292.584H174.483C174.299 296.448 174.176 304.36 174.176 315.461C174.176 321.471 174.237 328.647 174.299 332.694C177.795 332.694 182.394 332.694 186.319 332.572C186.319 333.492 186.258 334.534 186.258 335.516C186.258 336.558 186.319 337.601 186.319 338.582H167.736C167.736 335.7 167.859 325.396 167.859 315.583C167.859 304.298 167.92 296.877 167.736 292.584ZM203.296 296.325H203.051C202.622 298.472 202.009 301.539 200.966 305.954C200.046 310.677 198.819 316.38 197.715 321.778C199.617 321.839 201.702 321.839 203.174 321.839C204.707 321.839 206.731 321.839 208.694 321.778C207.528 316.319 206.302 310.493 205.32 305.77C204.339 301.539 203.726 298.472 203.296 296.325ZM219.242 338.582H211.883C211.637 336.681 210.84 332.204 209.736 326.868C207.406 326.868 205.014 326.868 203.174 326.868C201.457 326.868 198.942 326.868 196.673 326.868C195.569 332.081 194.71 336.435 194.342 338.582H187.535C190.294 327.911 197.041 297.981 198.267 292.584H208.264C209.613 298.043 216.237 327.42 219.242 338.582ZM234.114 319.447C239.756 319.447 242.21 317.423 242.21 309.082C242.21 300.619 239.634 298.349 234.605 298.349C233.623 298.349 231.293 298.411 229.698 298.472C229.698 305.832 229.698 313.007 229.698 319.386C230.618 319.386 232.274 319.447 234.114 319.447ZM223.136 292.584H235.525C243.865 292.584 248.527 296.693 248.527 309.205C248.527 321.103 243.62 325.273 235.218 325.273C233.071 325.273 231.967 325.212 229.76 325.151C229.821 330.425 229.882 335.025 230.066 338.582H223.136C223.32 332.02 223.32 325.396 223.32 315.583C223.32 305.832 223.32 298.656 223.136 292.584ZM288.644 311.351H285.578C285.639 310.063 285.639 308.714 285.639 307.856C285.639 300.128 283.186 297.859 278.77 297.859C274.048 297.859 271.104 300.925 271.104 315.215C271.104 329.75 274.109 333.246 278.954 333.246C283.676 333.246 285.762 329.873 285.762 322.82C285.762 321.839 285.762 320.858 285.7 319.815C286.804 319.876 287.786 319.876 288.89 319.876C289.932 319.876 290.975 319.876 292.079 319.815V322.759C292.079 333.246 287.663 339.195 279.015 339.195C270 339.195 264.48 333.124 264.48 315.338C264.48 298.472 269.325 291.971 279.077 291.971C288.399 291.971 291.956 297.859 291.956 307.181C291.956 308.592 291.895 309.941 291.833 311.351H288.644ZM298.842 292.584H305.588C305.404 296.448 305.282 304.36 305.282 315.461C305.282 321.471 305.343 328.647 305.404 332.694C308.9 332.694 313.5 332.694 317.425 332.572C317.425 333.492 317.364 334.534 317.364 335.516C317.364 336.558 317.425 337.601 317.425 338.582H298.842C298.842 335.7 298.964 325.396 298.964 315.583C298.964 304.298 299.026 296.877 298.842 292.584ZM334.402 296.325H334.157C333.727 298.472 333.114 301.539 332.071 305.954C331.151 310.677 329.925 316.38 328.821 321.778C330.722 321.839 332.807 321.839 334.279 321.839C335.812 321.839 337.836 321.839 339.799 321.778C338.634 316.319 337.407 310.493 336.426 305.77C335.445 301.539 334.831 298.472 334.402 296.325ZM350.348 338.582H342.988C342.743 336.681 341.946 332.204 340.842 326.868C338.511 326.868 336.119 326.868 334.279 326.868C332.562 326.868 330.047 326.868 327.778 326.868C326.674 332.081 325.816 336.435 325.448 338.582H318.64C321.4 327.911 328.146 297.981 329.373 292.584H339.37C340.719 298.043 347.343 327.42 350.348 338.582ZM365.219 319.447C370.862 319.447 373.315 317.423 373.315 309.082C373.315 300.619 370.739 298.349 365.71 298.349C364.729 298.349 362.398 298.411 360.804 298.472C360.804 305.832 360.804 313.007 360.804 319.386C361.724 319.386 363.379 319.447 365.219 319.447ZM354.241 292.584H366.63C374.971 292.584 379.632 296.693 379.632 309.205C379.632 321.103 374.726 325.273 366.323 325.273C364.177 325.273 363.073 325.212 360.865 325.151C360.926 330.425 360.988 335.025 361.172 338.582H354.241C354.425 332.02 354.425 325.396 354.425 315.583C354.425 305.832 354.425 298.656 354.241 292.584Z" fill="white"/>
</g>
<g opacity="0.3">
<path d="M26.4334 376H23.3668C23.4282 374.712 23.4282 373.363 23.4282 372.504C23.4282 364.776 20.975 362.507 16.5592 362.507C11.8367 362.507 8.89289 365.574 8.89289 379.864C8.89289 394.399 11.8981 397.895 16.7432 397.895C21.4656 397.895 23.5508 394.522 23.5508 387.469C23.5508 386.487 23.5508 385.506 23.4895 384.463C24.5934 384.525 25.5747 384.525 26.6787 384.525C27.7213 384.525 28.7639 384.525 29.8678 384.463V387.407C29.8678 397.895 25.4521 403.844 16.8045 403.844C7.78895 403.844 2.26922 397.772 2.26922 379.986C2.26922 363.12 7.11431 356.619 16.8658 356.619C26.188 356.619 29.7452 362.507 29.7452 371.829C29.7452 373.24 29.6839 374.589 29.6225 376H26.4334ZM36.6309 357.233H43.3773C43.1933 361.097 43.0706 369.008 43.0706 380.109C43.0706 386.119 43.132 393.295 43.1933 397.343C46.6891 397.343 51.2889 397.343 55.214 397.22C55.214 398.14 55.1527 399.183 55.1527 400.164C55.1527 401.207 55.214 402.249 55.214 403.23H36.6309C36.6309 400.348 36.7536 390.044 36.7536 380.232C36.7536 368.947 36.8149 361.526 36.6309 357.233ZM72.191 360.974H71.9457C71.5164 363.12 70.9031 366.187 69.8605 370.603C68.9405 375.325 67.7139 381.029 66.61 386.426C68.5112 386.487 70.5964 386.487 72.0683 386.487C73.6016 386.487 75.6255 386.487 77.5881 386.426C76.4228 380.968 75.1962 375.141 74.2149 370.419C73.2336 366.187 72.6203 363.12 72.191 360.974ZM88.1369 403.23H80.7772C80.5319 401.329 79.7346 396.852 78.6307 391.516C76.3001 391.516 73.9083 391.516 72.0683 391.516C70.3511 391.516 67.8366 391.516 65.5673 391.516C64.4634 396.729 63.6048 401.084 63.2368 403.23H56.4291C59.189 392.559 65.9353 362.63 67.1619 357.233H77.1588C78.508 362.691 85.1317 392.068 88.1369 403.23ZM103.009 384.095C108.651 384.095 111.104 382.072 111.104 373.731C111.104 365.267 108.528 362.998 103.499 362.998C102.518 362.998 100.187 363.059 98.5927 363.12C98.5927 370.48 98.5927 377.656 98.5927 384.034C99.5127 384.034 101.169 384.095 103.009 384.095ZM92.0304 357.233H104.419C112.76 357.233 117.421 361.342 117.421 373.853C117.421 385.751 112.515 389.922 104.112 389.922C101.966 389.922 100.862 389.86 98.6541 389.799C98.7154 395.074 98.7767 399.673 98.9607 403.23H92.0304C92.2144 396.668 92.2144 390.044 92.2144 380.232C92.2144 370.48 92.2144 363.304 92.0304 357.233ZM157.539 376H154.472C154.534 374.712 154.534 373.363 154.534 372.504C154.534 364.776 152.08 362.507 147.665 362.507C142.942 362.507 139.998 365.574 139.998 379.864C139.998 394.399 143.004 397.895 147.849 397.895C152.571 397.895 154.656 394.522 154.656 387.469C154.656 386.487 154.656 385.506 154.595 384.463C155.699 384.525 156.68 384.525 157.784 384.525C158.827 384.525 159.869 384.525 160.973 384.463V387.407C160.973 397.895 156.558 403.844 147.91 403.844C138.894 403.844 133.375 397.772 133.375 379.986C133.375 363.12 138.22 356.619 147.971 356.619C157.293 356.619 160.851 362.507 160.851 371.829C160.851 373.24 160.789 374.589 160.728 376H157.539ZM167.736 357.233H174.483C174.299 361.097 174.176 369.008 174.176 380.109C174.176 386.119 174.237 393.295 174.299 397.343C177.795 397.343 182.394 397.343 186.319 397.22C186.319 398.14 186.258 399.183 186.258 400.164C186.258 401.207 186.319 402.249 186.319 403.23H167.736C167.736 400.348 167.859 390.044 167.859 380.232C167.859 368.947 167.92 361.526 167.736 357.233ZM203.296 360.974H203.051C202.622 363.12 202.009 366.187 200.966 370.603C200.046 375.325 198.819 381.029 197.715 386.426C199.617 386.487 201.702 386.487 203.174 386.487C204.707 386.487 206.731 386.487 208.694 386.426C207.528 380.968 206.302 375.141 205.32 370.419C204.339 366.187 203.726 363.12 203.296 360.974ZM219.242 403.23H211.883C211.637 401.329 210.84 396.852 209.736 391.516C207.406 391.516 205.014 391.516 203.174 391.516C201.457 391.516 198.942 391.516 196.673 391.516C195.569 396.729 194.71 401.084 194.342 403.23H187.535C190.294 392.559 197.041 362.63 198.267 357.233H208.264C209.613 362.691 216.237 392.068 219.242 403.23ZM234.114 384.095C239.756 384.095 242.21 382.072 242.21 373.731C242.21 365.267 239.634 362.998 234.605 362.998C233.623 362.998 231.293 363.059 229.698 363.12C229.698 370.48 229.698 377.656 229.698 384.034C230.618 384.034 232.274 384.095 234.114 384.095ZM223.136 357.233H235.525C243.865 357.233 248.527 361.342 248.527 373.853C248.527 385.751 243.62 389.922 235.218 389.922C233.071 389.922 231.967 389.86 229.76 389.799C229.821 395.074 229.882 399.673 230.066 403.23H223.136C223.32 396.668 223.32 390.044 223.32 380.232C223.32 370.48 223.32 363.304 223.136 357.233ZM288.644 376H285.578C285.639 374.712 285.639 373.363 285.639 372.504C285.639 364.776 283.186 362.507 278.77 362.507C274.048 362.507 271.104 365.574 271.104 379.864C271.104 394.399 274.109 397.895 278.954 397.895C283.676 397.895 285.762 394.522 285.762 387.469C285.762 386.487 285.762 385.506 285.7 384.463C286.804 384.525 287.786 384.525 288.89 384.525C289.932 384.525 290.975 384.525 292.079 384.463V387.407C292.079 397.895 287.663 403.844 279.015 403.844C270 403.844 264.48 397.772 264.48 379.986C264.48 363.12 269.325 356.619 279.077 356.619C288.399 356.619 291.956 362.507 291.956 371.829C291.956 373.24 291.895 374.589 291.833 376H288.644ZM298.842 357.233H305.588C305.404 361.097 305.282 369.008 305.282 380.109C305.282 386.119 305.343 393.295 305.404 397.343C308.9 397.343 313.5 397.343 317.425 397.22C317.425 398.14 317.364 399.183 317.364 400.164C317.364 401.207 317.425 402.249 317.425 403.23H298.842C298.842 400.348 298.964 390.044 298.964 380.232C298.964 368.947 299.026 361.526 298.842 357.233ZM334.402 360.974H334.157C333.727 363.12 333.114 366.187 332.071 370.603C331.151 375.325 329.925 381.029 328.821 386.426C330.722 386.487 332.807 386.487 334.279 386.487C335.812 386.487 337.836 386.487 339.799 386.426C338.634 380.968 337.407 375.141 336.426 370.419C335.445 366.187 334.831 363.12 334.402 360.974ZM350.348 403.23H342.988C342.743 401.329 341.946 396.852 340.842 391.516C338.511 391.516 336.119 391.516 334.279 391.516C332.562 391.516 330.047 391.516 327.778 391.516C326.674 396.729 325.816 401.084 325.448 403.23H318.64C321.4 392.559 328.146 362.63 329.373 357.233H339.37C340.719 362.691 347.343 392.068 350.348 403.23ZM365.219 384.095C370.862 384.095 373.315 382.072 373.315 373.731C373.315 365.267 370.739 362.998 365.71 362.998C364.729 362.998 362.398 363.059 360.804 363.12C360.804 370.48 360.804 377.656 360.804 384.034C361.724 384.034 363.379 384.095 365.219 384.095ZM354.241 357.233H366.63C374.971 357.233 379.632 361.342 379.632 373.853C379.632 385.751 374.726 389.922 366.323 389.922C364.177 389.922 363.073 389.86 360.865 389.799C360.926 395.074 360.988 399.673 361.172 403.23H354.241C354.425 396.668 354.425 390.044 354.425 380.232C354.425 370.48 354.425 363.304 354.241 357.233Z" fill="white"/>
</g>
<g opacity="0.3">
<path d="M26.4334 441.769H23.3668C23.4282 440.481 23.4282 439.132 23.4282 438.274C23.4282 430.546 20.975 428.277 16.5592 428.277C11.8367 428.277 8.89289 431.343 8.89289 445.633C8.89289 460.168 11.8981 463.664 16.7432 463.664C21.4656 463.664 23.5508 460.291 23.5508 453.238C23.5508 452.257 23.5508 451.276 23.4895 450.233C24.5934 450.294 25.5747 450.294 26.6787 450.294C27.7213 450.294 28.7639 450.294 29.8678 450.233V453.177C29.8678 463.664 25.4521 469.613 16.8045 469.613C7.78895 469.613 2.26922 463.542 2.26922 445.756C2.26922 428.89 7.11431 422.389 16.8658 422.389C26.188 422.389 29.7452 428.277 29.7452 437.599C29.7452 439.009 29.6839 440.359 29.6225 441.769H26.4334ZM36.6309 423.002H43.3773C43.1933 426.866 43.0706 434.778 43.0706 445.878C43.0706 451.889 43.132 459.064 43.1933 463.112C46.6891 463.112 51.2889 463.112 55.214 462.99C55.214 463.91 55.1527 464.952 55.1527 465.933C55.1527 466.976 55.214 468.019 55.214 469H36.6309C36.6309 466.117 36.7536 455.814 36.7536 446.001C36.7536 434.716 36.8149 427.295 36.6309 423.002ZM72.191 426.743H71.9457C71.5164 428.89 70.9031 431.957 69.8605 436.372C68.9405 441.095 67.7139 446.798 66.61 452.196C68.5112 452.257 70.5964 452.257 72.0683 452.257C73.6016 452.257 75.6255 452.257 77.5881 452.196C76.4228 446.737 75.1962 440.911 74.2149 436.188C73.2336 431.957 72.6203 428.89 72.191 426.743ZM88.1369 469H80.7772C80.5319 467.099 79.7346 462.622 78.6307 457.286C76.3001 457.286 73.9083 457.286 72.0683 457.286C70.3511 457.286 67.8366 457.286 65.5673 457.286C64.4634 462.499 63.6048 466.853 63.2368 469H56.4291C59.189 458.329 65.9353 428.399 67.1619 423.002H77.1588C78.508 428.461 85.1317 457.838 88.1369 469ZM103.009 449.865C108.651 449.865 111.104 447.841 111.104 439.5C111.104 431.037 108.528 428.767 103.499 428.767C102.518 428.767 100.187 428.829 98.5927 428.89C98.5927 436.25 98.5927 443.425 98.5927 449.804C99.5127 449.804 101.169 449.865 103.009 449.865ZM92.0304 423.002H104.419C112.76 423.002 117.421 427.111 117.421 439.623C117.421 451.521 112.515 455.691 104.112 455.691C101.966 455.691 100.862 455.63 98.6541 455.569C98.7154 460.843 98.7767 465.443 98.9607 469H92.0304C92.2144 462.438 92.2144 455.814 92.2144 446.001C92.2144 436.25 92.2144 429.074 92.0304 423.002ZM157.539 441.769H154.472C154.534 440.481 154.534 439.132 154.534 438.274C154.534 430.546 152.08 428.277 147.665 428.277C142.942 428.277 139.998 431.343 139.998 445.633C139.998 460.168 143.004 463.664 147.849 463.664C152.571 463.664 154.656 460.291 154.656 453.238C154.656 452.257 154.656 451.276 154.595 450.233C155.699 450.294 156.68 450.294 157.784 450.294C158.827 450.294 159.869 450.294 160.973 450.233V453.177C160.973 463.664 156.558 469.613 147.91 469.613C138.894 469.613 133.375 463.542 133.375 445.756C133.375 428.89 138.22 422.389 147.971 422.389C157.293 422.389 160.851 428.277 160.851 437.599C160.851 439.009 160.789 440.359 160.728 441.769H157.539ZM167.736 423.002H174.483C174.299 426.866 174.176 434.778 174.176 445.878C174.176 451.889 174.237 459.064 174.299 463.112C177.795 463.112 182.394 463.112 186.319 462.99C186.319 463.91 186.258 464.952 186.258 465.933C186.258 466.976 186.319 468.019 186.319 469H167.736C167.736 466.117 167.859 455.814 167.859 446.001C167.859 434.716 167.92 427.295 167.736 423.002ZM203.296 426.743H203.051C202.622 428.89 202.009 431.957 200.966 436.372C200.046 441.095 198.819 446.798 197.715 452.196C199.617 452.257 201.702 452.257 203.174 452.257C204.707 452.257 206.731 452.257 208.694 452.196C207.528 446.737 206.302 440.911 205.32 436.188C204.339 431.957 203.726 428.89 203.296 426.743ZM219.242 469H211.883C211.637 467.099 210.84 462.622 209.736 457.286C207.406 457.286 205.014 457.286 203.174 457.286C201.457 457.286 198.942 457.286 196.673 457.286C195.569 462.499 194.71 466.853 194.342 469H187.535C190.294 458.329 197.041 428.399 198.267 423.002H208.264C209.613 428.461 216.237 457.838 219.242 469ZM234.114 449.865C239.756 449.865 242.21 447.841 242.21 439.5C242.21 431.037 239.634 428.767 234.605 428.767C233.623 428.767 231.293 428.829 229.698 428.89C229.698 436.25 229.698 443.425 229.698 449.804C230.618 449.804 232.274 449.865 234.114 449.865ZM223.136 423.002H235.525C243.865 423.002 248.527 427.111 248.527 439.623C248.527 451.521 243.62 455.691 235.218 455.691C233.071 455.691 231.967 455.63 229.76 455.569C229.821 460.843 229.882 465.443 230.066 469H223.136C223.32 462.438 223.32 455.814 223.32 446.001C223.32 436.25 223.32 429.074 223.136 423.002ZM288.644 441.769H285.578C285.639 440.481 285.639 439.132 285.639 438.274C285.639 430.546 283.186 428.277 278.77 428.277C274.048 428.277 271.104 431.343 271.104 445.633C271.104 460.168 274.109 463.664 278.954 463.664C283.676 463.664 285.762 460.291 285.762 453.238C285.762 452.257 285.762 451.276 285.7 450.233C286.804 450.294 287.786 450.294 288.89 450.294C289.932 450.294 290.975 450.294 292.079 450.233V453.177C292.079 463.664 287.663 469.613 279.015 469.613C270 469.613 264.48 463.542 264.48 445.756C264.48 428.89 269.325 422.389 279.077 422.389C288.399 422.389 291.956 428.277 291.956 437.599C291.956 439.009 291.895 440.359 291.833 441.769H288.644ZM298.842 423.002H305.588C305.404 426.866 305.282 434.778 305.282 445.878C305.282 451.889 305.343 459.064 305.404 463.112C308.9 463.112 313.5 463.112 317.425 462.99C317.425 463.91 317.364 464.952 317.364 465.933C317.364 466.976 317.425 468.019 317.425 469H298.842C298.842 466.117 298.964 455.814 298.964 446.001C298.964 434.716 299.026 427.295 298.842 423.002ZM334.402 426.743H334.157C333.727 428.89 333.114 431.957 332.071 436.372C331.151 441.095 329.925 446.798 328.821 452.196C330.722 452.257 332.807 452.257 334.279 452.257C335.812 452.257 337.836 452.257 339.799 452.196C338.634 446.737 337.407 440.911 336.426 436.188C335.445 431.957 334.831 428.89 334.402 426.743ZM350.348 469H342.988C342.743 467.099 341.946 462.622 340.842 457.286C338.511 457.286 336.119 457.286 334.279 457.286C332.562 457.286 330.047 457.286 327.778 457.286C326.674 462.499 325.816 466.853 325.448 469H318.64C321.4 458.329 328.146 428.399 329.373 423.002H339.37C340.719 428.461 347.343 457.838 350.348 469ZM365.219 449.865C370.862 449.865 373.315 447.841 373.315 439.5C373.315 431.037 370.739 428.767 365.71 428.767C364.729 428.767 362.398 428.829 360.804 428.89C360.804 436.25 360.804 443.425 360.804 449.804C361.724 449.804 363.379 449.865 365.219 449.865ZM354.241 423.002H366.63C374.971 423.002 379.632 427.111 379.632 439.623C379.632 451.521 374.726 455.691 366.323 455.691C364.177 455.691 363.073 455.63 360.865 455.569C360.926 460.843 360.988 465.443 361.172 469H354.241C354.425 462.438 354.425 455.814 354.425 446.001C354.425 436.25 354.425 429.074 354.241 423.002Z" fill="white"/>
</g>
<g opacity="0.3">
<path d="M26.4334 505.769H23.3668C23.4282 504.481 23.4282 503.132 23.4282 502.274C23.4282 494.546 20.975 492.277 16.5592 492.277C11.8367 492.277 8.89289 495.343 8.89289 509.633C8.89289 524.168 11.8981 527.664 16.7432 527.664C21.4656 527.664 23.5508 524.291 23.5508 517.238C23.5508 516.257 23.5508 515.276 23.4895 514.233C24.5934 514.294 25.5747 514.294 26.6787 514.294C27.7213 514.294 28.7639 514.294 29.8678 514.233V517.177C29.8678 527.664 25.4521 533.613 16.8045 533.613C7.78895 533.613 2.26922 527.542 2.26922 509.756C2.26922 492.89 7.11431 486.389 16.8658 486.389C26.188 486.389 29.7452 492.277 29.7452 501.599C29.7452 503.009 29.6839 504.359 29.6225 505.769H26.4334ZM36.6309 487.002H43.3773C43.1933 490.866 43.0706 498.778 43.0706 509.878C43.0706 515.889 43.132 523.064 43.1933 527.112C46.6891 527.112 51.2889 527.112 55.214 526.99C55.214 527.91 55.1527 528.952 55.1527 529.933C55.1527 530.976 55.214 532.019 55.214 533H36.6309C36.6309 530.117 36.7536 519.814 36.7536 510.001C36.7536 498.716 36.8149 491.295 36.6309 487.002ZM72.191 490.743H71.9457C71.5164 492.89 70.9031 495.957 69.8605 500.372C68.9405 505.095 67.7139 510.798 66.61 516.196C68.5112 516.257 70.5964 516.257 72.0683 516.257C73.6016 516.257 75.6255 516.257 77.5881 516.196C76.4228 510.737 75.1962 504.911 74.2149 500.188C73.2336 495.957 72.6203 492.89 72.191 490.743ZM88.1369 533H80.7772C80.5319 531.099 79.7346 526.622 78.6307 521.286C76.3001 521.286 73.9083 521.286 72.0683 521.286C70.3511 521.286 67.8366 521.286 65.5673 521.286C64.4634 526.499 63.6048 530.853 63.2368 533H56.4291C59.189 522.329 65.9353 492.399 67.1619 487.002H77.1588C78.508 492.461 85.1317 521.838 88.1369 533ZM103.009 513.865C108.651 513.865 111.104 511.841 111.104 503.5C111.104 495.037 108.528 492.767 103.499 492.767C102.518 492.767 100.187 492.829 98.5927 492.89C98.5927 500.25 98.5927 507.425 98.5927 513.804C99.5127 513.804 101.169 513.865 103.009 513.865ZM92.0304 487.002H104.419C112.76 487.002 117.421 491.111 117.421 503.623C117.421 515.521 112.515 519.691 104.112 519.691C101.966 519.691 100.862 519.63 98.6541 519.569C98.7154 524.843 98.7767 529.443 98.9607 533H92.0304C92.2144 526.438 92.2144 519.814 92.2144 510.001C92.2144 500.25 92.2144 493.074 92.0304 487.002ZM157.539 505.769H154.472C154.534 504.481 154.534 503.132 154.534 502.274C154.534 494.546 152.08 492.277 147.665 492.277C142.942 492.277 139.998 495.343 139.998 509.633C139.998 524.168 143.004 527.664 147.849 527.664C152.571 527.664 154.656 524.291 154.656 517.238C154.656 516.257 154.656 515.276 154.595 514.233C155.699 514.294 156.68 514.294 157.784 514.294C158.827 514.294 159.869 514.294 160.973 514.233V517.177C160.973 527.664 156.558 533.613 147.91 533.613C138.894 533.613 133.375 527.542 133.375 509.756C133.375 492.89 138.22 486.389 147.971 486.389C157.293 486.389 160.851 492.277 160.851 501.599C160.851 503.009 160.789 504.359 160.728 505.769H157.539ZM167.736 487.002H174.483C174.299 490.866 174.176 498.778 174.176 509.878C174.176 515.889 174.237 523.064 174.299 527.112C177.795 527.112 182.394 527.112 186.319 526.99C186.319 527.91 186.258 528.952 186.258 529.933C186.258 530.976 186.319 532.019 186.319 533H167.736C167.736 530.117 167.859 519.814 167.859 510.001C167.859 498.716 167.92 491.295 167.736 487.002ZM203.296 490.743H203.051C202.622 492.89 202.009 495.957 200.966 500.372C200.046 505.095 198.819 510.798 197.715 516.196C199.617 516.257 201.702 516.257 203.174 516.257C204.707 516.257 206.731 516.257 208.694 516.196C207.528 510.737 206.302 504.911 205.32 500.188C204.339 495.957 203.726 492.89 203.296 490.743ZM219.242 533H211.883C211.637 531.099 210.84 526.622 209.736 521.286C207.406 521.286 205.014 521.286 203.174 521.286C201.457 521.286 198.942 521.286 196.673 521.286C195.569 526.499 194.71 530.853 194.342 533H187.535C190.294 522.329 197.041 492.399 198.267 487.002H208.264C209.613 492.461 216.237 521.838 219.242 533ZM234.114 513.865C239.756 513.865 242.21 511.841 242.21 503.5C242.21 495.037 239.634 492.767 234.605 492.767C233.623 492.767 231.293 492.829 229.698 492.89C229.698 500.25 229.698 507.425 229.698 513.804C230.618 513.804 232.274 513.865 234.114 513.865ZM223.136 487.002H235.525C243.865 487.002 248.527 491.111 248.527 503.623C248.527 515.521 243.62 519.691 235.218 519.691C233.071 519.691 231.967 519.63 229.76 519.569C229.821 524.843 229.882 529.443 230.066 533H223.136C223.32 526.438 223.32 519.814 223.32 510.001C223.32 500.25 223.32 493.074 223.136 487.002ZM288.644 505.769H285.578C285.639 504.481 285.639 503.132 285.639 502.274C285.639 494.546 283.186 492.277 278.77 492.277C274.048 492.277 271.104 495.343 271.104 509.633C271.104 524.168 274.109 527.664 278.954 527.664C283.676 527.664 285.762 524.291 285.762 517.238C285.762 516.257 285.762 515.276 285.7 514.233C286.804 514.294 287.786 514.294 288.89 514.294C289.932 514.294 290.975 514.294 292.079 514.233V517.177C292.079 527.664 287.663 533.613 279.015 533.613C270 533.613 264.48 527.542 264.48 509.756C264.48 492.89 269.325 486.389 279.077 486.389C288.399 486.389 291.956 492.277 291.956 501.599C291.956 503.009 291.895 504.359 291.833 505.769H288.644ZM298.842 487.002H305.588C305.404 490.866 305.282 498.778 305.282 509.878C305.282 515.889 305.343 523.064 305.404 527.112C308.9 527.112 313.5 527.112 317.425 526.99C317.425 527.91 317.364 528.952 317.364 529.933C317.364 530.976 317.425 532.019 317.425 533H298.842C298.842 530.117 298.964 519.814 298.964 510.001C298.964 498.716 299.026 491.295 298.842 487.002ZM334.402 490.743H334.157C333.727 492.89 333.114 495.957 332.071 500.372C331.151 505.095 329.925 510.798 328.821 516.196C330.722 516.257 332.807 516.257 334.279 516.257C335.812 516.257 337.836 516.257 339.799 516.196C338.634 510.737 337.407 504.911 336.426 500.188C335.445 495.957 334.831 492.89 334.402 490.743ZM350.348 533H342.988C342.743 531.099 341.946 526.622 340.842 521.286C338.511 521.286 336.119 521.286 334.279 521.286C332.562 521.286 330.047 521.286 327.778 521.286C326.674 526.499 325.816 530.853 325.448 533H318.64C321.4 522.329 328.146 492.399 329.373 487.002H339.37C340.719 492.461 347.343 521.838 350.348 533ZM365.219 513.865C370.862 513.865 373.315 511.841 373.315 503.5C373.315 495.037 370.739 492.767 365.71 492.767C364.729 492.767 362.398 492.829 360.804 492.89C360.804 500.25 360.804 507.425 360.804 513.804C361.724 513.804 363.379 513.865 365.219 513.865ZM354.241 487.002H366.63C374.971 487.002 379.632 491.111 379.632 503.623C379.632 515.521 374.726 519.691 366.323 519.691C364.177 519.691 363.073 519.63 360.865 519.569C360.926 524.843 360.988 529.443 361.172 533H354.241C354.425 526.438 354.425 519.814 354.425 510.001C354.425 500.25 354.425 493.074 354.241 487.002Z" fill="white"/>
</g>
<g opacity="0.3">
<path d="M26.4334 571.769H23.3668C23.4282 570.481 23.4282 569.132 23.4282 568.274C23.4282 560.546 20.975 558.277 16.5592 558.277C11.8367 558.277 8.89289 561.343 8.89289 575.633C8.89289 590.168 11.8981 593.664 16.7432 593.664C21.4656 593.664 23.5508 590.291 23.5508 583.238C23.5508 582.257 23.5508 581.276 23.4895 580.233C24.5934 580.294 25.5747 580.294 26.6787 580.294C27.7213 580.294 28.7639 580.294 29.8678 580.233V583.177C29.8678 593.664 25.4521 599.613 16.8045 599.613C7.78895 599.613 2.26922 593.542 2.26922 575.756C2.26922 558.89 7.11431 552.389 16.8658 552.389C26.188 552.389 29.7452 558.277 29.7452 567.599C29.7452 569.009 29.6839 570.359 29.6225 571.769H26.4334ZM36.6309 553.002H43.3773C43.1933 556.866 43.0706 564.778 43.0706 575.878C43.0706 581.889 43.132 589.064 43.1933 593.112C46.6891 593.112 51.2889 593.112 55.214 592.99C55.214 593.91 55.1527 594.952 55.1527 595.933C55.1527 596.976 55.214 598.019 55.214 599H36.6309C36.6309 596.117 36.7536 585.814 36.7536 576.001C36.7536 564.716 36.8149 557.295 36.6309 553.002ZM72.191 556.743H71.9457C71.5164 558.89 70.9031 561.957 69.8605 566.372C68.9405 571.095 67.7139 576.798 66.61 582.196C68.5112 582.257 70.5964 582.257 72.0683 582.257C73.6016 582.257 75.6255 582.257 77.5881 582.196C76.4228 576.737 75.1962 570.911 74.2149 566.188C73.2336 561.957 72.6203 558.89 72.191 556.743ZM88.1369 599H80.7772C80.5319 597.099 79.7346 592.622 78.6307 587.286C76.3001 587.286 73.9083 587.286 72.0683 587.286C70.3511 587.286 67.8366 587.286 65.5673 587.286C64.4634 592.499 63.6048 596.853 63.2368 599H56.4291C59.189 588.329 65.9353 558.399 67.1619 553.002H77.1588C78.508 558.461 85.1317 587.838 88.1369 599ZM103.009 579.865C108.651 579.865 111.104 577.841 111.104 569.5C111.104 561.037 108.528 558.767 103.499 558.767C102.518 558.767 100.187 558.829 98.5927 558.89C98.5927 566.25 98.5927 573.425 98.5927 579.804C99.5127 579.804 101.169 579.865 103.009 579.865ZM92.0304 553.002H104.419C112.76 553.002 117.421 557.111 117.421 569.623C117.421 581.521 112.515 585.691 104.112 585.691C101.966 585.691 100.862 585.63 98.6541 585.569C98.7154 590.843 98.7767 595.443 98.9607 599H92.0304C92.2144 592.438 92.2144 585.814 92.2144 576.001C92.2144 566.25 92.2144 559.074 92.0304 553.002ZM157.539 571.769H154.472C154.534 570.481 154.534 569.132 154.534 568.274C154.534 560.546 152.08 558.277 147.665 558.277C142.942 558.277 139.998 561.343 139.998 575.633C139.998 590.168 143.004 593.664 147.849 593.664C152.571 593.664 154.656 590.291 154.656 583.238C154.656 582.257 154.656 581.276 154.595 580.233C155.699 580.294 156.68 580.294 157.784 580.294C158.827 580.294 159.869 580.294 160.973 580.233V583.177C160.973 593.664 156.558 599.613 147.91 599.613C138.894 599.613 133.375 593.542 133.375 575.756C133.375 558.89 138.22 552.389 147.971 552.389C157.293 552.389 160.851 558.277 160.851 567.599C160.851 569.009 160.789 570.359 160.728 571.769H157.539ZM167.736 553.002H174.483C174.299 556.866 174.176 564.778 174.176 575.878C174.176 581.889 174.237 589.064 174.299 593.112C177.795 593.112 182.394 593.112 186.319 592.99C186.319 593.91 186.258 594.952 186.258 595.933C186.258 596.976 186.319 598.019 186.319 599H167.736C167.736 596.117 167.859 585.814 167.859 576.001C167.859 564.716 167.92 557.295 167.736 553.002ZM203.296 556.743H203.051C202.622 558.89 202.009 561.957 200.966 566.372C200.046 571.095 198.819 576.798 197.715 582.196C199.617 582.257 201.702 582.257 203.174 582.257C204.707 582.257 206.731 582.257 208.694 582.196C207.528 576.737 206.302 570.911 205.32 566.188C204.339 561.957 203.726 558.89 203.296 556.743ZM219.242 599H211.883C211.637 597.099 210.84 592.622 209.736 587.286C207.406 587.286 205.014 587.286 203.174 587.286C201.457 587.286 198.942 587.286 196.673 587.286C195.569 592.499 194.71 596.853 194.342 599H187.535C190.294 588.329 197.041 558.399 198.267 553.002H208.264C209.613 558.461 216.237 587.838 219.242 599ZM234.114 579.865C239.756 579.865 242.21 577.841 242.21 569.5C242.21 561.037 239.634 558.767 234.605 558.767C233.623 558.767 231.293 558.829 229.698 558.89C229.698 566.25 229.698 573.425 229.698 579.804C230.618 579.804 232.274 579.865 234.114 579.865ZM223.136 553.002H235.525C243.865 553.002 248.527 557.111 248.527 569.623C248.527 581.521 243.62 585.691 235.218 585.691C233.071 585.691 231.967 585.63 229.76 585.569C229.821 590.843 229.882 595.443 230.066 599H223.136C223.32 592.438 223.32 585.814 223.32 576.001C223.32 566.25 223.32 559.074 223.136 553.002ZM288.644 571.769H285.578C285.639 570.481 285.639 569.132 285.639 568.274C285.639 560.546 283.186 558.277 278.77 558.277C274.048 558.277 271.104 561.343 271.104 575.633C271.104 590.168 274.109 593.664 278.954 593.664C283.676 593.664 285.762 590.291 285.762 583.238C285.762 582.257 285.762 581.276 285.7 580.233C286.804 580.294 287.786 580.294 288.89 580.294C289.932 580.294 290.975 580.294 292.079 580.233V583.177C292.079 593.664 287.663 599.613 279.015 599.613C270 599.613 264.48 593.542 264.48 575.756C264.48 558.89 269.325 552.389 279.077 552.389C288.399 552.389 291.956 558.277 291.956 567.599C291.956 569.009 291.895 570.359 291.833 571.769H288.644ZM298.842 553.002H305.588C305.404 556.866 305.282 564.778 305.282 575.878C305.282 581.889 305.343 589.064 305.404 593.112C308.9 593.112 313.5 593.112 317.425 592.99C317.425 593.91 317.364 594.952 317.364 595.933C317.364 596.976 317.425 598.019 317.425 599H298.842C298.842 596.117 298.964 585.814 298.964 576.001C298.964 564.716 299.026 557.295 298.842 553.002ZM334.402 556.743H334.157C333.727 558.89 333.114 561.957 332.071 566.372C331.151 571.095 329.925 576.798 328.821 582.196C330.722 582.257 332.807 582.257 334.279 582.257C335.812 582.257 337.836 582.257 339.799 582.196C338.634 576.737 337.407 570.911 336.426 566.188C335.445 561.957 334.831 558.89 334.402 556.743ZM350.348 599H342.988C342.743 597.099 341.946 592.622 340.842 587.286C338.511 587.286 336.119 587.286 334.279 587.286C332.562 587.286 330.047 587.286 327.778 587.286C326.674 592.499 325.816 596.853 325.448 599H318.64C321.4 588.329 328.146 558.399 329.373 553.002H339.37C340.719 558.461 347.343 587.838 350.348 599ZM365.219 579.865C370.862 579.865 373.315 577.841 373.315 569.5C373.315 561.037 370.739 558.767 365.71 558.767C364.729 558.767 362.398 558.829 360.804 558.89C360.804 566.25 360.804 573.425 360.804 579.804C361.724 579.804 363.379 579.865 365.219 579.865ZM354.241 553.002H366.63C374.971 553.002 379.632 557.111 379.632 569.623C379.632 581.521 374.726 585.691 366.323 585.691C364.177 585.691 363.073 585.63 360.865 585.569C360.926 590.843 360.988 595.443 361.172 599H354.241C354.425 592.438 354.425 585.814 354.425 576.001C354.425 566.25 354.425 559.074 354.241 553.002Z" fill="white"/>
</g>
</svg>
