<svg width="51" height="51" viewBox="0 0 51 51" fill="none" xmlns="http://www.w3.org/2000/svg">
<path d="M14.7874 20.2543C11.4313 22.7004 10.7886 27.5347 13.3519 31.052C13.4708 31.2151 13.5967 31.3706 13.7248 31.5222C13.7548 31.5906 13.7926 31.6567 13.8385 31.7197L21.8303 42.6859C22.1721 43.1547 22.8295 43.258 23.2984 42.9163L34.2709 34.9199C34.3338 34.874 34.3896 34.8218 34.439 34.7659C34.605 34.6618 34.7707 34.5544 34.9317 34.4371C38.4491 31.8737 39.3452 27.1125 36.9335 23.803C34.5217 20.4935 29.7148 19.8886 26.1974 22.452C26.0803 22.5373 25.9661 22.6249 25.8548 22.7149C25.7457 22.5388 25.6308 22.3644 25.5067 22.1941C22.9433 18.6766 18.1438 17.8083 14.7874 20.2543Z" fill="#1B1B1B"/>
<mask id="path-2-inside-1_1761_11592" fill="white">
<path d="M11.0286 15.5827C6.26352 19.0554 5.30985 25.862 8.89778 30.7853C9.15546 31.1389 9.43145 31.4714 9.72005 31.786L20.9972 47.2602C21.3389 47.7292 21.9962 47.8323 22.4652 47.4905L37.8416 36.2848C38.3593 36.0133 38.8657 35.7015 39.3541 35.3457C44.3478 31.7063 45.6592 25.0005 42.2834 20.3683C38.9075 15.7363 32.1228 14.9316 27.1291 18.5708C26.9631 18.6918 26.8013 18.8165 26.6435 18.944C26.4901 18.6957 26.3289 18.4495 26.1541 18.2095C22.5661 13.2862 15.7937 12.11 11.0286 15.5827Z"/>
</mask>
<path d="M11.0286 15.5827L9.85427 13.9714L9.8543 13.9714L11.0286 15.5827ZM8.89778 30.7853L7.28649 31.9596L7.28647 31.9596L8.89778 30.7853ZM9.72005 31.786L11.1892 30.4381L11.2652 30.5209L11.3314 30.6117L9.72005 31.786ZM20.9972 47.2602L19.3858 48.4345L20.9972 47.2602ZM37.8416 36.2848L36.6673 34.6734L36.7859 34.5871L36.9157 34.519L37.8416 36.2848ZM39.3541 35.3457L40.5283 36.957L40.5283 36.957L39.3541 35.3457ZM42.2834 20.3683L43.8947 19.1939L43.8947 19.194L42.2834 20.3683ZM27.1291 18.5708L25.9548 16.9595L25.9548 16.9595L27.1291 18.5708ZM26.6435 18.944L27.8968 20.4947L26.1365 21.9174L24.9472 19.9918L26.6435 18.944ZM26.1541 18.2095L27.7654 17.0352L27.7654 17.0353L26.1541 18.2095ZM11.0286 15.5827L12.2029 17.194C8.37705 19.9822 7.53311 25.5275 10.5091 29.611L8.89778 30.7853L7.28647 31.9596C3.08658 26.1966 4.14998 18.1286 9.85427 13.9714L11.0286 15.5827ZM8.89778 30.7853L10.5091 29.611C10.7181 29.8978 10.9456 30.1726 11.1892 30.4381L9.72005 31.786L8.25086 33.1338C7.91728 32.7702 7.59287 32.38 7.28649 31.9596L8.89778 30.7853ZM9.72005 31.786L11.3314 30.6117L22.6085 46.0859L20.9972 47.2602L19.3858 48.4345L8.10874 32.9602L9.72005 31.786ZM20.9972 47.2602L22.6085 46.0859C22.3017 45.665 21.7119 45.5725 21.291 45.8792L22.4652 47.4905L23.6395 49.1018C22.2806 50.0922 20.3762 49.7934 19.3858 48.4345L20.9972 47.2602ZM22.4652 47.4905L21.291 45.8792L36.6673 34.6734L37.8416 36.2848L39.0159 37.8961L23.6395 49.1018L22.4652 47.4905ZM37.8416 36.2848L36.9157 34.519C37.3509 34.2908 37.7739 34.0301 38.1798 33.7344L39.3541 35.3457L40.5283 36.957C39.9576 37.3729 39.3677 37.7358 38.7675 38.0505L37.8416 36.2848ZM39.3541 35.3457L38.1798 33.7344C42.3998 30.6589 43.3179 25.173 40.6721 21.5425L42.2834 20.3683L43.8947 19.194C48.0005 24.8279 46.2959 32.7537 40.5283 36.957L39.3541 35.3457ZM42.2834 20.3683L40.6721 21.5426C38.0264 17.9124 32.5234 17.1067 28.3033 20.1821L27.1291 18.5708L25.9548 16.9595C31.7223 12.7565 39.7887 13.5602 43.8947 19.1939L42.2834 20.3683ZM27.1291 18.5708L28.3034 20.1821C28.166 20.2822 28.0306 20.3865 27.8968 20.4947L26.6435 18.944L25.3902 17.3934C25.572 17.2464 25.7602 17.1013 25.9548 16.9595L27.1291 18.5708ZM26.6435 18.944L24.9472 19.9918C24.8116 19.7724 24.6792 19.5709 24.5427 19.3837L26.1541 18.2095L27.7654 17.0353C27.9787 17.328 28.1686 17.6191 28.3398 17.8963L26.6435 18.944ZM26.1541 18.2095L24.5428 19.3838C21.5669 15.3003 16.0289 14.4057 12.2028 17.194L11.0286 15.5827L9.8543 13.9714C15.5586 9.81428 23.5654 11.272 27.7654 17.0352L26.1541 18.2095Z" fill="#D4F75F" mask="url(#path-2-inside-1_1761_11592)"/>
</svg>
