<svg width="297" height="266" viewBox="0 0 297 266" fill="none" xmlns="http://www.w3.org/2000/svg">
<circle cx="148.107" cy="144.103" r="93.9545" transform="rotate(-30 148.107 144.103)" stroke="#1B1B1B" stroke-width="2.36014"/>
<circle cx="147.791" cy="143.786" r="62.2599" transform="rotate(-30 147.791 143.786)" stroke="#1B1B1B" stroke-width="1.41608"/>
<mask id="path-3-inside-1_2246_5774" fill="white">
<path d="M142.074 224.487L138.799 223.735C139.448 221.327 139.989 219.049 140.649 216.256C140.89 215.207 141.207 214.079 141.507 213.024L141.401 212.98C140.745 213.896 139.999 214.867 139.236 215.661L132.891 222.38L131.364 222.03L128.477 212.825C128.126 211.737 127.874 210.556 127.67 209.502L127.533 209.509C127.322 210.681 127.113 211.931 126.851 213.072C126.203 215.984 125.775 218.017 125.254 220.629L122.254 219.941C122.783 217.97 123.262 215.968 123.933 213.042C124.625 210.024 125.08 207.959 125.438 206.143L129.818 207.147C130.382 208.826 131.304 212.156 132.398 215.662C132.671 216.499 132.961 217.515 133.214 218.522L133.288 218.539C133.951 217.761 134.632 216.988 135.246 216.334C137.709 213.703 140.081 211.051 141.302 209.781L145.222 210.68C144.753 212.471 144.262 214.528 143.569 217.546C142.898 220.472 142.457 222.482 142.074 224.487ZM157.199 218.647C158.137 218.54 159.432 218.393 160.63 218.238C159.749 216.837 158.842 215.382 158.08 214.195C157.324 213.065 156.832 212.247 156.457 211.624C156.232 212.315 155.917 213.225 155.46 214.55C155.003 215.876 154.442 217.46 153.914 219.002C155.079 218.888 156.318 218.747 157.199 218.647ZM167.621 222.896L163.644 223.348C163.418 222.861 162.76 221.758 161.96 220.405C160.345 220.569 158.731 220.753 157.456 220.898C156.311 221.028 154.623 221.221 153.068 221.417C152.584 222.84 152.17 224.046 151.994 224.674L148.299 225.095C149.859 221.44 153.136 212.496 153.882 210.207L158.723 209.656C160.134 211.871 165.129 219.531 167.621 222.896ZM179.125 215.434C182.253 214.058 183.268 212.332 181.891 209.204C180.545 206.145 178.742 205.845 175.545 207.252C173.972 207.944 172.545 208.593 171.23 209.213C171.758 210.507 172.41 212.035 173.003 213.383C173.787 215.163 174.304 216.339 174.739 217.282C176.358 216.693 177.431 216.179 179.125 215.434ZM167.099 208.122L174.599 204.822C179.991 202.449 182.886 203.403 184.841 207.844C186.833 212.372 185.764 215.38 180.268 217.798L172.803 221.084C172.063 219.264 171.219 217.345 170.01 214.597C168.801 211.85 167.881 209.759 167.099 208.122ZM184.199 199.973L195.338 190.454C195.508 190.682 195.839 191.069 196.097 191.371C196.366 191.687 196.734 192.117 196.945 192.335C194.15 194.673 190.564 197.713 188.31 199.639L190.567 202.28C193.266 199.974 196.797 196.957 198.983 195.039C199.312 195.453 200.097 196.372 200.465 196.802C198.258 198.638 194.674 201.651 191.99 203.945L194.283 206.629C196.551 204.691 200.214 201.537 202.845 199.239C203.039 199.495 203.407 199.926 203.701 200.27C203.959 200.572 204.315 200.988 204.538 201.22L193.399 210.738C192.266 209.297 190.819 207.603 188.856 205.306C186.906 203.024 185.397 201.258 184.199 199.973ZM215.544 186.876L213.784 189.739C211.948 188.543 210.339 187.554 207.782 185.982C205.209 184.399 203.6 183.41 201.721 182.321L203.482 179.458C205.276 180.65 206.894 181.623 209.467 183.206C212.008 184.768 213.623 185.783 215.544 186.876ZM209.329 163.652L210.344 160.727C211.901 161.307 214.161 162.111 216.997 163.094C219.94 164.116 221.92 164.802 223.716 165.386L222.609 168.579C220.978 169.072 215.687 171.593 211.855 173.422C210.931 173.84 209.976 174.229 209.101 174.505C210.179 174.799 211.226 175.122 212.237 175.433C215.858 176.689 218.355 177.555 219.391 177.854L218.357 180.833C216.597 180.203 214.541 179.449 211.687 178.459C208.85 177.475 206.71 176.733 204.979 176.192L206.253 172.518C207.518 172.157 213.255 169.331 216.827 167.732C217.631 167.372 218.501 167.054 219.345 166.867L219.34 166.825C218.31 166.568 217.292 166.275 216.383 165.959C213.529 164.969 210.537 163.971 209.329 163.652Z"/>
</mask>
<path d="M142.074 224.487L138.799 223.735C139.448 221.327 139.989 219.049 140.649 216.256C140.89 215.207 141.207 214.079 141.507 213.024L141.401 212.98C140.745 213.896 139.999 214.867 139.236 215.661L132.891 222.38L131.364 222.03L128.477 212.825C128.126 211.737 127.874 210.556 127.67 209.502L127.533 209.509C127.322 210.681 127.113 211.931 126.851 213.072C126.203 215.984 125.775 218.017 125.254 220.629L122.254 219.941C122.783 217.97 123.262 215.968 123.933 213.042C124.625 210.024 125.08 207.959 125.438 206.143L129.818 207.147C130.382 208.826 131.304 212.156 132.398 215.662C132.671 216.499 132.961 217.515 133.214 218.522L133.288 218.539C133.951 217.761 134.632 216.988 135.246 216.334C137.709 213.703 140.081 211.051 141.302 209.781L145.222 210.68C144.753 212.471 144.262 214.528 143.569 217.546C142.898 220.472 142.457 222.482 142.074 224.487ZM157.199 218.647C158.137 218.54 159.432 218.393 160.63 218.238C159.749 216.837 158.842 215.382 158.08 214.195C157.324 213.065 156.832 212.247 156.457 211.624C156.232 212.315 155.917 213.225 155.46 214.55C155.003 215.876 154.442 217.46 153.914 219.002C155.079 218.888 156.318 218.747 157.199 218.647ZM167.621 222.896L163.644 223.348C163.418 222.861 162.76 221.758 161.96 220.405C160.345 220.569 158.731 220.753 157.456 220.898C156.311 221.028 154.623 221.221 153.068 221.417C152.584 222.84 152.17 224.046 151.994 224.674L148.299 225.095C149.859 221.44 153.136 212.496 153.882 210.207L158.723 209.656C160.134 211.871 165.129 219.531 167.621 222.896ZM179.125 215.434C182.253 214.058 183.268 212.332 181.891 209.204C180.545 206.145 178.742 205.845 175.545 207.252C173.972 207.944 172.545 208.593 171.23 209.213C171.758 210.507 172.41 212.035 173.003 213.383C173.787 215.163 174.304 216.339 174.739 217.282C176.358 216.693 177.431 216.179 179.125 215.434ZM167.099 208.122L174.599 204.822C179.991 202.449 182.886 203.403 184.841 207.844C186.833 212.372 185.764 215.38 180.268 217.798L172.803 221.084C172.063 219.264 171.219 217.345 170.01 214.597C168.801 211.85 167.881 209.759 167.099 208.122ZM184.199 199.973L195.338 190.454C195.508 190.682 195.839 191.069 196.097 191.371C196.366 191.687 196.734 192.117 196.945 192.335C194.15 194.673 190.564 197.713 188.31 199.639L190.567 202.28C193.266 199.974 196.797 196.957 198.983 195.039C199.312 195.453 200.097 196.372 200.465 196.802C198.258 198.638 194.674 201.651 191.99 203.945L194.283 206.629C196.551 204.691 200.214 201.537 202.845 199.239C203.039 199.495 203.407 199.926 203.701 200.27C203.959 200.572 204.315 200.988 204.538 201.22L193.399 210.738C192.266 209.297 190.819 207.603 188.856 205.306C186.906 203.024 185.397 201.258 184.199 199.973ZM215.544 186.876L213.784 189.739C211.948 188.543 210.339 187.554 207.782 185.982C205.209 184.399 203.6 183.41 201.721 182.321L203.482 179.458C205.276 180.65 206.894 181.623 209.467 183.206C212.008 184.768 213.623 185.783 215.544 186.876ZM209.329 163.652L210.344 160.727C211.901 161.307 214.161 162.111 216.997 163.094C219.94 164.116 221.92 164.802 223.716 165.386L222.609 168.579C220.978 169.072 215.687 171.593 211.855 173.422C210.931 173.84 209.976 174.229 209.101 174.505C210.179 174.799 211.226 175.122 212.237 175.433C215.858 176.689 218.355 177.555 219.391 177.854L218.357 180.833C216.597 180.203 214.541 179.449 211.687 178.459C208.85 177.475 206.71 176.733 204.979 176.192L206.253 172.518C207.518 172.157 213.255 169.331 216.827 167.732C217.631 167.372 218.501 167.054 219.345 166.867L219.34 166.825C218.31 166.568 217.292 166.275 216.383 165.959C213.529 164.969 210.537 163.971 209.329 163.652Z" fill="#1B1B1B"/>
<path d="M142.074 224.487L141.758 225.867L143.19 226.195L143.465 224.752L142.074 224.487ZM138.799 223.735L137.431 223.367L137.048 224.787L138.482 225.116L138.799 223.735ZM140.649 216.256L142.028 216.582L142.03 216.573L140.649 216.256ZM141.507 213.024L142.869 213.412L143.215 212.196L142.046 211.715L141.507 213.024ZM141.401 212.98L141.94 211.671L140.903 211.244L140.249 212.156L141.401 212.98ZM139.236 215.661L138.216 214.679L138.207 214.689L139.236 215.661ZM132.891 222.38L132.575 223.761L133.364 223.942L133.921 223.353L132.891 222.38ZM131.364 222.03L130.012 222.454L130.255 223.229L131.047 223.41L131.364 222.03ZM128.477 212.825L129.828 212.402L129.825 212.39L128.477 212.825ZM127.67 209.502L129.06 209.233L128.826 208.023L127.595 208.088L127.67 209.502ZM127.533 209.509L127.458 208.095L126.338 208.155L126.139 209.259L127.533 209.509ZM126.851 213.072L125.471 212.756L125.469 212.765L126.851 213.072ZM125.254 220.629L124.937 222.009L126.357 222.335L126.642 220.906L125.254 220.629ZM122.254 219.941L120.886 219.573L120.505 220.993L121.937 221.321L122.254 219.941ZM125.438 206.143L125.755 204.762L124.331 204.436L124.049 205.868L125.438 206.143ZM129.818 207.147L131.16 206.696L130.908 205.944L130.134 205.767L129.818 207.147ZM132.398 215.662L131.046 216.084L131.049 216.092L131.052 216.1L132.398 215.662ZM133.214 218.522L131.841 218.867L132.052 219.709L132.898 219.902L133.214 218.522ZM133.288 218.539L132.971 219.919L133.809 220.111L134.366 219.457L133.288 218.539ZM135.246 216.334L136.278 217.305L136.28 217.302L135.246 216.334ZM141.302 209.781L141.618 208.401L140.837 208.221L140.281 208.799L141.302 209.781ZM145.222 210.68L146.591 211.039L146.961 209.626L145.538 209.3L145.222 210.68ZM142.074 224.487L142.391 223.106L139.115 222.355L138.799 223.735L138.482 225.116L141.758 225.867L142.074 224.487ZM138.799 223.735L140.166 224.104C140.822 221.671 141.368 219.373 142.028 216.582L140.649 216.256L139.271 215.931C138.611 218.726 138.074 220.983 137.431 223.367L138.799 223.735ZM140.649 216.256L142.03 216.573C142.261 215.564 142.568 214.469 142.869 213.412L141.507 213.024L140.145 212.637C139.846 213.689 139.519 214.85 139.269 215.94L140.649 216.256ZM141.507 213.024L142.046 211.715L141.94 211.671L141.401 212.98L140.862 214.29L140.968 214.334L141.507 213.024ZM141.401 212.98L140.249 212.156C139.607 213.052 138.908 213.959 138.216 214.679L139.236 215.661L140.257 216.643C141.091 215.776 141.883 214.739 142.552 213.805L141.401 212.98ZM139.236 215.661L138.207 214.689L131.862 221.408L132.891 222.38L133.921 223.353L140.266 216.633L139.236 215.661ZM132.891 222.38L133.208 221L131.68 220.65L131.364 222.03L131.047 223.41L132.575 223.761L132.891 222.38ZM131.364 222.03L132.715 221.606L129.828 212.402L128.477 212.825L127.126 213.249L130.012 222.454L131.364 222.03ZM128.477 212.825L129.825 212.39C129.501 211.388 129.262 210.276 129.06 209.233L127.67 209.502L126.28 209.771C126.486 210.836 126.751 212.087 127.129 213.26L128.477 212.825ZM127.67 209.502L127.595 208.088L127.458 208.095L127.533 209.509L127.608 210.923L127.745 210.916L127.67 209.502ZM127.533 209.509L126.139 209.259C125.924 210.457 125.723 211.658 125.471 212.756L126.851 213.072L128.231 213.389C128.503 212.205 128.72 210.906 128.926 209.76L127.533 209.509ZM126.851 213.072L125.469 212.765C124.818 215.687 124.389 217.73 123.865 220.352L125.254 220.629L126.642 220.906C127.162 218.305 127.587 216.282 128.233 213.38L126.851 213.072ZM125.254 220.629L125.57 219.249L122.571 218.561L122.254 219.941L121.937 221.321L124.937 222.009L125.254 220.629ZM122.254 219.941L123.622 220.308C124.158 218.311 124.641 216.289 125.313 213.359L123.933 213.042L122.553 212.726C121.883 215.648 121.409 217.629 120.886 219.573L122.254 219.941ZM123.933 213.042L125.313 213.359C126.006 210.337 126.464 208.255 126.827 206.417L125.438 206.143L124.049 205.868C123.695 207.663 123.244 209.711 122.553 212.726L123.933 213.042ZM125.438 206.143L125.121 207.523L129.501 208.527L129.818 207.147L130.134 205.767L125.755 204.762L125.438 206.143ZM129.818 207.147L128.476 207.598C129.04 209.277 129.923 212.485 131.046 216.084L132.398 215.662L133.75 215.24C132.684 211.828 131.724 208.375 131.16 206.696L129.818 207.147ZM132.398 215.662L131.052 216.1C131.313 216.902 131.594 217.887 131.841 218.867L133.214 218.522L134.588 218.177C134.328 217.143 134.029 216.096 133.744 215.223L132.398 215.662ZM133.214 218.522L132.898 219.902L132.971 219.919L133.288 218.539L133.604 217.159L133.531 217.142L133.214 218.522ZM133.288 218.539L134.366 219.457C135.02 218.689 135.685 217.935 136.278 217.305L135.246 216.334L134.215 215.364C133.578 216.04 132.881 216.833 132.21 217.621L133.288 218.539ZM135.246 216.334L136.28 217.302C138.793 214.618 141.098 212.036 142.322 210.762L141.302 209.781L140.281 208.799C139.063 210.066 136.626 212.788 134.213 215.367L135.246 216.334ZM141.302 209.781L140.985 211.161L144.905 212.06L145.222 210.68L145.538 209.3L141.618 208.401L141.302 209.781ZM145.222 210.68L143.852 210.321C143.377 212.134 142.882 214.208 142.189 217.229L143.569 217.546L144.95 217.862C145.641 214.848 146.128 212.808 146.591 211.039L145.222 210.68ZM143.569 217.546L142.189 217.229C141.517 220.159 141.071 222.19 140.683 224.221L142.074 224.487L143.465 224.752C143.843 222.774 144.279 220.785 144.95 217.862L143.569 217.546ZM160.63 218.238L160.812 219.642L163.008 219.357L161.829 217.483L160.63 218.238ZM158.08 214.195L159.271 213.43L159.264 213.419L159.257 213.408L158.08 214.195ZM156.457 211.624L157.67 210.894L156.072 208.24L155.111 211.185L156.457 211.624ZM155.46 214.55L156.799 215.012L156.799 215.012L155.46 214.55ZM153.914 219.002L152.574 218.544L151.862 220.625L154.052 220.411L153.914 219.002ZM167.621 222.896L167.782 224.303L170.22 224.025L168.759 222.053L167.621 222.896ZM163.644 223.348L162.36 223.945L162.79 224.871L163.804 224.755L163.644 223.348ZM161.96 220.405L163.179 219.684L162.718 218.904L161.816 218.996L161.96 220.405ZM153.068 221.417L152.891 220.012L152.012 220.122L151.727 220.961L153.068 221.417ZM151.994 224.674L152.154 226.081L153.102 225.973L153.358 225.055L151.994 224.674ZM148.299 225.095L146.996 224.539L146.041 226.777L148.459 226.502L148.299 225.095ZM153.882 210.207L153.722 208.8L152.818 208.903L152.536 209.768L153.882 210.207ZM158.723 209.656L159.917 208.895L159.441 208.149L158.562 208.249L158.723 209.656ZM157.199 218.647L157.359 220.054C158.296 219.947 159.601 219.799 160.812 219.642L160.63 218.238L160.448 216.833C159.262 216.987 157.979 217.133 157.039 217.24L157.199 218.647ZM160.63 218.238L161.829 217.483C160.953 216.091 160.038 214.624 159.271 213.43L158.08 214.195L156.888 214.96C157.646 216.14 158.545 217.582 159.432 218.992L160.63 218.238ZM158.08 214.195L159.257 213.408C158.521 212.307 158.042 211.512 157.67 210.894L156.457 211.624L155.244 212.355C155.622 212.982 156.128 213.823 156.903 214.982L158.08 214.195ZM156.457 211.624L155.111 211.185C154.89 211.862 154.581 212.757 154.121 214.088L155.46 214.55L156.799 215.012C157.254 213.693 157.573 212.769 157.803 212.064L156.457 211.624ZM155.46 214.55L154.121 214.088C153.672 215.39 153.1 217.007 152.574 218.544L153.914 219.002L155.254 219.46C155.784 217.912 156.333 216.361 156.799 215.012L155.46 214.55ZM153.914 219.002L154.052 220.411C155.23 220.296 156.479 220.154 157.359 220.054L157.199 218.647L157.039 217.24C156.156 217.341 154.929 217.48 153.777 217.593L153.914 219.002ZM167.621 222.896L167.461 221.489L163.484 221.941L163.644 223.348L163.804 224.755L167.782 224.303L167.621 222.896ZM163.644 223.348L164.928 222.752C164.663 222.181 163.949 220.986 163.179 219.684L161.96 220.405L160.741 221.125C161.572 222.53 162.172 223.541 162.36 223.945L163.644 223.348ZM161.96 220.405L161.816 218.996C160.191 219.162 158.57 219.346 157.295 219.491L157.456 220.898L157.616 222.305C158.892 222.16 160.498 221.977 162.104 221.813L161.96 220.405ZM157.456 220.898L157.295 219.491C156.152 219.621 154.455 219.814 152.891 220.012L153.068 221.417L153.245 222.822C154.79 222.627 156.47 222.436 157.616 222.305L157.456 220.898ZM153.068 221.417L151.727 220.961C151.253 222.356 150.82 223.616 150.63 224.293L151.994 224.674L153.358 225.055C153.52 224.476 153.915 223.324 154.408 221.873L153.068 221.417ZM151.994 224.674L151.834 223.267L148.138 223.688L148.299 225.095L148.459 226.502L152.154 226.081L151.994 224.674ZM148.299 225.095L149.601 225.651C151.18 221.952 154.471 212.969 155.229 210.646L153.882 210.207L152.536 209.768C151.8 212.024 148.538 220.928 146.996 224.539L148.299 225.095ZM153.882 210.207L154.043 211.614L158.883 211.063L158.723 209.656L158.562 208.249L153.722 208.8L153.882 210.207ZM158.723 209.656L157.528 210.417C158.938 212.629 163.958 220.329 166.483 223.739L167.621 222.896L168.759 222.053C166.301 218.733 161.33 211.113 159.917 208.895L158.723 209.656ZM181.891 209.204L180.595 209.775L181.891 209.204ZM171.23 209.213L170.626 207.932L169.411 208.505L169.919 209.748L171.23 209.213ZM174.739 217.282L173.454 217.875L174 219.057L175.223 218.612L174.739 217.282ZM167.099 208.122L166.528 206.826L165.191 207.415L165.821 208.733L167.099 208.122ZM172.803 221.084L171.49 221.616L172.039 222.967L173.373 222.38L172.803 221.084ZM179.125 215.434L179.695 216.73C181.352 216.001 182.78 215.048 183.476 213.584C184.2 212.06 183.955 210.378 183.187 208.634L181.891 209.204L180.595 209.775C181.204 211.159 181.139 211.903 180.918 212.368C180.669 212.893 180.025 213.491 178.554 214.138L179.125 215.434ZM181.891 209.204L183.187 208.634C182.441 206.939 181.407 205.636 179.789 205.189C178.269 204.769 176.625 205.23 174.975 205.956L175.545 207.252L176.115 208.548C177.662 207.868 178.518 207.776 179.035 207.919C179.455 208.034 179.995 208.41 180.595 209.775L181.891 209.204ZM175.545 207.252L174.975 205.956C173.392 206.652 171.954 207.306 170.626 207.932L171.23 209.213L171.834 210.494C173.137 209.88 174.552 209.236 176.115 208.548L175.545 207.252ZM171.23 209.213L169.919 209.748C170.453 211.056 171.11 212.597 171.707 213.954L173.003 213.383L174.299 212.813C173.71 211.474 173.064 209.958 172.541 208.678L171.23 209.213ZM173.003 213.383L171.707 213.954C172.488 215.729 173.012 216.918 173.454 217.875L174.739 217.282L176.025 216.688C175.596 215.759 175.085 214.598 174.299 212.813L173.003 213.383ZM174.739 217.282L175.223 218.612C176.899 218.003 178.038 217.46 179.695 216.73L179.125 215.434L178.554 214.138C176.825 214.899 175.816 215.383 174.255 215.951L174.739 217.282ZM167.099 208.122L167.669 209.418L175.169 206.118L174.599 204.822L174.029 203.526L166.528 206.826L167.099 208.122ZM174.599 204.822L175.169 206.118C177.772 204.973 179.451 204.786 180.599 205.133C181.675 205.459 182.645 206.371 183.545 208.415L184.841 207.844L186.137 207.274C185.081 204.876 183.627 203.091 181.419 202.422C179.283 201.776 176.818 202.298 174.029 203.526L174.599 204.822ZM184.841 207.844L183.545 208.415C184.47 210.518 184.541 211.951 184.064 213.047C183.571 214.181 182.326 215.346 179.698 216.502L180.268 217.798L180.839 219.094C183.706 217.833 185.744 216.285 186.661 214.178C187.594 212.034 187.204 209.699 186.137 207.274L184.841 207.844ZM180.268 217.798L179.698 216.502L172.232 219.788L172.803 221.084L173.373 222.38L180.839 219.094L180.268 217.798ZM172.803 221.084L174.115 220.551C173.366 218.708 172.513 216.769 171.306 214.027L170.01 214.597L168.714 215.168C169.926 217.922 170.761 219.819 171.49 221.616L172.803 221.084ZM170.01 214.597L171.306 214.027C170.101 211.287 169.17 209.173 168.376 207.512L167.099 208.122L165.821 208.733C166.591 210.345 167.501 212.412 168.714 215.168L170.01 214.597ZM184.199 199.973L183.279 198.896L182.155 199.856L183.163 200.938L184.199 199.973ZM195.338 190.454L196.474 189.608L195.569 188.394L194.418 189.378L195.338 190.454ZM196.945 192.335L197.854 193.421L199.022 192.443L197.962 191.349L196.945 192.335ZM188.31 199.639L187.39 198.562L186.314 199.482L187.233 200.559L188.31 199.639ZM190.567 202.28L189.49 203.2L190.41 204.276L191.487 203.357L190.567 202.28ZM198.983 195.039L200.091 194.158L199.167 192.994L198.049 193.974L198.983 195.039ZM200.465 196.802L201.371 197.891L202.474 196.973L201.541 195.882L200.465 196.802ZM191.99 203.945L191.07 202.869L189.993 203.788L190.913 204.865L191.99 203.945ZM194.283 206.629L193.207 207.549L194.127 208.626L195.203 207.706L194.283 206.629ZM202.845 199.239L203.974 198.384L203.057 197.174L201.913 198.172L202.845 199.239ZM203.701 200.27L202.625 201.19L203.701 200.27ZM204.538 201.22L205.458 202.296L206.599 201.321L205.558 200.238L204.538 201.22ZM193.399 210.738L192.285 211.613L193.197 212.773L194.319 211.815L193.399 210.738ZM184.199 199.973L185.119 201.049L196.258 191.531L195.338 190.454L194.418 189.378L183.279 198.896L184.199 199.973ZM195.338 190.454L194.203 191.3C194.408 191.576 194.778 192.008 195.02 192.291L196.097 191.371L197.173 190.451C196.9 190.131 196.608 189.788 196.474 189.608L195.338 190.454ZM196.097 191.371L195.02 192.291C195.275 192.589 195.679 193.062 195.928 193.32L196.945 192.335L197.962 191.349C197.79 191.172 197.458 190.785 197.173 190.451L196.097 191.371ZM196.945 192.335L196.036 191.249C193.237 193.591 189.647 196.634 187.39 198.562L188.31 199.639L189.23 200.715C191.481 198.792 195.063 195.756 197.854 193.421L196.945 192.335ZM188.31 199.639L187.233 200.559L189.49 203.2L190.567 202.28L191.644 201.36L189.387 198.719L188.31 199.639ZM190.567 202.28L191.487 203.357C194.182 201.053 197.722 198.029 199.917 196.103L198.983 195.039L198.049 193.974C195.871 195.885 192.349 198.895 189.647 201.203L190.567 202.28ZM198.983 195.039L197.874 195.92C198.223 196.359 199.03 197.303 199.388 197.722L200.465 196.802L201.541 195.882C201.164 195.441 200.401 194.547 200.091 194.158L198.983 195.039ZM200.465 196.802L199.559 195.714C197.349 197.553 193.76 200.57 191.07 202.869L191.99 203.945L192.91 205.022C195.588 202.733 199.168 199.724 201.371 197.891L200.465 196.802ZM191.99 203.945L190.913 204.865L193.207 207.549L194.283 206.629L195.36 205.709L193.066 203.025L191.99 203.945ZM194.283 206.629L195.203 207.706C197.474 205.766 201.141 202.608 203.776 200.306L202.845 199.239L201.913 198.172C199.287 200.466 195.629 203.617 193.364 205.553L194.283 206.629ZM202.845 199.239L201.716 200.094C201.942 200.392 202.344 200.862 202.625 201.19L203.701 200.27L204.778 199.35C204.47 198.99 204.136 198.598 203.974 198.384L202.845 199.239ZM203.701 200.27L202.625 201.19C202.87 201.477 203.258 201.932 203.517 202.201L204.538 201.22L205.558 200.238C205.371 200.044 205.048 199.667 204.778 199.35L203.701 200.27ZM204.538 201.22L203.618 200.143L192.479 209.662L193.399 210.738L194.319 211.815L205.458 202.296L204.538 201.22ZM193.399 210.738L194.512 209.863C193.358 208.394 191.888 206.674 189.933 204.386L188.856 205.306L187.78 206.226C189.75 208.532 191.175 210.2 192.285 211.613L193.399 210.738ZM188.856 205.306L189.933 204.386C187.991 202.114 186.459 200.321 185.235 199.007L184.199 199.973L183.163 200.938C184.336 202.196 185.821 203.934 187.78 206.226L188.856 205.306ZM215.544 186.876L216.75 187.618L217.518 186.37L216.244 185.645L215.544 186.876ZM213.784 189.739L213.011 190.926L214.229 191.719L214.99 190.481L213.784 189.739ZM201.721 182.321L200.515 181.579L199.754 182.817L201.011 183.546L201.721 182.321ZM203.482 179.458L204.266 178.279L203.044 177.467L202.276 178.716L203.482 179.458ZM215.544 186.876L214.338 186.134L212.577 188.997L213.784 189.739L214.99 190.481L216.75 187.618L215.544 186.876ZM213.784 189.739L214.556 188.552C212.702 187.345 211.078 186.346 208.524 184.775L207.782 185.982L207.04 187.188C209.6 188.762 211.193 189.742 213.011 190.926L213.784 189.739ZM207.782 185.982L208.524 184.775C205.954 183.195 204.329 182.196 202.431 181.096L201.721 182.321L201.011 183.546C202.872 184.624 204.464 185.603 207.04 187.188L207.782 185.982ZM201.721 182.321L202.927 183.063L204.688 180.2L203.482 179.458L202.276 178.716L200.515 181.579L201.721 182.321ZM203.482 179.458L202.698 180.638C204.519 181.847 206.168 182.839 208.725 184.412L209.467 183.206L210.209 181.999C207.62 180.407 206.033 179.453 204.266 178.279L203.482 179.458ZM209.467 183.206L208.725 184.412C211.252 185.965 212.896 186.999 214.844 188.107L215.544 186.876L216.244 185.645C214.35 184.568 212.765 183.571 210.209 181.999L209.467 183.206ZM209.329 163.652L207.991 163.188L207.49 164.631L208.967 165.021L209.329 163.652ZM210.344 160.727L210.838 159.4L209.481 158.894L209.006 160.262L210.344 160.727ZM216.997 163.094L216.533 164.432L216.997 163.094ZM223.716 165.386L225.054 165.85L225.528 164.485L224.154 164.039L223.716 165.386ZM222.609 168.579L223.019 169.934L223.71 169.725L223.946 169.043L222.609 168.579ZM211.855 173.422L212.439 174.712L212.452 174.706L212.465 174.7L211.855 173.422ZM209.101 174.505L208.675 173.154L204.08 174.603L208.729 175.871L209.101 174.505ZM212.237 175.433L212.701 174.095L212.677 174.087L212.653 174.079L212.237 175.433ZM219.391 177.854L220.729 178.319L221.218 176.908L219.784 176.494L219.391 177.854ZM218.357 180.833L217.88 182.167L219.226 182.649L219.695 181.298L218.357 180.833ZM204.979 176.192L203.641 175.728L203.162 177.108L204.557 177.544L204.979 176.192ZM206.253 172.518L205.865 171.156L205.157 171.358L204.916 172.053L206.253 172.518ZM216.827 167.732L217.405 169.025L217.406 169.024L216.827 167.732ZM219.345 166.867L219.651 168.25L220.917 167.97L220.749 166.684L219.345 166.867ZM219.34 166.825L220.744 166.642L220.619 165.685L219.683 165.451L219.34 166.825ZM209.329 163.652L210.667 164.116L211.682 161.191L210.344 160.727L209.006 160.262L207.991 163.188L209.329 163.652ZM210.344 160.727L209.849 162.053C211.422 162.639 213.693 163.447 216.533 164.432L216.997 163.094L217.461 161.757C214.628 160.774 212.381 159.974 210.838 159.4L210.344 160.727ZM216.997 163.094L216.533 164.432C219.471 165.452 221.466 166.144 223.279 166.732L223.716 165.386L224.154 164.039C222.374 163.461 220.409 162.779 217.461 161.757L216.997 163.094ZM223.716 165.386L222.378 164.921L221.271 168.114L222.609 168.579L223.946 169.043L225.054 165.85L223.716 165.386ZM222.609 168.579L222.198 167.223C221.27 167.504 219.441 168.307 217.467 169.213C215.45 170.138 213.16 171.23 211.245 172.144L211.855 173.422L212.465 174.7C214.383 173.785 216.654 172.702 218.648 171.787C220.685 170.852 222.317 170.147 223.019 169.934L222.609 168.579ZM211.855 173.422L211.271 172.132C210.374 172.538 209.477 172.902 208.675 173.154L209.101 174.505L209.527 175.855C210.476 175.556 211.487 175.143 212.439 174.712L211.855 173.422ZM209.101 174.505L208.729 175.871C209.78 176.158 210.805 176.474 211.821 176.786L212.237 175.433L212.653 174.079C211.646 173.77 210.577 173.439 209.474 173.139L209.101 174.505ZM212.237 175.433L211.773 176.771C215.366 178.017 217.916 178.902 218.998 179.215L219.391 177.854L219.784 176.494C218.795 176.208 216.35 175.361 212.701 174.095L212.237 175.433ZM219.391 177.854L218.053 177.39L217.019 180.369L218.357 180.833L219.695 181.298L220.729 178.319L219.391 177.854ZM218.357 180.833L218.835 179.5C217.084 178.873 215.014 178.115 212.151 177.121L211.687 178.459L211.222 179.797C214.067 180.784 216.111 181.533 217.88 182.167L218.357 180.833ZM211.687 178.459L212.151 177.121C209.323 176.14 207.158 175.389 205.401 174.841L204.979 176.192L204.557 177.544C206.262 178.076 208.378 178.81 211.222 179.797L211.687 178.459ZM204.979 176.192L206.316 176.656L207.591 172.982L206.253 172.518L204.916 172.053L203.641 175.728L204.979 176.192ZM206.253 172.518L206.642 173.879C207.07 173.757 207.758 173.469 208.509 173.138C209.294 172.791 210.253 172.348 211.274 171.872C213.328 170.913 215.633 169.818 217.405 169.025L216.827 167.732L216.248 166.439C214.449 167.245 212.099 168.362 210.076 169.306C209.058 169.781 208.122 170.213 207.364 170.547C206.572 170.897 206.069 171.097 205.865 171.156L206.253 172.518ZM216.827 167.732L217.406 169.024C218.153 168.689 218.929 168.409 219.651 168.25L219.345 166.867L219.039 165.484C218.073 165.698 217.109 166.054 216.248 166.44L216.827 167.732ZM219.345 166.867L220.749 166.684L220.744 166.642L219.34 166.825L217.936 167.008L217.941 167.05L219.345 166.867ZM219.34 166.825L219.683 165.451C218.683 165.201 217.707 164.92 216.847 164.621L216.383 165.959L215.919 167.297C216.878 167.63 217.937 167.934 218.997 168.199L219.34 166.825ZM216.383 165.959L216.847 164.621C214.009 163.637 210.962 162.619 209.691 162.283L209.329 163.652L208.967 165.021C210.113 165.324 213.048 166.301 215.919 167.297L216.383 165.959Z" fill="#1B1B1B" mask="url(#path-3-inside-1_2246_5774)"/>
<mask id="path-5-inside-2_2246_5774" fill="white">
<path d="M91.8841 105.905L90.5478 108.989C88.2985 107.911 86.1578 106.963 83.532 105.804C82.5445 105.377 81.4929 104.859 80.5106 104.372L80.4482 104.468C81.2284 105.28 82.0479 106.19 82.6889 107.085L88.138 114.55L87.5149 115.988L77.9379 117.147C76.8043 117.293 75.5968 117.326 74.5233 117.334L74.5054 117.47C75.6193 117.891 76.8101 118.325 77.8842 118.79C80.629 119.959 82.5497 120.75 85.0225 121.739L83.7988 124.563C81.9578 123.683 80.0769 122.848 77.3223 121.654C74.4811 120.423 72.5333 119.599 70.8129 118.916L72.5997 114.792C74.3535 114.544 77.7959 114.246 81.4421 113.809C82.3152 113.693 83.3668 113.594 84.4034 113.528L84.4335 113.459C83.7896 112.666 83.1532 111.855 82.623 111.131C80.4852 108.229 78.3098 105.414 77.2842 103.982L78.8833 100.292C80.5585 101.079 82.4914 101.938 85.3326 103.169C88.0872 104.362 89.9831 105.163 91.8841 105.905ZM95.0342 93.8414C95.6769 93.1498 96.5638 92.1955 97.3725 91.2975C95.7915 90.8076 94.1561 90.2931 92.8053 89.8883C91.4959 89.5221 90.5898 89.2213 89.9001 88.9927C90.1785 89.6639 90.5319 90.5594 91.0473 91.8632C91.5627 93.1669 92.1679 94.7346 92.7711 96.2489C93.5818 95.4042 94.4301 94.4914 95.0342 93.8414ZM105.712 90.2839L102.987 93.216C102.498 92.9934 101.281 92.5838 99.7925 92.0772C98.6733 93.2538 97.568 94.4432 96.6939 95.3837C95.9099 96.2274 94.7531 97.4722 93.7001 98.633C94.2589 100.029 94.7298 101.214 95.0053 101.805L92.4733 104.53C91.279 100.739 87.9461 91.8165 87.0229 89.5925L90.3391 86.0241C92.852 86.7871 101.63 89.3513 105.712 90.2839ZM112.595 83.5337C115.557 81.8288 116.381 80.0042 114.676 77.0424C113.008 74.146 111.184 74.0417 108.156 75.7843C106.667 76.6414 105.319 77.4396 104.077 78.1976C104.742 79.4274 105.554 80.8768 106.289 82.1532C107.259 83.8386 107.9 84.9514 108.434 85.842C109.98 85.083 110.992 84.4568 112.595 83.5337ZM99.8529 77.5575L106.955 73.4695C112.06 70.5307 115.041 71.1677 117.462 75.3732C119.93 79.6605 119.19 82.7659 113.987 85.7612L106.917 89.8304C105.987 88.1003 104.941 86.2839 103.444 83.6821C101.946 81.0802 100.806 79.1002 99.8529 77.5575ZM120.417 67.087L134.69 63.7766C134.735 64.0567 134.851 64.5533 134.94 64.9396C135.034 65.3442 135.162 65.896 135.249 66.186C131.69 66.9726 127.106 68.0165 124.219 68.6862L125.004 72.0705C128.461 71.2685 132.986 70.219 135.81 69.5253C135.911 70.0445 136.184 71.2217 136.312 71.7735C133.508 72.3851 128.938 73.4063 125.498 74.2041L126.296 77.6436C129.202 76.9695 133.907 75.859 137.301 75.033C137.355 75.3499 137.483 75.9017 137.585 76.3432C137.675 76.7294 137.799 77.2628 137.889 77.5712L123.617 80.8817C123.276 79.0805 122.773 76.9102 122.09 73.9673C121.412 71.0428 120.887 68.7805 120.417 67.087ZM151.575 77.554L148.226 77.2676C148.469 75.0901 148.63 73.2089 148.886 70.2177C149.143 67.2077 149.304 65.3265 149.433 63.1582L152.782 63.4447C152.523 65.5829 152.381 67.4657 152.123 70.4757C151.869 73.4481 151.688 75.3465 151.575 77.554ZM171.958 68.6827L174.916 69.598C174.389 71.1741 173.662 73.4593 172.775 76.3272C171.854 79.3034 171.234 81.3055 170.712 83.1204L167.484 82.1214C166.935 80.5088 164.236 75.3059 162.28 71.538C161.83 70.6281 161.409 69.6876 161.104 68.8223C160.847 69.9088 160.559 70.9661 160.283 71.9874C159.15 75.649 158.368 78.1742 158.104 79.2191L155.092 78.287C155.663 76.5069 156.346 74.4257 157.239 71.5397C158.127 68.6718 158.796 66.5073 159.278 64.759L162.994 65.9087C163.397 67.1601 166.416 72.7981 168.134 76.3143C168.522 77.1062 168.869 77.9646 169.084 78.802L169.126 78.7951C169.348 77.7571 169.606 76.7303 169.891 75.8104C170.784 72.9244 171.68 69.901 171.958 68.6827Z"/>
</mask>
<path d="M91.8841 105.905L90.5478 108.989C88.2985 107.911 86.1578 106.963 83.532 105.804C82.5445 105.377 81.4929 104.859 80.5106 104.372L80.4482 104.468C81.2284 105.28 82.0479 106.19 82.6889 107.085L88.138 114.55L87.5149 115.988L77.9379 117.147C76.8043 117.293 75.5968 117.326 74.5233 117.334L74.5054 117.47C75.6193 117.891 76.8101 118.325 77.8842 118.79C80.629 119.959 82.5497 120.75 85.0225 121.739L83.7988 124.563C81.9578 123.683 80.0769 122.848 77.3223 121.654C74.4811 120.423 72.5333 119.599 70.8129 118.916L72.5997 114.792C74.3535 114.544 77.7959 114.246 81.4421 113.809C82.3152 113.693 83.3668 113.594 84.4034 113.528L84.4335 113.459C83.7896 112.666 83.1532 111.855 82.623 111.131C80.4852 108.229 78.3098 105.414 77.2842 103.982L78.8833 100.292C80.5585 101.079 82.4914 101.938 85.3326 103.169C88.0872 104.362 89.9831 105.163 91.8841 105.905ZM95.0342 93.8414C95.6769 93.1498 96.5638 92.1955 97.3725 91.2975C95.7915 90.8076 94.1561 90.2931 92.8053 89.8883C91.4959 89.5221 90.5898 89.2213 89.9001 88.9927C90.1785 89.6639 90.5319 90.5594 91.0473 91.8632C91.5627 93.1669 92.1679 94.7346 92.7711 96.2489C93.5818 95.4042 94.4301 94.4914 95.0342 93.8414ZM105.712 90.2839L102.987 93.216C102.498 92.9934 101.281 92.5838 99.7925 92.0772C98.6733 93.2538 97.568 94.4432 96.6939 95.3837C95.9099 96.2274 94.7531 97.4722 93.7001 98.633C94.2589 100.029 94.7298 101.214 95.0053 101.805L92.4733 104.53C91.279 100.739 87.9461 91.8165 87.0229 89.5925L90.3391 86.0241C92.852 86.7871 101.63 89.3513 105.712 90.2839ZM112.595 83.5337C115.557 81.8288 116.381 80.0042 114.676 77.0424C113.008 74.146 111.184 74.0417 108.156 75.7843C106.667 76.6414 105.319 77.4396 104.077 78.1976C104.742 79.4274 105.554 80.8768 106.289 82.1532C107.259 83.8386 107.9 84.9514 108.434 85.842C109.98 85.083 110.992 84.4568 112.595 83.5337ZM99.8529 77.5575L106.955 73.4695C112.06 70.5307 115.041 71.1677 117.462 75.3732C119.93 79.6605 119.19 82.7659 113.987 85.7612L106.917 89.8304C105.987 88.1003 104.941 86.2839 103.444 83.6821C101.946 81.0802 100.806 79.1002 99.8529 77.5575ZM120.417 67.087L134.69 63.7766C134.735 64.0567 134.851 64.5533 134.94 64.9396C135.034 65.3442 135.162 65.896 135.249 66.186C131.69 66.9726 127.106 68.0165 124.219 68.6862L125.004 72.0705C128.461 71.2685 132.986 70.219 135.81 69.5253C135.911 70.0445 136.184 71.2217 136.312 71.7735C133.508 72.3851 128.938 73.4063 125.498 74.2041L126.296 77.6436C129.202 76.9695 133.907 75.859 137.301 75.033C137.355 75.3499 137.483 75.9017 137.585 76.3432C137.675 76.7294 137.799 77.2628 137.889 77.5712L123.617 80.8817C123.276 79.0805 122.773 76.9102 122.09 73.9673C121.412 71.0428 120.887 68.7805 120.417 67.087ZM151.575 77.554L148.226 77.2676C148.469 75.0901 148.63 73.2089 148.886 70.2177C149.143 67.2077 149.304 65.3265 149.433 63.1582L152.782 63.4447C152.523 65.5829 152.381 67.4657 152.123 70.4757C151.869 73.4481 151.688 75.3465 151.575 77.554ZM171.958 68.6827L174.916 69.598C174.389 71.1741 173.662 73.4593 172.775 76.3272C171.854 79.3034 171.234 81.3055 170.712 83.1204L167.484 82.1214C166.935 80.5088 164.236 75.3059 162.28 71.538C161.83 70.6281 161.409 69.6876 161.104 68.8223C160.847 69.9088 160.559 70.9661 160.283 71.9874C159.15 75.649 158.368 78.1742 158.104 79.2191L155.092 78.287C155.663 76.5069 156.346 74.4257 157.239 71.5397C158.127 68.6718 158.796 66.5073 159.278 64.759L162.994 65.9087C163.397 67.1601 166.416 72.7981 168.134 76.3143C168.522 77.1062 168.869 77.9646 169.084 78.802L169.126 78.7951C169.348 77.7571 169.606 76.7303 169.891 75.8104C170.784 72.9244 171.68 69.901 171.958 68.6827Z" fill="#1B1B1B"/>
<path d="M91.8841 105.905L93.1835 106.468L93.7678 105.12L92.3987 104.586L91.8841 105.905ZM90.5478 108.989L89.936 110.266L91.2624 110.901L91.8472 109.552L90.5478 108.989ZM83.532 105.804L84.1036 104.509L84.0951 104.505L83.532 105.804ZM80.5106 104.372L81.14 103.103L80.0079 102.541L79.3215 103.603L80.5106 104.372ZM80.4482 104.468L79.2592 103.699L78.65 104.641L79.4275 105.45L80.4482 104.468ZM82.6889 107.085L81.5375 107.91L81.5451 107.92L82.6889 107.085ZM88.138 114.55L89.4373 115.113L89.7595 114.369L89.2818 113.715L88.138 114.55ZM87.5149 115.988L87.685 117.394L88.4913 117.296L88.8142 116.551L87.5149 115.988ZM77.9379 117.147L77.7678 115.741L77.7562 115.742L77.9379 117.147ZM74.5233 117.334L74.5126 115.918L73.2798 115.927L73.1193 117.149L74.5233 117.334ZM74.5054 117.47L73.1014 117.286L72.9552 118.398L74.0048 118.795L74.5054 117.47ZM77.8842 118.79L77.3212 120.09L77.3294 120.093L77.8842 118.79ZM85.0225 121.739L86.3218 122.303L86.9011 120.966L85.5485 120.425L85.0225 121.739ZM83.7988 124.563L83.1881 125.841L84.5139 126.475L85.0981 125.126L83.7988 124.563ZM70.8129 118.916L69.5136 118.353L68.9331 119.692L70.2899 120.232L70.8129 118.916ZM72.5997 114.792L72.4012 113.39L71.6157 113.501L71.3003 114.229L72.5997 114.792ZM81.4421 113.809L81.6104 115.215L81.6191 115.214L81.6278 115.213L81.4421 113.809ZM84.4034 113.528L84.4924 114.942L85.3579 114.887L85.7028 114.091L84.4034 113.528ZM84.4335 113.459L85.7328 114.022L86.0744 113.234L85.533 112.567L84.4335 113.459ZM82.623 111.131L83.7654 110.294L83.7631 110.291L82.623 111.131ZM77.2842 103.982L75.9849 103.419L75.6661 104.155L76.1329 104.806L77.2842 103.982ZM78.8833 100.292L79.4858 99.0103L78.1645 98.389L77.5839 99.7287L78.8833 100.292ZM91.8841 105.905L90.5848 105.342L89.2485 108.426L90.5478 108.989L91.8472 109.552L93.1835 106.468L91.8841 105.905ZM90.5478 108.989L91.1597 107.712C88.8876 106.623 86.7276 105.666 84.1036 104.509L83.532 105.804L82.9604 107.1C85.588 108.259 87.7095 109.199 89.936 110.266L90.5478 108.989ZM83.532 105.804L84.0951 104.505C83.1457 104.094 82.125 103.592 81.14 103.103L80.5106 104.372L79.8812 105.64C80.8608 106.126 81.9433 106.659 82.969 107.104L83.532 105.804ZM80.5106 104.372L79.3215 103.603L79.2592 103.699L80.4482 104.468L81.6373 105.237L81.6997 105.141L80.5106 104.372ZM80.4482 104.468L79.4275 105.45C80.1918 106.244 80.9559 107.098 81.5376 107.91L82.6889 107.085L83.8402 106.261C83.1398 105.283 82.2651 104.315 81.469 103.487L80.4482 104.468ZM82.6889 107.085L81.5451 107.92L86.9943 115.385L88.138 114.55L89.2818 113.715L83.8326 106.25L82.6889 107.085ZM88.138 114.55L86.8387 113.987L86.2156 115.425L87.5149 115.988L88.8142 116.551L89.4373 115.113L88.138 114.55ZM87.5149 115.988L87.3448 114.582L77.7678 115.741L77.9379 117.147L78.1081 118.553L87.685 117.394L87.5149 115.988ZM77.9379 117.147L77.7562 115.742C76.7115 115.878 75.5747 115.91 74.5126 115.918L74.5233 117.334L74.5339 118.75C75.6189 118.742 76.8972 118.709 78.1196 118.551L77.9379 117.147ZM74.5233 117.334L73.1193 117.149L73.1014 117.286L74.5054 117.47L75.9094 117.655L75.9273 117.518L74.5233 117.334ZM74.5054 117.47L74.0048 118.795C75.1436 119.225 76.2873 119.642 77.3212 120.09L77.8842 118.79L78.4473 117.491C77.3329 117.008 76.0951 116.557 75.006 116.146L74.5054 117.47ZM77.8842 118.79L77.3294 120.093C80.0837 121.266 82.0141 122.061 84.4965 123.054L85.0225 121.739L85.5485 120.425C83.0853 119.439 81.1743 118.652 78.439 117.487L77.8842 118.79ZM85.0225 121.739L83.7232 121.176L82.4995 124L83.7988 124.563L85.0981 125.126L86.3218 122.303L85.0225 121.739ZM83.7988 124.563L84.4096 123.286C82.544 122.394 80.6436 121.55 77.8854 120.355L77.3223 121.654L76.7593 122.953C79.5103 124.145 81.3715 124.973 83.1881 125.841L83.7988 124.563ZM77.3223 121.654L77.8854 120.355C75.041 119.122 73.0771 118.292 71.336 117.6L70.8129 118.916L70.2899 120.232C71.9895 120.907 73.9212 121.724 76.7593 122.953L77.3223 121.654ZM70.8129 118.916L72.1123 119.479L73.899 115.355L72.5997 114.792L71.3003 114.229L69.5136 118.353L70.8129 118.916ZM72.5997 114.792L72.7982 116.194C74.552 115.946 77.867 115.663 81.6104 115.215L81.4421 113.809L81.2737 112.403C77.7247 112.828 74.155 113.142 72.4012 113.39L72.5997 114.792ZM81.4421 113.809L81.6278 115.213C82.4641 115.102 83.483 115.005 84.4924 114.942L84.4034 113.528L84.3145 112.115C83.2507 112.182 82.1664 112.285 81.2564 112.405L81.4421 113.809ZM84.4034 113.528L85.7028 114.091L85.7328 114.022L84.4335 113.459L83.1341 112.896L83.1041 112.965L84.4034 113.528ZM84.4335 113.459L85.533 112.567C84.8971 111.783 84.2765 110.992 83.7654 110.294L82.623 111.131L81.4807 111.968C82.0298 112.717 82.6821 113.548 83.3339 114.351L84.4335 113.459ZM82.623 111.131L83.7631 110.291C81.5824 107.331 79.4639 104.593 78.4355 103.157L77.2842 103.982L76.1329 104.806C77.1557 106.235 79.3881 109.128 81.483 111.971L82.623 111.131ZM77.2842 103.982L78.5836 104.545L80.1826 100.855L78.8833 100.292L77.5839 99.7287L75.9849 103.419L77.2842 103.982ZM78.8833 100.292L78.2807 101.573C79.9762 102.37 81.9252 103.236 84.7696 104.468L85.3326 103.169L85.8956 101.869C83.0576 100.64 81.1408 99.7885 79.4858 99.0103L78.8833 100.292ZM85.3326 103.169L84.7696 104.468C87.5278 105.663 89.4432 106.473 91.3696 107.224L91.8841 105.905L92.3987 104.586C90.5229 103.854 88.6466 103.062 85.8956 101.869L85.3326 103.169ZM97.3725 91.2975L98.4248 92.2451L99.9064 90.6L97.7916 89.9448L97.3725 91.2975ZM92.8053 89.8883L93.2117 88.5318L93.1992 88.5281L93.1867 88.5246L92.8053 89.8883ZM89.9001 88.9927L90.3455 87.6486L87.4051 86.6741L88.5921 89.5354L89.9001 88.9927ZM91.0473 91.8632L92.3642 91.3426L92.3642 91.3426L91.0473 91.8632ZM92.7711 96.2489L91.4555 96.7729L92.2696 98.8164L93.7927 97.2295L92.7711 96.2489ZM105.712 90.2839L106.749 91.2479L108.42 89.45L106.027 88.9034L105.712 90.2839ZM102.987 93.216L102.401 94.5049L103.33 94.9276L104.025 94.18L102.987 93.216ZM99.7925 92.0772L100.249 90.7367L99.3911 90.4446L98.7665 91.1012L99.7925 92.0772ZM93.7001 98.633L92.6513 97.6816L92.0564 98.3374L92.3855 99.1594L93.7001 98.633ZM95.0053 101.805L96.0427 102.769L96.6915 102.071L96.2889 101.207L95.0053 101.805ZM92.4733 104.53L91.1226 104.955L91.8539 107.276L93.5106 105.494L92.4733 104.53ZM87.0229 89.5925L85.9856 88.6285L85.3662 89.295L85.7151 90.1354L87.0229 89.5925ZM90.3391 86.0241L90.7505 84.6691L89.904 84.4121L89.3018 85.0601L90.3391 86.0241ZM95.0342 93.8414L96.0715 94.8053C96.7131 94.115 97.6074 93.1527 98.4248 92.2451L97.3725 91.2975L96.3203 90.3498C95.5201 91.2383 94.6407 92.1846 93.9969 92.8774L95.0342 93.8414ZM97.3725 91.2975L97.7916 89.9448C96.2201 89.4579 94.5709 88.9391 93.2117 88.5318L92.8053 89.8883L92.3988 91.2448C93.7412 91.647 95.3629 92.1573 96.9535 92.6501L97.3725 91.2975ZM92.8053 89.8883L93.1867 88.5246C91.9107 88.1677 91.0304 87.8755 90.3455 87.6486L89.9001 88.9927L89.4546 90.3369C90.1492 90.5671 91.0812 90.8765 92.4239 91.2521L92.8053 89.8883ZM89.9001 88.9927L88.5921 89.5354C88.8648 90.1927 89.2127 91.0741 89.7304 92.3838L91.0473 91.8632L92.3642 91.3426C91.8512 90.0447 91.4922 89.1351 91.2081 88.4501L89.9001 88.9927ZM91.0473 91.8632L89.7304 92.3838C90.2366 93.6644 90.8547 95.2646 91.4555 96.7729L92.7711 96.2489L94.0866 95.7248C93.481 94.2046 92.8887 92.6694 92.3642 91.3426L91.0473 91.8632ZM92.7711 96.2489L93.7927 97.2295C94.6126 96.3753 95.4685 95.4542 96.0715 94.8053L95.0342 93.8414L93.9969 92.8774C93.3918 93.5286 92.551 94.4332 91.7495 95.2683L92.7711 96.2489ZM105.712 90.2839L104.675 89.3199L101.95 92.252L102.987 93.216L104.025 94.18L106.749 91.2479L105.712 90.2839ZM102.987 93.216L103.574 91.9271C103.001 91.6665 101.681 91.2241 100.249 90.7367L99.7925 92.0772L99.3362 93.4177C100.881 93.9435 101.995 94.3204 102.401 94.5049L102.987 93.216ZM99.7925 92.0772L98.7665 91.1012C97.6408 92.2847 96.53 93.4799 95.6566 94.4197L96.6939 95.3837L97.7312 96.3477C98.6059 95.4066 99.7059 94.2229 100.819 93.0532L99.7925 92.0772ZM96.6939 95.3837L95.6566 94.4197C94.8734 95.2625 93.7109 96.5134 92.6513 97.6816L93.7001 98.633L94.749 99.5844C95.7953 98.4309 96.9464 97.1923 97.7312 96.3477L96.6939 95.3837ZM93.7001 98.633L92.3855 99.1594C92.9332 100.527 93.4248 101.766 93.7218 102.403L95.0053 101.805L96.2889 101.207C96.0349 100.662 95.5847 99.5301 95.0147 98.1066L93.7001 98.633ZM95.0053 101.805L93.968 100.841L91.4359 103.566L92.4733 104.53L93.5106 105.494L96.0427 102.769L95.0053 101.805ZM92.4733 104.53L93.8239 104.104C92.6152 100.268 89.2674 91.3059 88.3308 89.0496L87.0229 89.5925L85.7151 90.1354C86.6248 92.327 89.9427 101.21 91.1226 104.955L92.4733 104.53ZM87.0229 89.5925L88.0603 90.5565L91.3764 86.9881L90.3391 86.0241L89.3018 85.0601L85.9856 88.6285L87.0229 89.5925ZM90.3391 86.0241L89.9277 87.3791C92.4376 88.1412 101.26 90.7193 105.397 91.6644L105.712 90.2839L106.027 88.9034C102 87.9833 93.2664 85.433 90.7505 84.6691L90.3391 86.0241ZM114.676 77.0424L113.448 77.7488L114.676 77.0424ZM104.077 78.1976L103.339 76.9891L102.193 77.689L102.831 78.8706L104.077 78.1976ZM108.434 85.842L107.22 86.5706L107.89 87.6869L109.058 87.1131L108.434 85.842ZM99.8529 77.5575L99.1464 76.3303L97.8802 77.0591L98.6483 78.302L99.8529 77.5575ZM117.462 75.3732L116.235 76.0796L117.462 75.3732ZM106.917 89.8304L105.67 90.5011L106.361 91.7848L107.624 91.0576L106.917 89.8304ZM112.595 83.5337L113.302 84.761C114.871 83.8579 116.188 82.7565 116.723 81.2262C117.279 79.6333 116.854 77.9873 115.903 76.3359L114.676 77.0424L113.448 77.7488C114.203 79.0593 114.218 79.8065 114.049 80.2926C113.857 80.8414 113.282 81.5047 111.889 82.3065L112.595 83.5337ZM114.676 77.0424L115.903 76.3359C114.979 74.7312 113.811 73.5466 112.154 73.2761C110.598 73.022 109.013 73.6574 107.45 74.557L108.156 75.7843L108.863 77.0115C110.327 76.1685 111.168 75.9848 111.698 76.0713C112.128 76.1415 112.705 76.4571 113.448 77.7488L114.676 77.0424ZM108.156 75.7843L107.45 74.557C105.952 75.4193 104.593 76.2237 103.339 76.9891L104.077 78.1976L104.815 79.4061C106.045 78.6555 107.383 77.8636 108.863 77.0115L108.156 75.7843ZM104.077 78.1976L102.831 78.8706C103.503 80.1137 104.322 81.5744 105.062 82.8596L106.289 82.1532L107.516 81.4467C106.787 80.1791 105.98 78.741 105.323 77.5246L104.077 78.1976ZM106.289 82.1532L105.062 82.8596C106.029 84.5403 106.677 85.6663 107.22 86.5706L108.434 85.842L109.648 85.1133C109.122 84.2364 108.489 83.137 107.516 81.4467L106.289 82.1532ZM108.434 85.842L109.058 87.1131C110.659 86.3272 111.732 85.6645 113.302 84.761L112.595 83.5337L111.889 82.3065C110.251 83.2492 109.301 83.8388 107.81 84.5709L108.434 85.842ZM99.8529 77.5575L100.559 78.7848L107.661 74.6968L106.955 73.4695L106.248 72.2423L99.1464 76.3303L99.8529 77.5575ZM106.955 73.4695L107.661 74.6968C110.126 73.2782 111.774 72.9118 112.953 73.1339C114.058 73.3419 115.121 74.145 116.235 76.0796L117.462 75.3732L118.689 74.6667C117.382 72.3959 115.745 70.7777 113.477 70.3506C111.284 69.9375 108.889 70.7221 106.248 72.2423L106.955 73.4695ZM117.462 75.3732L116.235 76.0796C117.381 78.0709 117.606 79.4878 117.249 80.6294C116.881 81.8093 115.769 83.1015 113.28 84.5339L113.987 85.7612L114.693 86.9885C117.408 85.4256 119.268 83.6674 119.953 81.4739C120.65 79.2422 120.011 76.9627 118.689 74.6667L117.462 75.3732ZM113.987 85.7612L113.28 84.5339L106.211 88.6031L106.917 89.8304L107.624 91.0576L114.693 86.9885L113.987 85.7612ZM106.917 89.8304L108.165 89.1596C107.222 87.4077 106.165 85.5719 104.671 82.9756L103.444 83.6821L102.216 84.3885C103.717 86.9959 104.751 88.7928 105.67 90.5011L106.917 89.8304ZM103.444 83.6821L104.671 82.9756C103.178 80.3815 102.025 78.379 101.058 76.8131L99.8529 77.5575L98.6483 78.302C99.5873 79.8214 100.714 81.7789 102.216 84.3885L103.444 83.6821ZM120.417 67.087L120.097 65.7076L118.657 66.0416L119.053 67.466L120.417 67.087ZM134.69 63.7766L136.088 63.5491L135.844 62.0551L134.37 62.3971L134.69 63.7766ZM134.94 64.9396L133.561 65.2595L134.94 64.9396ZM135.249 66.186L135.554 67.5687L137.042 67.24L136.606 65.7806L135.249 66.186ZM124.219 68.6862L123.899 67.3068L122.519 67.6267L122.839 69.0062L124.219 68.6862ZM125.004 72.0705L123.624 72.3905L123.944 73.7699L125.324 73.45L125.004 72.0705ZM135.81 69.5253L137.2 69.2548L136.916 67.7954L135.472 68.1501L135.81 69.5253ZM136.312 71.7735L136.614 73.157L138.016 72.8512L137.692 71.4535L136.312 71.7735ZM125.498 74.2041L125.178 72.8246L123.799 73.1446L124.119 74.5241L125.498 74.2041ZM126.296 77.6436L124.917 77.9635L125.237 79.343L126.616 79.023L126.296 77.6436ZM137.301 75.033L138.697 74.7946L138.441 73.2981L136.966 73.6571L137.301 75.033ZM137.585 76.3432L138.965 76.0232L137.585 76.3432ZM137.889 77.5712L138.209 78.9507L139.672 78.6113L139.248 77.1708L137.889 77.5712ZM123.617 80.8817L122.225 81.1445L122.499 82.5946L123.937 82.2612L123.617 80.8817ZM120.417 67.087L120.737 68.4665L135.01 65.156L134.69 63.7766L134.37 62.3971L120.097 65.7076L120.417 67.087ZM134.69 63.7766L133.292 64.0041C133.347 64.3428 133.477 64.8971 133.561 65.2595L134.94 64.9396L136.32 64.6196C136.225 64.2096 136.124 63.7706 136.088 63.5491L134.69 63.7766ZM134.94 64.9396L133.561 65.2595C133.649 65.6412 133.789 66.2479 133.892 66.5914L135.249 66.186L136.606 65.7806C136.535 65.5441 136.419 65.0472 136.32 64.6196L134.94 64.9396ZM135.249 66.186L134.943 64.8033C131.379 65.5911 126.79 66.6361 123.899 67.3068L124.219 68.6862L124.539 70.0657C127.422 69.3968 132.002 68.3541 135.554 67.5687L135.249 66.186ZM124.219 68.6862L122.839 69.0062L123.624 72.3905L125.004 72.0705L126.383 71.7506L125.598 68.3663L124.219 68.6862ZM125.004 72.0705L125.324 73.45C128.777 72.6489 133.313 71.597 136.148 70.9005L135.81 69.5253L135.472 68.1501C132.659 68.8411 128.145 69.8881 124.684 70.6911L125.004 72.0705ZM135.81 69.5253L134.42 69.7958C134.527 70.3466 134.808 71.5562 134.933 72.0934L136.312 71.7735L137.692 71.4535C137.56 70.8872 137.295 69.7424 137.2 69.2548L135.81 69.5253ZM136.312 71.7735L136.01 70.3899C133.201 71.0026 128.625 72.0252 125.178 72.8246L125.498 74.2041L125.818 75.5836C129.251 74.7875 133.815 73.7676 136.614 73.157L136.312 71.7735ZM125.498 74.2041L124.119 74.5241L124.917 77.9635L126.296 77.6436L127.676 77.3236L126.878 73.8841L125.498 74.2041ZM126.296 77.6436L126.616 79.023C129.526 78.3482 134.235 77.2364 137.636 76.4089L137.301 75.033L136.966 73.6571C133.578 74.4816 128.879 75.5909 125.976 76.2641L126.296 77.6436ZM137.301 75.033L135.905 75.2714C135.968 75.6399 136.108 76.2424 136.206 76.6631L137.585 76.3432L138.965 76.0232C138.857 75.5611 138.742 75.06 138.697 74.7946L137.301 75.033ZM137.585 76.3432L136.206 76.6631C136.291 77.0302 136.426 77.6133 136.531 77.9716L137.889 77.5712L139.248 77.1708C139.172 76.9123 139.059 76.4286 138.965 76.0232L137.585 76.3432ZM137.889 77.5712L137.569 76.1917L123.297 79.5022L123.617 80.8817L123.937 82.2612L138.209 78.9507L137.889 77.5712ZM123.617 80.8817L125.008 80.6188C124.661 78.7824 124.15 76.5792 123.47 73.6474L122.09 73.9673L120.711 74.2873C121.396 77.2411 121.892 79.3786 122.225 81.1445L123.617 80.8817ZM122.09 73.9673L123.47 73.6474C122.794 70.7356 122.262 68.438 121.781 66.7081L120.417 67.087L119.053 67.466C119.513 69.1231 120.03 71.3501 120.711 74.2873L122.09 73.9673ZM151.575 77.554L151.454 78.9649L152.914 79.0898L152.989 77.6264L151.575 77.554ZM148.226 77.2676L146.819 77.1104L146.657 78.5546L148.105 78.6785L148.226 77.2676ZM149.433 63.1582L149.554 61.7473L148.105 61.6234L148.019 63.0744L149.433 63.1582ZM152.782 63.4447L154.187 63.6148L154.364 62.1588L152.902 62.0338L152.782 63.4447ZM151.575 77.554L151.695 76.1431L148.347 75.8566L148.226 77.2676L148.105 78.6785L151.454 78.9649L151.575 77.554ZM148.226 77.2676L149.633 77.4247C149.879 75.2259 150.041 73.3261 150.297 70.3384L148.886 70.2177L147.475 70.097C147.219 73.0917 147.059 74.9544 146.819 77.1104L148.226 77.2676ZM148.886 70.2177L150.297 70.3384C150.554 67.3321 150.717 65.4321 150.847 63.2421L149.433 63.1582L148.019 63.0744C147.892 65.2209 147.733 67.0834 147.475 70.097L148.886 70.2177ZM149.433 63.1582L149.312 64.5692L152.661 64.8556L152.782 63.4447L152.902 62.0338L149.554 61.7473L149.433 63.1582ZM152.782 63.4447L151.376 63.2746C151.113 65.4447 150.968 67.3631 150.712 70.355L152.123 70.4757L153.534 70.5964C153.793 67.5684 153.933 65.7211 154.187 63.6148L152.782 63.4447ZM152.123 70.4757L150.712 70.355C150.46 73.31 150.275 75.2429 150.16 77.4816L151.575 77.554L152.989 77.6264C153.1 75.4502 153.278 73.5861 153.534 70.5964L152.123 70.4757ZM171.958 68.6827L172.377 67.3299L170.918 66.8783L170.578 68.3674L171.958 68.6827ZM174.916 69.598L176.259 70.0472L176.719 68.6734L175.335 68.2452L174.916 69.598ZM170.712 83.1204L170.294 84.4732L171.674 84.9003L172.073 83.5119L170.712 83.1204ZM167.484 82.1214L166.143 82.5774L166.375 83.2608L167.065 83.4742L167.484 82.1214ZM162.28 71.538L161.01 72.1654L161.016 72.1781L161.023 72.1907L162.28 71.538ZM161.104 68.8223L162.439 68.351L160.836 63.8074L159.726 68.4962L161.104 68.8223ZM160.283 71.9874L161.635 72.406L161.643 72.3819L161.65 72.3574L160.283 71.9874ZM158.104 79.2191L157.686 80.5719L159.112 81.0131L159.477 79.566L158.104 79.2191ZM155.092 78.287L153.743 77.8548L153.307 79.217L154.673 79.6398L155.092 78.287ZM159.278 64.759L159.697 63.4062L158.301 62.9743L157.913 64.3829L159.278 64.759ZM162.994 65.9087L164.341 65.4743L164.116 64.7736L163.412 64.5559L162.994 65.9087ZM168.134 76.3143L166.862 76.9361L166.862 76.9366L168.134 76.3143ZM169.084 78.802L167.712 79.1545L168.035 80.4103L169.315 80.1992L169.084 78.802ZM169.126 78.7951L169.356 80.1923L170.308 80.0352L170.51 79.0918L169.126 78.7951ZM169.891 75.8104L168.538 75.3918L169.891 75.8104ZM171.958 68.6827L171.54 70.0355L174.498 70.9508L174.916 69.598L175.335 68.2452L172.377 67.3299L171.958 68.6827ZM174.916 69.598L173.573 69.1488C173.041 70.7402 172.31 73.0374 171.422 75.9086L172.775 76.3272L174.128 76.7458C175.014 73.8811 175.737 71.608 176.259 70.0472L174.916 69.598ZM172.775 76.3272L171.422 75.9086C170.503 78.88 169.878 80.8974 169.351 82.729L170.712 83.1204L172.073 83.5119C172.591 81.7136 173.205 79.7267 174.128 76.7458L172.775 76.3272ZM170.712 83.1204L171.131 81.7676L167.902 80.7686L167.484 82.1214L167.065 83.4742L170.294 84.4732L170.712 83.1204ZM167.484 82.1214L168.824 81.6653C168.512 80.7472 167.648 78.9463 166.676 77.004C165.683 75.0197 164.514 72.7676 163.536 70.8853L162.28 71.538L161.023 72.1907C162.002 74.0763 163.161 76.3096 164.143 78.2718C165.147 80.2762 165.907 81.883 166.143 82.5774L167.484 82.1214ZM162.28 71.538L163.549 70.9106C163.113 70.028 162.719 69.1431 162.439 68.351L161.104 68.8223L159.769 69.2936C160.1 70.2321 160.547 71.2281 161.01 72.1654L162.28 71.538ZM161.104 68.8223L159.726 68.4962C159.475 69.5566 159.194 70.5913 158.916 71.6174L160.283 71.9874L161.65 72.3574C161.925 71.341 162.219 70.2611 162.482 69.1484L161.104 68.8223ZM160.283 71.9874L158.93 71.5688C157.806 75.2019 157.007 77.7802 156.731 78.8722L158.104 79.2191L159.477 79.566C159.729 78.5682 160.494 76.096 161.635 72.406L160.283 71.9874ZM158.104 79.2191L158.523 77.8663L155.511 76.9342L155.092 78.287L154.673 79.6398L157.686 80.5719L158.104 79.2191ZM155.092 78.287L156.44 78.7192C157.008 76.9485 157.696 74.8534 158.592 71.9583L157.239 71.5397L155.886 71.1211C154.996 73.998 154.317 76.0653 153.743 77.8548L155.092 78.287ZM157.239 71.5397L158.592 71.9583C159.477 69.0988 160.154 66.9098 160.643 65.1351L159.278 64.759L157.913 64.3829C157.438 66.1049 156.776 68.2448 155.886 71.1211L157.239 71.5397ZM159.278 64.759L158.859 66.1118L162.575 67.2615L162.994 65.9087L163.412 64.5559L159.697 63.4062L159.278 64.759ZM162.994 65.9087L161.646 66.3432C161.782 66.7664 162.093 67.4444 162.45 68.1836C162.823 68.9572 163.298 69.9003 163.809 70.9041C164.836 72.9249 166.009 75.1914 166.862 76.9361L168.134 76.3143L169.406 75.6925C168.541 73.921 167.345 71.6104 166.333 69.6203C165.824 68.6187 165.36 67.6979 165.001 66.9525C164.624 66.1728 164.407 65.6768 164.341 65.4743L162.994 65.9087ZM168.134 76.3143L166.862 76.9366C167.222 77.6724 167.528 78.438 167.712 79.1545L169.084 78.802L170.455 78.4495C170.209 77.4912 169.821 76.5399 169.406 75.692L168.134 76.3143ZM169.084 78.802L169.315 80.1992L169.356 80.1923L169.126 78.7951L168.895 77.398L168.853 77.4048L169.084 78.802ZM169.126 78.7951L170.51 79.0918C170.726 78.0838 170.975 77.0992 171.244 76.229L169.891 75.8104L168.538 75.3918C168.238 76.3614 167.97 77.4305 167.741 78.4985L169.126 78.7951ZM169.891 75.8104L171.244 76.229C172.132 73.3594 173.046 70.2796 173.339 68.9979L171.958 68.6827L170.578 68.3674C170.314 69.5225 169.436 72.4894 168.538 75.3918L169.891 75.8104Z" fill="#1B1B1B" mask="url(#path-5-inside-2_2246_5774)"/>
<circle cx="147.81" cy="143.795" r="86.5043" transform="rotate(-30 147.81 143.795)" stroke="#1B1B1B" stroke-width="0.472028"/>
<circle cx="147.551" cy="143.647" r="56.1749" transform="rotate(-30 147.551 143.647)" stroke="#1B1B1B" stroke-width="0.472028"/>
<rect x="31.166" y="151.112" width="218.25" height="83.9423" rx="4.72028" transform="rotate(-24.8059 31.166 151.112)" fill="#FF6249"/>
<rect x="40.3933" y="154.508" width="205.466" height="71.1587" rx="4.48427" transform="rotate(-24.8059 40.3933 154.508)" stroke="#F7FCFD" stroke-width="0.472028"/>
<path d="M119.421 179.56L84.8682 195.53C84.6052 194.853 84.133 193.723 83.5246 192.407C83.0874 191.461 82.5519 190.41 82.0576 189.341C78.9968 182.718 82.5647 178.773 90.5657 173.078C97.5764 167.941 99.2847 166.452 98.125 163.943C97.3265 162.216 95.247 161.929 91.5038 163.659C87.1848 165.655 86.2141 167.551 87.2788 169.855C87.5259 170.39 87.7952 170.864 88.1405 171.503C86.7862 172.029 84.9162 172.844 82.9418 173.756C80.3915 174.935 78.2304 175.984 76.7434 176.871C76.2239 175.963 75.7423 175.137 75.3811 174.355C72.1111 167.28 76.2667 161.366 88.1132 155.891C100.536 150.149 107.161 151.63 110.012 157.8C112.978 164.217 110.432 167.89 101.555 173.74C94.4392 178.327 92.7341 179.714 93.0673 181.407C97.0794 179.503 101.832 177.256 104.588 175.982C108.619 174.119 112.264 172.285 115.333 170.717C115.881 172.011 116.658 173.798 117.456 175.526C118.217 177.171 118.901 178.652 119.421 179.56ZM154.58 143.891C159.865 155.326 155.676 163.652 142.308 169.831C128.939 176.01 120.13 173.691 114.845 162.256C109.578 150.862 114.939 143.342 127.444 137.563C139.907 131.802 149.314 132.497 154.58 143.891ZM131.458 146.141C127.098 148.156 125.166 150.996 127.694 156.467C130.299 162.102 133.771 162.594 138.131 160.579C142.574 158.526 144.329 155.518 141.762 149.965C139.271 144.576 135.859 144.107 131.458 146.141ZM196.456 124.536C201.741 135.972 197.552 144.298 184.183 150.476C170.815 156.655 162.006 154.337 156.72 142.902C151.454 131.508 156.815 123.988 169.319 118.208C181.783 112.448 191.189 113.142 196.456 124.536ZM173.334 126.786C168.974 128.802 167.041 131.642 169.57 137.112C172.175 142.748 175.647 143.24 180.007 141.224C184.449 139.171 186.204 136.163 183.638 130.61C181.147 125.222 177.735 124.752 173.334 126.786ZM190.792 109.133L222.465 94.494C223.048 95.9717 223.995 98.1296 224.813 99.8984C225.82 102.078 226.603 103.664 227.218 104.777C223.576 113.1 223.185 121.218 227.057 129.812C224.734 130.835 221.713 132.182 219.08 133.399C216.036 134.806 213.217 136.159 211.138 137.169C207.808 129.424 209.378 119.213 212.514 111.523C206.796 114.166 200.75 116.961 195.545 119.416C194.93 117.654 194.191 115.948 193.374 114.18C192.575 112.452 191.755 110.784 190.792 109.133Z" fill="#F7FCFD"/>
</svg>
