<svg width="86" height="133" viewBox="0 0 86 133" fill="none" xmlns="http://www.w3.org/2000/svg">
<line x1="16.6316" y1="99.54" x2="27.521" y2="102.572" stroke="#1B1B1B" stroke-width="4.70983"/>
<line x1="19.0766" y1="97.7826" x2="11.7503" y2="124.099" stroke="#1B1B1B" stroke-width="3.76786"/>
<path d="M9.65724 121.068C11.5903 121.607 13.1817 122.579 14.1984 123.691C15.2204 124.809 15.6155 126.007 15.3259 127.047C15.0363 128.087 14.0789 128.909 12.6264 129.338C11.1814 129.764 9.3166 129.773 7.38359 129.235C5.45038 128.697 3.85799 127.725 2.84126 126.613C1.8193 125.496 1.42422 124.297 1.7137 123.257C2.00324 122.217 2.96068 121.396 4.41325 120.967C5.85832 120.54 7.72397 120.53 9.65724 121.068Z" fill="#1B1B1B" stroke="#1B1B1B" stroke-width="0.941965"/>
<line x1="22.4069" y1="8.08898" x2="31.9173" y2="1.97971" stroke="#1B1B1B" stroke-width="4.70983"/>
<line x1="22.7218" y1="5.09898" x2="37.4858" y2="28.0825" stroke="#1B1B1B" stroke-width="3.76786"/>
<path d="M33.8333 27.6237C35.5216 26.5393 37.3066 25.9989 38.8131 25.9802C40.3275 25.9614 41.4848 26.464 42.0683 27.3724C42.6517 28.2807 42.6277 29.5422 41.981 30.9117C41.3376 32.274 40.1033 33.6719 38.4152 34.7564C36.7268 35.841 34.9417 36.3826 33.4351 36.4014C31.9207 36.4201 30.7634 35.9174 30.1799 35.0092C29.5964 34.1008 29.6204 32.8394 30.2672 31.4699C30.9106 30.1074 32.1449 28.7084 33.8333 27.6237Z" fill="#1B1B1B" stroke="#1B1B1B" stroke-width="0.941965"/>
<line x1="57.1443" y1="59.1654" x2="81.6906" y2="79.5529" stroke="#1B1B1B" stroke-width="5.31814"/>
<line x1="60.4763" y1="58.4959" x2="40.7683" y2="82.224" stroke="#1B1B1B" stroke-width="4.25451"/>
<line x1="81.7536" y1="76.1521" x2="62.0457" y2="99.8802" stroke="#1B1B1B" stroke-width="4.25451"/>
<ellipse cx="36.9603" cy="81.8012" rx="8.50902" ry="5.31814" transform="rotate(39.7121 36.9603 81.8012)" fill="#1B1B1B"/>
<ellipse cx="57.4134" cy="98.8051" rx="8.50902" ry="5.31814" transform="rotate(39.7121 57.4134 98.8051)" fill="#1B1B1B"/>
</svg>
