<svg width="338" height="275" viewBox="0 0 338 275" fill="none" xmlns="http://www.w3.org/2000/svg">
<path d="M165.435 12.5916L189.612 55.297L224.705 20.9931L226.266 70.0424L273.282 55.9764L251.87 100.133L300.036 109.527L260.557 138.676L298.84 169.378L250.337 176.84L269.968 221.817L223.552 205.884L220.032 254.832L186.337 219.153L160.474 260.859L147.219 213.608L104.936 238.517L115.159 190.519L66.1434 192.925L97.5004 155.176L52.9815 134.528L98.2897 115.674L68.4659 76.7024L117.346 81.0645L109.049 32.6966L150.303 59.2748L165.435 12.5916Z" fill="#FF6249"/>
<rect x="1.5625" y="100.555" width="117.6" height="46.4" transform="rotate(-12.5378 1.5625 100.555)" fill="#1B1B1B"/>
<path d="M32.2216 126.8C34.5644 126.279 35.248 125.078 34.8103 123.11C34.331 120.955 33.0813 119.463 29.6797 118.908C24.9488 118.124 22.9805 116.201 22.1816 112.609C21.3827 109.017 23.0483 106.483 27.2029 105.559C31.7322 104.552 34.0649 106.197 34.9749 110.289C35.1416 111.038 35.2354 111.608 35.3779 112.395C34.9961 112.448 34.4651 112.566 33.9028 112.691C33.3093 112.823 32.754 112.979 32.3479 113.069C32.2332 112.406 32.1047 111.681 31.9797 111.119C31.4517 108.745 30.2645 107.829 27.8593 108.363C25.7664 108.829 24.9752 109.988 25.399 111.894C25.8227 113.799 26.7393 115.267 30.3179 115.881C34.6705 116.585 37.0344 118.518 37.8611 122.235C38.6878 125.952 37.1575 128.653 32.8468 129.611C28.0051 130.688 25.5405 128.745 24.6791 124.871C24.4707 123.934 24.3977 123.459 24.2692 122.733C24.6822 122.674 25.2202 122.588 25.8137 122.456C26.4697 122.31 27.0632 122.178 27.5248 122.042C27.6116 122.58 27.7436 123.174 27.8339 123.58C28.4869 126.516 29.7227 127.356 32.2216 126.8ZM35.6813 104.034L47.7387 101.353C47.7908 101.735 47.9159 102.297 48.034 102.828C48.1382 103.296 48.2771 103.921 48.3986 104.32C46.8611 104.629 45.3305 104.97 43.9873 105.268C45.7726 113.296 48.1275 123.886 48.638 125.739C48.1313 125.819 47.4128 125.979 46.9131 126.09C46.4133 126.201 45.7261 126.354 45.2332 126.496C44.9101 124.601 42.5552 114.012 40.7699 105.984C39.4267 106.283 37.8961 106.623 36.3412 107.002C36.2821 106.589 36.1432 105.964 36.039 105.495C35.9209 104.964 35.7959 104.402 35.6813 104.034ZM66.5642 109.164C68.5231 117.973 66.4274 122.111 61.7731 123.146C57.1188 124.181 53.5294 121.308 51.5704 112.499C49.6184 103.721 51.926 100.094 56.4241 99.0934C60.9222 98.0931 64.6121 100.387 66.5642 109.164ZM61.1305 120.109C63.7231 119.532 64.7397 116.88 63.2253 110.071C61.704 103.23 59.6836 101.516 57.1222 102.085C54.5296 102.662 53.388 105.046 54.9163 111.919C56.4376 118.759 58.5378 120.685 61.1305 120.109ZM90.1187 116.514L86.8076 117.251C85.8627 112.412 85.1298 108.969 84.0045 103.909C83.546 101.847 83.1221 99.3518 82.6775 97.0576L82.5838 97.0785C82.664 99.3554 82.7512 101.959 82.682 103.711L81.9034 118.341L80.4352 118.668L73.4497 105.535C72.5852 103.859 71.5575 101.596 70.7311 99.6488L70.6374 99.6697C71.2035 102.068 71.8634 104.445 72.3878 106.656C73.5201 111.748 74.3051 114.983 75.4061 119.786L72.5011 120.432C71.8133 117.045 71.0561 113.64 69.9516 108.673C68.8123 103.55 68.0343 100.052 67.291 97.0045L71.5705 96.0528C72.6294 98.0137 75.4625 103.383 78.0942 108.141C78.6254 109.203 79.3754 110.806 79.9899 112.243L80.1461 112.208C80.1251 110.64 80.1213 109.001 80.201 107.738C80.4986 102.296 80.8031 96.2943 80.9416 93.9688L84.8774 93.0935C85.527 96.1617 86.2737 99.6672 87.413 104.79C88.5175 109.757 89.306 113.155 90.1187 116.514ZM97.7658 104.586C100.64 103.947 101.66 102.638 100.715 98.3897C99.7564 94.0791 98.1874 93.215 95.626 93.7847C95.1262 93.8958 93.9462 94.191 93.141 94.4029C93.9746 98.1513 94.7873 101.806 95.5098 105.055C95.9783 104.95 96.8287 104.794 97.7658 104.586ZM89.1317 92.1474L95.4416 90.7442C99.6898 89.7995 102.529 91.3644 103.946 97.7367C105.294 103.797 103.267 106.477 98.988 107.428C97.8947 107.671 97.3255 107.765 96.194 107.984C96.8227 110.663 97.3749 112.999 97.8715 114.79L94.3418 115.575C93.6922 112.212 92.9419 108.838 91.8305 103.84C90.7259 98.8738 89.9132 95.2191 89.1317 92.1474Z" fill="#F7FCFD"/>
<rect x="222.023" y="122.953" width="117.6" height="46.4" transform="rotate(15 222.023 122.953)" fill="#1B1B1B"/>
<path d="M237.071 160.396C239.39 161.017 240.551 160.268 241.073 158.321C241.644 156.188 241.226 154.287 238.466 152.223C234.634 149.341 233.777 146.726 234.73 143.171C235.682 139.617 238.331 138.14 242.442 139.241C246.924 140.442 248.232 142.979 247.147 147.028C246.948 147.77 246.768 148.318 246.53 149.083C246.167 148.952 245.642 148.812 245.085 148.663C244.498 148.505 243.933 148.387 243.532 148.279C243.736 147.639 243.958 146.936 244.107 146.379C244.736 144.03 244.107 142.669 241.727 142.031C239.656 141.477 238.419 142.139 237.913 144.024C237.408 145.91 237.542 147.635 240.432 149.834C243.966 152.47 245.168 155.277 244.183 158.956C243.197 162.634 240.592 164.321 236.326 163.178C231.535 161.894 230.248 159.032 231.275 155.199C231.524 154.272 231.679 153.816 231.9 153.114C232.294 153.252 232.811 153.424 233.398 153.581C234.047 153.755 234.634 153.913 235.106 154.006C234.935 154.523 234.777 155.11 234.67 155.512C233.891 158.418 234.599 159.734 237.071 160.396ZM250.665 141.809L262.596 145.006C262.465 145.369 262.316 145.925 262.176 146.45C262.051 146.914 261.886 147.532 261.809 147.942C260.303 147.506 258.788 147.1 257.459 146.744C255.33 154.687 252.523 165.166 252.118 167.045C251.632 166.882 250.921 166.691 250.427 166.559C249.932 166.426 249.252 166.244 248.749 166.142C249.339 164.313 252.147 153.834 254.275 145.891C252.946 145.534 251.432 145.129 249.878 144.745C250.016 144.352 250.182 143.734 250.306 143.27C250.447 142.745 250.596 142.188 250.665 141.809ZM275.677 160.636C273.341 169.353 269.57 172.053 264.964 170.819C260.359 169.584 258.505 165.377 260.84 156.661C263.167 147.975 266.891 145.825 271.342 147.018C275.793 148.211 278.004 151.951 275.677 160.636ZM265.799 167.829C268.364 168.516 270.492 166.635 272.297 159.896C274.111 153.127 273.112 150.673 270.577 149.994C268.012 149.306 265.897 150.893 264.075 157.693C262.261 164.462 263.233 167.141 265.799 167.829ZM293.165 178.043L289.888 177.166C291.287 172.439 292.229 169.047 293.571 164.039C294.118 161.999 294.895 159.591 295.562 157.351L295.469 157.326C294.488 159.382 293.361 161.731 292.49 163.253L285.035 175.865L283.583 175.476L283.46 160.601C283.469 158.715 283.604 156.234 283.771 154.125L283.678 154.1C283.071 156.489 282.557 158.902 282 161.105C280.65 166.143 279.851 169.374 278.606 174.143L275.732 173.372C276.688 170.051 277.591 166.681 278.907 161.767C280.266 156.698 281.193 153.236 281.943 150.19L286.178 151.325C286.21 153.553 286.24 159.624 286.374 165.059C286.354 166.247 286.277 168.015 286.158 169.573L286.313 169.615C287.019 168.214 287.773 166.76 288.428 165.676C291.208 160.988 294.253 155.807 295.451 153.809L299.345 154.853C298.503 157.874 297.544 161.327 296.186 166.397C294.869 171.311 293.997 174.689 293.165 178.043ZM305.46 171.002C308.304 171.764 309.814 171.075 310.94 166.871C312.083 162.606 311.091 161.114 308.557 160.435C308.062 160.303 306.879 160.019 306.067 159.834C305.073 163.544 304.104 167.16 303.243 170.375C303.707 170.499 304.533 170.753 305.46 171.002ZM303.555 155.981L309.799 157.654C314.002 158.78 315.797 161.481 314.107 167.786C312.5 173.783 309.464 175.222 305.23 174.087C304.148 173.798 303.6 173.618 302.495 173.288C301.814 175.955 301.224 178.281 300.836 180.099L297.343 179.163C298.322 175.881 299.217 172.542 300.542 167.597C301.859 162.682 302.828 159.066 303.555 155.981Z" fill="#F7FCFD"/>
</svg>
