<svg width="231" height="132" viewBox="0 0 231 132" fill="none" xmlns="http://www.w3.org/2000/svg">
<path d="M115.427 0L127.813 30.239L159.6 4.99776L150.698 35.631L197.047 19.2302L168.213 45.5939L222.068 40.5305L177.693 58.6111L230.855 65.656L177.693 72.7008L222.068 90.7814L168.213 85.7181L197.047 112.082L150.698 95.681L159.6 126.314L127.813 101.073L115.427 131.312L103.042 101.073L71.2553 126.314L80.157 95.681L33.8079 112.082L62.6415 85.7181L8.78639 90.7814L53.1622 72.7008L0 65.656L53.1622 58.6111L8.78639 40.5305L62.6415 45.5939L33.8079 19.2302L80.157 35.631L71.2553 4.99776L103.042 30.239L115.427 0Z" fill="#D4F75F"/>
</svg>
